<svg version="1.1" xmlns="http://www.w3.org/2000/svg" viewBox="0 0 699.6589359465196 590.4396868117706" width="699.6589359465196" height="590.4396868117706"><!-- svg-source:excalidraw --><metadata></metadata><defs><style class="style-fonts">
      </style></defs><g stroke-linecap="round" transform="translate(10 10) rotate(0 339.8294679732598 285.2198434058853)"><path d="M32 0 C252.61 5.61, 474.21 6.99, 647.66 0 C663.56 -4.28, 683.7 7.17, 679.66 32 C679.62 208.18, 678.25 381.39, 679.66 538.44 C681.57 562.55, 672.9 571.57, 647.66 570.44 C427.84 566.69, 211.36 569.27, 32 570.44 C12.3 569.22, -4.08 558.11, 0 538.44 C-5.19 403.99, -6.12 265.21, 0 32 C4.47 13.82, 10.88 -3.06, 32 0" stroke="none" stroke-width="0" fill="#267326"></path><path d="M32 0 C211.7 -4.39, 390.72 -3.12, 647.66 0 M32 0 C206.33 4.92, 382.13 5.33, 647.66 0 M647.66 0 C670.49 0.19, 681.43 9.23, 679.66 32 M647.66 0 C673.47 -4.47, 679.94 8.4, 679.66 32 M679.66 32 C678.79 161.73, 678.53 289.06, 679.66 538.44 M679.66 32 C680.57 229.33, 680.6 427.78, 679.66 538.44 M679.66 538.44 C679.8 563.57, 667.86 568.6, 647.66 570.44 M679.66 538.44 C677.6 562.58, 667.7 566.73, 647.66 570.44 M647.66 570.44 C493.5 567.16, 338.32 566.44, 32 570.44 M647.66 570.44 C483.49 570.34, 318.34 570.99, 32 570.44 M32 570.44 C9.97 572.18, -3.5 559.34, 0 538.44 M32 570.44 C14.35 570.11, 1.08 560.6, 0 538.44 M0 538.44 C3.87 420.14, 3.06 303.42, 0 32 M0 538.44 C-0.1 369.11, -0.18 198.37, 0 32 M0 32 C1.79 6.7, 6.86 3.34, 32 0 M0 32 C-3.91 12.41, 12.8 3.45, 32 0" stroke="#267326" stroke-width="2" fill="none"></path></g><g stroke-linecap="round"><g transform="translate(85.46046229778972 275.9147345570312) rotate(0 -0.3375781347031648 -106.56869895947074)"><path d="M0 0 C-0.11 -35.52, -0.56 -177.61, -0.68 -213.14 M0 0 C-0.11 -35.52, -0.56 -177.61, -0.68 -213.14" stroke="#f2f2f2" stroke-width="2" fill="none"></path></g><g transform="translate(85.46046229778972 275.9147345570312) rotate(0 -0.3375781347031648 -106.56869895947074)"><path d="M7.95 -189.67 C6.18 -194.48, 4.42 -199.28, -0.68 -213.14 M7.95 -189.67 C5.12 -197.38, 2.28 -205.09, -0.68 -213.14" stroke="#f2f2f2" stroke-width="2" fill="none"></path></g><g transform="translate(85.46046229778972 275.9147345570312) rotate(0 -0.3375781347031648 -106.56869895947074)"><path d="M-9.15 -189.62 C-7.42 -194.43, -5.68 -199.25, -0.68 -213.14 M-9.15 -189.62 C-6.37 -197.34, -3.58 -205.07, -0.68 -213.14" stroke="#f2f2f2" stroke-width="2" fill="none"></path></g></g><mask></mask><g stroke-linecap="round"><g transform="translate(67.62998768069883 259.28791543021197) rotate(0 127.34189384280211 0.25647924201365413)"><path d="M0 0 C42.45 0.09, 212.24 0.43, 254.68 0.51 M0 0 C42.45 0.09, 212.24 0.43, 254.68 0.51" stroke="#f2f2f2" stroke-width="2" fill="none"></path></g><g transform="translate(67.62998768069883 259.28791543021197) rotate(0 127.34189384280211 0.25647924201365413)"><path d="M231.17 9.02 C237.39 6.77, 243.6 4.52, 254.68 0.51 M231.17 9.02 C240.4 5.68, 249.63 2.34, 254.68 0.51" stroke="#f2f2f2" stroke-width="2" fill="none"></path></g><g transform="translate(67.62998768069883 259.28791543021197) rotate(0 127.34189384280211 0.25647924201365413)"><path d="M231.21 -8.08 C237.41 -5.81, 243.62 -3.54, 254.68 0.51 M231.21 -8.08 C240.42 -4.71, 249.64 -1.34, 254.68 0.51" stroke="#f2f2f2" stroke-width="2" fill="none"></path></g></g><mask></mask><g stroke-linecap="round"><g transform="translate(179.77430489824872 215.16161658421396) rotate(0 0 0)"><path d="M0 0 C0 0, 0 0, 0 0 M0 0 C0 0, 0 0, 0 0" stroke="#f2f2f2" stroke-width="2" fill="none"></path></g></g><mask></mask><g stroke-linecap="round" transform="translate(106.61630074024458 216.82429849689578) rotate(0 6.650727650727674 7.482068607068584)"><path d="M13.3 7.48 C13.3 7.92, 13.27 8.35, 13.2 8.78 C13.13 9.21, 13.03 9.63, 12.9 10.04 C12.77 10.45, 12.6 10.85, 12.41 11.22 C12.22 11.6, 11.99 11.96, 11.75 12.29 C11.5 12.62, 11.22 12.94, 10.93 13.21 C10.63 13.49, 10.31 13.75, 9.98 13.96 C9.64 14.18, 9.29 14.36, 8.93 14.51 C8.56 14.66, 8.18 14.78, 7.81 14.85 C7.43 14.93, 7.04 14.96, 6.65 14.96 C6.27 14.96, 5.87 14.93, 5.5 14.85 C5.12 14.78, 4.74 14.66, 4.38 14.51 C4.01 14.36, 3.66 14.18, 3.33 13.96 C2.99 13.75, 2.67 13.49, 2.38 13.21 C2.08 12.94, 1.8 12.62, 1.56 12.29 C1.31 11.96, 1.08 11.6, 0.89 11.22 C0.7 10.85, 0.53 10.45, 0.4 10.04 C0.27 9.63, 0.17 9.21, 0.1 8.78 C0.03 8.35, 0 7.92, 0 7.48 C0 7.05, 0.03 6.61, 0.1 6.18 C0.17 5.76, 0.27 5.33, 0.4 4.92 C0.53 4.52, 0.7 4.12, 0.89 3.74 C1.08 3.37, 1.31 3, 1.56 2.67 C1.8 2.34, 2.08 2.03, 2.38 1.75 C2.67 1.47, 2.99 1.22, 3.33 1 C3.66 0.79, 4.01 0.6, 4.38 0.45 C4.74 0.3, 5.12 0.19, 5.5 0.11 C5.87 0.04, 6.27 0, 6.65 0 C7.04 0, 7.43 0.04, 7.81 0.11 C8.18 0.19, 8.56 0.3, 8.93 0.45 C9.29 0.6, 9.64 0.79, 9.98 1 C10.31 1.22, 10.63 1.47, 10.93 1.75 C11.22 2.03, 11.5 2.34, 11.75 2.67 C11.99 3, 12.22 3.37, 12.41 3.74 C12.6 4.12, 12.77 4.52, 12.9 4.92 C13.03 5.33, 13.13 5.76, 13.2 6.18 C13.27 6.61, 13.28 7.27, 13.3 7.48 C13.32 7.7, 13.32 7.27, 13.3 7.48" stroke="none" stroke-width="0" fill="#f2f2f2"></path><path d="M13.3 7.48 C13.3 7.92, 13.27 8.35, 13.2 8.78 C13.13 9.21, 13.03 9.63, 12.9 10.04 C12.77 10.45, 12.6 10.85, 12.41 11.22 C12.22 11.6, 11.99 11.96, 11.75 12.29 C11.5 12.62, 11.22 12.94, 10.93 13.21 C10.63 13.49, 10.31 13.75, 9.98 13.96 C9.64 14.18, 9.29 14.36, 8.93 14.51 C8.56 14.66, 8.18 14.78, 7.81 14.85 C7.43 14.93, 7.04 14.96, 6.65 14.96 C6.27 14.96, 5.87 14.93, 5.5 14.85 C5.12 14.78, 4.74 14.66, 4.38 14.51 C4.01 14.36, 3.66 14.18, 3.33 13.96 C2.99 13.75, 2.67 13.49, 2.38 13.21 C2.08 12.94, 1.8 12.62, 1.56 12.29 C1.31 11.96, 1.08 11.6, 0.89 11.22 C0.7 10.85, 0.53 10.45, 0.4 10.04 C0.27 9.63, 0.17 9.21, 0.1 8.78 C0.03 8.35, 0 7.92, 0 7.48 C0 7.05, 0.03 6.61, 0.1 6.18 C0.17 5.76, 0.27 5.33, 0.4 4.92 C0.53 4.52, 0.7 4.12, 0.89 3.74 C1.08 3.37, 1.31 3, 1.56 2.67 C1.8 2.34, 2.08 2.03, 2.38 1.75 C2.67 1.47, 2.99 1.22, 3.33 1 C3.66 0.79, 4.01 0.6, 4.38 0.45 C4.74 0.3, 5.12 0.19, 5.5 0.11 C5.87 0.04, 6.27 0, 6.65 0 C7.04 0, 7.43 0.04, 7.81 0.11 C8.18 0.19, 8.56 0.3, 8.93 0.45 C9.29 0.6, 9.64 0.79, 9.98 1 C10.31 1.22, 10.63 1.47, 10.93 1.75 C11.22 2.03, 11.5 2.34, 11.75 2.67 C11.99 3, 12.22 3.37, 12.41 3.74 C12.6 4.12, 12.77 4.52, 12.9 4.92 C13.03 5.33, 13.13 5.76, 13.2 6.18 C13.27 6.61, 13.28 7.27, 13.3 7.48 C13.32 7.7, 13.32 7.27, 13.3 7.48" stroke="#f2f2f2" stroke-width="2" fill="none"></path></g><g stroke-linecap="round" transform="translate(171.46089533483917 208.51088893348623) rotate(0 6.650727650727674 7.482068607068584)"><path d="M13.3 7.48 C13.3 7.92, 13.27 8.35, 13.2 8.78 C13.13 9.21, 13.03 9.63, 12.9 10.04 C12.77 10.45, 12.6 10.85, 12.41 11.22 C12.22 11.6, 11.99 11.96, 11.75 12.29 C11.5 12.62, 11.22 12.94, 10.93 13.21 C10.63 13.49, 10.31 13.75, 9.98 13.96 C9.64 14.18, 9.29 14.36, 8.93 14.51 C8.56 14.66, 8.18 14.78, 7.81 14.85 C7.43 14.93, 7.04 14.96, 6.65 14.96 C6.27 14.96, 5.87 14.93, 5.5 14.85 C5.12 14.78, 4.74 14.66, 4.38 14.51 C4.01 14.36, 3.66 14.18, 3.33 13.96 C2.99 13.75, 2.67 13.49, 2.38 13.21 C2.08 12.94, 1.8 12.62, 1.56 12.29 C1.31 11.96, 1.08 11.6, 0.89 11.22 C0.7 10.85, 0.53 10.45, 0.4 10.04 C0.27 9.63, 0.17 9.21, 0.1 8.78 C0.03 8.35, 0 7.92, 0 7.48 C0 7.05, 0.03 6.61, 0.1 6.18 C0.17 5.76, 0.27 5.33, 0.4 4.92 C0.53 4.52, 0.7 4.12, 0.89 3.74 C1.08 3.37, 1.31 3, 1.56 2.67 C1.8 2.34, 2.08 2.03, 2.38 1.75 C2.67 1.47, 2.99 1.22, 3.33 1 C3.66 0.79, 4.01 0.6, 4.38 0.45 C4.74 0.3, 5.12 0.19, 5.5 0.11 C5.87 0.04, 6.27 0, 6.65 0 C7.04 0, 7.43 0.04, 7.81 0.11 C8.18 0.19, 8.56 0.3, 8.93 0.45 C9.29 0.6, 9.64 0.79, 9.98 1 C10.31 1.22, 10.63 1.47, 10.93 1.75 C11.22 2.03, 11.5 2.34, 11.75 2.67 C11.99 3, 12.22 3.37, 12.41 3.74 C12.6 4.12, 12.77 4.52, 12.9 4.92 C13.03 5.33, 13.13 5.76, 13.2 6.18 C13.27 6.61, 13.28 7.27, 13.3 7.48 C13.32 7.7, 13.32 7.27, 13.3 7.48" stroke="none" stroke-width="0" fill="#f2f2f2"></path><path d="M13.3 7.48 C13.3 7.92, 13.27 8.35, 13.2 8.78 C13.13 9.21, 13.03 9.63, 12.9 10.04 C12.77 10.45, 12.6 10.85, 12.41 11.22 C12.22 11.6, 11.99 11.96, 11.75 12.29 C11.5 12.62, 11.22 12.94, 10.93 13.21 C10.63 13.49, 10.31 13.75, 9.98 13.96 C9.64 14.18, 9.29 14.36, 8.93 14.51 C8.56 14.66, 8.18 14.78, 7.81 14.85 C7.43 14.93, 7.04 14.96, 6.65 14.96 C6.27 14.96, 5.87 14.93, 5.5 14.85 C5.12 14.78, 4.74 14.66, 4.38 14.51 C4.01 14.36, 3.66 14.18, 3.33 13.96 C2.99 13.75, 2.67 13.49, 2.38 13.21 C2.08 12.94, 1.8 12.62, 1.56 12.29 C1.31 11.96, 1.08 11.6, 0.89 11.22 C0.7 10.85, 0.53 10.45, 0.4 10.04 C0.27 9.63, 0.17 9.21, 0.1 8.78 C0.03 8.35, 0 7.92, 0 7.48 C0 7.05, 0.03 6.61, 0.1 6.18 C0.17 5.76, 0.27 5.33, 0.4 4.92 C0.53 4.52, 0.7 4.12, 0.89 3.74 C1.08 3.37, 1.31 3, 1.56 2.67 C1.8 2.34, 2.08 2.03, 2.38 1.75 C2.67 1.47, 2.99 1.22, 3.33 1 C3.66 0.79, 4.01 0.6, 4.38 0.45 C4.74 0.3, 5.12 0.19, 5.5 0.11 C5.87 0.04, 6.27 0, 6.65 0 C7.04 0, 7.43 0.04, 7.81 0.11 C8.18 0.19, 8.56 0.3, 8.93 0.45 C9.29 0.6, 9.64 0.79, 9.98 1 C10.31 1.22, 10.63 1.47, 10.93 1.75 C11.22 2.03, 11.5 2.34, 11.75 2.67 C11.99 3, 12.22 3.37, 12.41 3.74 C12.6 4.12, 12.77 4.52, 12.9 4.92 C13.03 5.33, 13.13 5.76, 13.2 6.18 C13.27 6.61, 13.28 7.27, 13.3 7.48 C13.32 7.7, 13.32 7.27, 13.3 7.48" stroke="#f2f2f2" stroke-width="2" fill="none"></path></g><g stroke-linecap="round" transform="translate(279.53521965916354 76.32767687527434) rotate(0 6.650727650727674 7.482068607068584)"><path d="M13.3 7.48 C13.3 7.92, 13.27 8.35, 13.2 8.78 C13.13 9.21, 13.03 9.63, 12.9 10.04 C12.77 10.45, 12.6 10.85, 12.41 11.22 C12.22 11.6, 11.99 11.96, 11.75 12.29 C11.5 12.62, 11.22 12.94, 10.93 13.21 C10.63 13.49, 10.31 13.75, 9.98 13.96 C9.64 14.18, 9.29 14.36, 8.93 14.51 C8.56 14.66, 8.18 14.78, 7.81 14.85 C7.43 14.93, 7.04 14.96, 6.65 14.96 C6.27 14.96, 5.87 14.93, 5.5 14.85 C5.12 14.78, 4.74 14.66, 4.38 14.51 C4.01 14.36, 3.66 14.18, 3.33 13.96 C2.99 13.75, 2.67 13.49, 2.38 13.21 C2.08 12.94, 1.8 12.62, 1.56 12.29 C1.31 11.96, 1.08 11.6, 0.89 11.22 C0.7 10.85, 0.53 10.45, 0.4 10.04 C0.27 9.63, 0.17 9.21, 0.1 8.78 C0.03 8.35, 0 7.92, 0 7.48 C0 7.05, 0.03 6.61, 0.1 6.18 C0.17 5.76, 0.27 5.33, 0.4 4.92 C0.53 4.52, 0.7 4.12, 0.89 3.74 C1.08 3.37, 1.31 3, 1.56 2.67 C1.8 2.34, 2.08 2.03, 2.38 1.75 C2.67 1.47, 2.99 1.22, 3.33 1 C3.66 0.79, 4.01 0.6, 4.38 0.45 C4.74 0.3, 5.12 0.19, 5.5 0.11 C5.87 0.04, 6.27 0, 6.65 0 C7.04 0, 7.43 0.04, 7.81 0.11 C8.18 0.19, 8.56 0.3, 8.93 0.45 C9.29 0.6, 9.64 0.79, 9.98 1 C10.31 1.22, 10.63 1.47, 10.93 1.75 C11.22 2.03, 11.5 2.34, 11.75 2.67 C11.99 3, 12.22 3.37, 12.41 3.74 C12.6 4.12, 12.77 4.52, 12.9 4.92 C13.03 5.33, 13.13 5.76, 13.2 6.18 C13.27 6.61, 13.28 7.27, 13.3 7.48 C13.32 7.7, 13.32 7.27, 13.3 7.48" stroke="none" stroke-width="0" fill="#f2f2f2"></path><path d="M13.3 7.48 C13.3 7.92, 13.27 8.35, 13.2 8.78 C13.13 9.21, 13.03 9.63, 12.9 10.04 C12.77 10.45, 12.6 10.85, 12.41 11.22 C12.22 11.6, 11.99 11.96, 11.75 12.29 C11.5 12.62, 11.22 12.94, 10.93 13.21 C10.63 13.49, 10.31 13.75, 9.98 13.96 C9.64 14.18, 9.29 14.36, 8.93 14.51 C8.56 14.66, 8.18 14.78, 7.81 14.85 C7.43 14.93, 7.04 14.96, 6.65 14.96 C6.27 14.96, 5.87 14.93, 5.5 14.85 C5.12 14.78, 4.74 14.66, 4.38 14.51 C4.01 14.36, 3.66 14.18, 3.33 13.96 C2.99 13.75, 2.67 13.49, 2.38 13.21 C2.08 12.94, 1.8 12.62, 1.56 12.29 C1.31 11.96, 1.08 11.6, 0.89 11.22 C0.7 10.85, 0.53 10.45, 0.4 10.04 C0.27 9.63, 0.17 9.21, 0.1 8.78 C0.03 8.35, 0 7.92, 0 7.48 C0 7.05, 0.03 6.61, 0.1 6.18 C0.17 5.76, 0.27 5.33, 0.4 4.92 C0.53 4.52, 0.7 4.12, 0.89 3.74 C1.08 3.37, 1.31 3, 1.56 2.67 C1.8 2.34, 2.08 2.03, 2.38 1.75 C2.67 1.47, 2.99 1.22, 3.33 1 C3.66 0.79, 4.01 0.6, 4.38 0.45 C4.74 0.3, 5.12 0.19, 5.5 0.11 C5.87 0.04, 6.27 0, 6.65 0 C7.04 0, 7.43 0.04, 7.81 0.11 C8.18 0.19, 8.56 0.3, 8.93 0.45 C9.29 0.6, 9.64 0.79, 9.98 1 C10.31 1.22, 10.63 1.47, 10.93 1.75 C11.22 2.03, 11.5 2.34, 11.75 2.67 C11.99 3, 12.22 3.37, 12.41 3.74 C12.6 4.12, 12.77 4.52, 12.9 4.92 C13.03 5.33, 13.13 5.76, 13.2 6.18 C13.27 6.61, 13.28 7.27, 13.3 7.48 C13.32 7.7, 13.32 7.27, 13.3 7.48" stroke="#f2f2f2" stroke-width="2" fill="none"></path></g><g stroke-linecap="round" transform="translate(209.70257932652305 84.64108643868377) rotate(0 6.650727650727674 7.482068607068584)"><path d="M13.3 7.48 C13.3 7.92, 13.27 8.35, 13.2 8.78 C13.13 9.21, 13.03 9.63, 12.9 10.04 C12.77 10.45, 12.6 10.85, 12.41 11.22 C12.22 11.6, 11.99 11.96, 11.75 12.29 C11.5 12.62, 11.22 12.94, 10.93 13.21 C10.63 13.49, 10.31 13.75, 9.98 13.96 C9.64 14.18, 9.29 14.36, 8.93 14.51 C8.56 14.66, 8.18 14.78, 7.81 14.85 C7.43 14.93, 7.04 14.96, 6.65 14.96 C6.27 14.96, 5.87 14.93, 5.5 14.85 C5.12 14.78, 4.74 14.66, 4.38 14.51 C4.01 14.36, 3.66 14.18, 3.33 13.96 C2.99 13.75, 2.67 13.49, 2.38 13.21 C2.08 12.94, 1.8 12.62, 1.56 12.29 C1.31 11.96, 1.08 11.6, 0.89 11.22 C0.7 10.85, 0.53 10.45, 0.4 10.04 C0.27 9.63, 0.17 9.21, 0.1 8.78 C0.03 8.35, 0 7.92, 0 7.48 C0 7.05, 0.03 6.61, 0.1 6.18 C0.17 5.76, 0.27 5.33, 0.4 4.92 C0.53 4.52, 0.7 4.12, 0.89 3.74 C1.08 3.37, 1.31 3, 1.56 2.67 C1.8 2.34, 2.08 2.03, 2.38 1.75 C2.67 1.47, 2.99 1.22, 3.33 1 C3.66 0.79, 4.01 0.6, 4.38 0.45 C4.74 0.3, 5.12 0.19, 5.5 0.11 C5.87 0.04, 6.27 0, 6.65 0 C7.04 0, 7.43 0.04, 7.81 0.11 C8.18 0.19, 8.56 0.3, 8.93 0.45 C9.29 0.6, 9.64 0.79, 9.98 1 C10.31 1.22, 10.63 1.47, 10.93 1.75 C11.22 2.03, 11.5 2.34, 11.75 2.67 C11.99 3, 12.22 3.37, 12.41 3.74 C12.6 4.12, 12.77 4.52, 12.9 4.92 C13.03 5.33, 13.13 5.76, 13.2 6.18 C13.27 6.61, 13.28 7.27, 13.3 7.48 C13.32 7.7, 13.32 7.27, 13.3 7.48" stroke="none" stroke-width="0" fill="#f2f2f2"></path><path d="M13.3 7.48 C13.3 7.92, 13.27 8.35, 13.2 8.78 C13.13 9.21, 13.03 9.63, 12.9 10.04 C12.77 10.45, 12.6 10.85, 12.41 11.22 C12.22 11.6, 11.99 11.96, 11.75 12.29 C11.5 12.62, 11.22 12.94, 10.93 13.21 C10.63 13.49, 10.31 13.75, 9.98 13.96 C9.64 14.18, 9.29 14.36, 8.93 14.51 C8.56 14.66, 8.18 14.78, 7.81 14.85 C7.43 14.93, 7.04 14.96, 6.65 14.96 C6.27 14.96, 5.87 14.93, 5.5 14.85 C5.12 14.78, 4.74 14.66, 4.38 14.51 C4.01 14.36, 3.66 14.18, 3.33 13.96 C2.99 13.75, 2.67 13.49, 2.38 13.21 C2.08 12.94, 1.8 12.62, 1.56 12.29 C1.31 11.96, 1.08 11.6, 0.89 11.22 C0.7 10.85, 0.53 10.45, 0.4 10.04 C0.27 9.63, 0.17 9.21, 0.1 8.78 C0.03 8.35, 0 7.92, 0 7.48 C0 7.05, 0.03 6.61, 0.1 6.18 C0.17 5.76, 0.27 5.33, 0.4 4.92 C0.53 4.52, 0.7 4.12, 0.89 3.74 C1.08 3.37, 1.31 3, 1.56 2.67 C1.8 2.34, 2.08 2.03, 2.38 1.75 C2.67 1.47, 2.99 1.22, 3.33 1 C3.66 0.79, 4.01 0.6, 4.38 0.45 C4.74 0.3, 5.12 0.19, 5.5 0.11 C5.87 0.04, 6.27 0, 6.65 0 C7.04 0, 7.43 0.04, 7.81 0.11 C8.18 0.19, 8.56 0.3, 8.93 0.45 C9.29 0.6, 9.64 0.79, 9.98 1 C10.31 1.22, 10.63 1.47, 10.93 1.75 C11.22 2.03, 11.5 2.34, 11.75 2.67 C11.99 3, 12.22 3.37, 12.41 3.74 C12.6 4.12, 12.77 4.52, 12.9 4.92 C13.03 5.33, 13.13 5.76, 13.2 6.18 C13.27 6.61, 13.28 7.27, 13.3 7.48 C13.32 7.7, 13.32 7.27, 13.3 7.48" stroke="#f2f2f2" stroke-width="2" fill="none"></path></g><g stroke-linecap="round" transform="translate(154.83407620802006 152.81104485864233) rotate(0 6.650727650727674 7.482068607068584)"><path d="M13.3 7.48 C13.3 7.92, 13.27 8.35, 13.2 8.78 C13.13 9.21, 13.03 9.63, 12.9 10.04 C12.77 10.45, 12.6 10.85, 12.41 11.22 C12.22 11.6, 11.99 11.96, 11.75 12.29 C11.5 12.62, 11.22 12.94, 10.93 13.21 C10.63 13.49, 10.31 13.75, 9.98 13.96 C9.64 14.18, 9.29 14.36, 8.93 14.51 C8.56 14.66, 8.18 14.78, 7.81 14.85 C7.43 14.93, 7.04 14.96, 6.65 14.96 C6.27 14.96, 5.87 14.93, 5.5 14.85 C5.12 14.78, 4.74 14.66, 4.38 14.51 C4.01 14.36, 3.66 14.18, 3.33 13.96 C2.99 13.75, 2.67 13.49, 2.38 13.21 C2.08 12.94, 1.8 12.62, 1.56 12.29 C1.31 11.96, 1.08 11.6, 0.89 11.22 C0.7 10.85, 0.53 10.45, 0.4 10.04 C0.27 9.63, 0.17 9.21, 0.1 8.78 C0.03 8.35, 0 7.92, 0 7.48 C0 7.05, 0.03 6.61, 0.1 6.18 C0.17 5.76, 0.27 5.33, 0.4 4.92 C0.53 4.52, 0.7 4.12, 0.89 3.74 C1.08 3.37, 1.31 3, 1.56 2.67 C1.8 2.34, 2.08 2.03, 2.38 1.75 C2.67 1.47, 2.99 1.22, 3.33 1 C3.66 0.79, 4.01 0.6, 4.38 0.45 C4.74 0.3, 5.12 0.19, 5.5 0.11 C5.87 0.04, 6.27 0, 6.65 0 C7.04 0, 7.43 0.04, 7.81 0.11 C8.18 0.19, 8.56 0.3, 8.93 0.45 C9.29 0.6, 9.64 0.79, 9.98 1 C10.31 1.22, 10.63 1.47, 10.93 1.75 C11.22 2.03, 11.5 2.34, 11.75 2.67 C11.99 3, 12.22 3.37, 12.41 3.74 C12.6 4.12, 12.77 4.52, 12.9 4.92 C13.03 5.33, 13.13 5.76, 13.2 6.18 C13.27 6.61, 13.28 7.27, 13.3 7.48 C13.32 7.7, 13.32 7.27, 13.3 7.48" stroke="none" stroke-width="0" fill="#f2f2f2"></path><path d="M13.3 7.48 C13.3 7.92, 13.27 8.35, 13.2 8.78 C13.13 9.21, 13.03 9.63, 12.9 10.04 C12.77 10.45, 12.6 10.85, 12.41 11.22 C12.22 11.6, 11.99 11.96, 11.75 12.29 C11.5 12.62, 11.22 12.94, 10.93 13.21 C10.63 13.49, 10.31 13.75, 9.98 13.96 C9.64 14.18, 9.29 14.36, 8.93 14.51 C8.56 14.66, 8.18 14.78, 7.81 14.85 C7.43 14.93, 7.04 14.96, 6.65 14.96 C6.27 14.96, 5.87 14.93, 5.5 14.85 C5.12 14.78, 4.74 14.66, 4.38 14.51 C4.01 14.36, 3.66 14.18, 3.33 13.96 C2.99 13.75, 2.67 13.49, 2.38 13.21 C2.08 12.94, 1.8 12.62, 1.56 12.29 C1.31 11.96, 1.08 11.6, 0.89 11.22 C0.7 10.85, 0.53 10.45, 0.4 10.04 C0.27 9.63, 0.17 9.21, 0.1 8.78 C0.03 8.35, 0 7.92, 0 7.48 C0 7.05, 0.03 6.61, 0.1 6.18 C0.17 5.76, 0.27 5.33, 0.4 4.92 C0.53 4.52, 0.7 4.12, 0.89 3.74 C1.08 3.37, 1.31 3, 1.56 2.67 C1.8 2.34, 2.08 2.03, 2.38 1.75 C2.67 1.47, 2.99 1.22, 3.33 1 C3.66 0.79, 4.01 0.6, 4.38 0.45 C4.74 0.3, 5.12 0.19, 5.5 0.11 C5.87 0.04, 6.27 0, 6.65 0 C7.04 0, 7.43 0.04, 7.81 0.11 C8.18 0.19, 8.56 0.3, 8.93 0.45 C9.29 0.6, 9.64 0.79, 9.98 1 C10.31 1.22, 10.63 1.47, 10.93 1.75 C11.22 2.03, 11.5 2.34, 11.75 2.67 C11.99 3, 12.22 3.37, 12.41 3.74 C12.6 4.12, 12.77 4.52, 12.9 4.92 C13.03 5.33, 13.13 5.76, 13.2 6.18 C13.27 6.61, 13.28 7.27, 13.3 7.48 C13.32 7.7, 13.32 7.27, 13.3 7.48" stroke="#f2f2f2" stroke-width="2" fill="none"></path></g><g stroke-linecap="round" transform="translate(223.0040346279784 127.87081616841346) rotate(0 6.650727650727674 7.482068607068584)"><path d="M13.3 7.48 C13.3 7.92, 13.27 8.35, 13.2 8.78 C13.13 9.21, 13.03 9.63, 12.9 10.04 C12.77 10.45, 12.6 10.85, 12.41 11.22 C12.22 11.6, 11.99 11.96, 11.75 12.29 C11.5 12.62, 11.22 12.94, 10.93 13.21 C10.63 13.49, 10.31 13.75, 9.98 13.96 C9.64 14.18, 9.29 14.36, 8.93 14.51 C8.56 14.66, 8.18 14.78, 7.81 14.85 C7.43 14.93, 7.04 14.96, 6.65 14.96 C6.27 14.96, 5.87 14.93, 5.5 14.85 C5.12 14.78, 4.74 14.66, 4.38 14.51 C4.01 14.36, 3.66 14.18, 3.33 13.96 C2.99 13.75, 2.67 13.49, 2.38 13.21 C2.08 12.94, 1.8 12.62, 1.56 12.29 C1.31 11.96, 1.08 11.6, 0.89 11.22 C0.7 10.85, 0.53 10.45, 0.4 10.04 C0.27 9.63, 0.17 9.21, 0.1 8.78 C0.03 8.35, 0 7.92, 0 7.48 C0 7.05, 0.03 6.61, 0.1 6.18 C0.17 5.76, 0.27 5.33, 0.4 4.92 C0.53 4.52, 0.7 4.12, 0.89 3.74 C1.08 3.37, 1.31 3, 1.56 2.67 C1.8 2.34, 2.08 2.03, 2.38 1.75 C2.67 1.47, 2.99 1.22, 3.33 1 C3.66 0.79, 4.01 0.6, 4.38 0.45 C4.74 0.3, 5.12 0.19, 5.5 0.11 C5.87 0.04, 6.27 0, 6.65 0 C7.04 0, 7.43 0.04, 7.81 0.11 C8.18 0.19, 8.56 0.3, 8.93 0.45 C9.29 0.6, 9.64 0.79, 9.98 1 C10.31 1.22, 10.63 1.47, 10.93 1.75 C11.22 2.03, 11.5 2.34, 11.75 2.67 C11.99 3, 12.22 3.37, 12.41 3.74 C12.6 4.12, 12.77 4.52, 12.9 4.92 C13.03 5.33, 13.13 5.76, 13.2 6.18 C13.27 6.61, 13.28 7.27, 13.3 7.48 C13.32 7.7, 13.32 7.27, 13.3 7.48" stroke="none" stroke-width="0" fill="#f2f2f2"></path><path d="M13.3 7.48 C13.3 7.92, 13.27 8.35, 13.2 8.78 C13.13 9.21, 13.03 9.63, 12.9 10.04 C12.77 10.45, 12.6 10.85, 12.41 11.22 C12.22 11.6, 11.99 11.96, 11.75 12.29 C11.5 12.62, 11.22 12.94, 10.93 13.21 C10.63 13.49, 10.31 13.75, 9.98 13.96 C9.64 14.18, 9.29 14.36, 8.93 14.51 C8.56 14.66, 8.18 14.78, 7.81 14.85 C7.43 14.93, 7.04 14.96, 6.65 14.96 C6.27 14.96, 5.87 14.93, 5.5 14.85 C5.12 14.78, 4.74 14.66, 4.38 14.51 C4.01 14.36, 3.66 14.18, 3.33 13.96 C2.99 13.75, 2.67 13.49, 2.38 13.21 C2.08 12.94, 1.8 12.62, 1.56 12.29 C1.31 11.96, 1.08 11.6, 0.89 11.22 C0.7 10.85, 0.53 10.45, 0.4 10.04 C0.27 9.63, 0.17 9.21, 0.1 8.78 C0.03 8.35, 0 7.92, 0 7.48 C0 7.05, 0.03 6.61, 0.1 6.18 C0.17 5.76, 0.27 5.33, 0.4 4.92 C0.53 4.52, 0.7 4.12, 0.89 3.74 C1.08 3.37, 1.31 3, 1.56 2.67 C1.8 2.34, 2.08 2.03, 2.38 1.75 C2.67 1.47, 2.99 1.22, 3.33 1 C3.66 0.79, 4.01 0.6, 4.38 0.45 C4.74 0.3, 5.12 0.19, 5.5 0.11 C5.87 0.04, 6.27 0, 6.65 0 C7.04 0, 7.43 0.04, 7.81 0.11 C8.18 0.19, 8.56 0.3, 8.93 0.45 C9.29 0.6, 9.64 0.79, 9.98 1 C10.31 1.22, 10.63 1.47, 10.93 1.75 C11.22 2.03, 11.5 2.34, 11.75 2.67 C11.99 3, 12.22 3.37, 12.41 3.74 C12.6 4.12, 12.77 4.52, 12.9 4.92 C13.03 5.33, 13.13 5.76, 13.2 6.18 C13.27 6.61, 13.28 7.27, 13.3 7.48 C13.32 7.7, 13.32 7.27, 13.3 7.48" stroke="#f2f2f2" stroke-width="2" fill="none"></path></g><g stroke-linecap="round"><g transform="translate(111.60434647829027 213.4989346715319) rotate(0 73.9893451143451 -57.362525987526)"><path d="M0 0 C24.66 -19.12, 123.32 -95.6, 147.98 -114.73 M0 0 C24.66 -19.12, 123.32 -95.6, 147.98 -114.73" stroke="#f2f2f2" stroke-width="2" fill="none"></path></g></g><mask></mask><g stroke-linecap="round"><g transform="translate(89.98948161342537 181.90797833057576) rotate(0 108.90566528066529 -23.277546777546775)"><path d="M0 0 C36.3 -7.76, 181.51 -38.8, 217.81 -46.56" stroke="#f2f2f2" stroke-width="2.5" fill="none" stroke-dasharray="8 10"></path></g></g><mask></mask><g stroke-linecap="round"><g transform="translate(398.33979797285554 277.692801615399) rotate(0 -0.2218738441762298 -104.45773248865464)"><path d="M0 0 C-0.07 -34.82, -0.37 -174.1, -0.44 -208.92 M0 0 C-0.07 -34.82, -0.37 -174.1, -0.44 -208.92" stroke="#f2f2f2" stroke-width="2" fill="none"></path></g><g transform="translate(398.33979797285554 277.692801615399) rotate(0 -0.2218738441762298 -104.45773248865464)"><path d="M8.16 -185.44 C5.67 -192.23, 3.19 -199.01, -0.44 -208.92 M8.16 -185.44 C5.86 -191.7, 3.57 -197.96, -0.44 -208.92" stroke="#f2f2f2" stroke-width="2" fill="none"></path></g><g transform="translate(398.33979797285554 277.692801615399) rotate(0 -0.2218738441762298 -104.45773248865464)"><path d="M-8.94 -185.41 C-6.49 -192.2, -4.03 -198.99, -0.44 -208.92 M-8.94 -185.41 C-6.68 -191.67, -4.41 -197.94, -0.44 -208.92" stroke="#f2f2f2" stroke-width="2" fill="none"></path></g></g><mask></mask><g stroke-linecap="round"><g transform="translate(380.77950240344614 261.0659824885799) rotate(0 128.81707087152392 -0.23793237277618573)"><path d="M0 0 C42.94 -0.08, 214.7 -0.4, 257.63 -0.48 M0 0 C42.94 -0.08, 214.7 -0.4, 257.63 -0.48" stroke="#f2f2f2" stroke-width="2" fill="none"></path></g><g transform="translate(380.77950240344614 261.0659824885799) rotate(0 128.81707087152392 -0.23793237277618573)"><path d="M234.16 8.12 C241.36 5.48, 248.56 2.85, 257.63 -0.48 M234.16 8.12 C239.1 6.31, 244.05 4.5, 257.63 -0.48" stroke="#f2f2f2" stroke-width="2" fill="none"></path></g><g transform="translate(380.77950240344614 261.0659824885799) rotate(0 128.81707087152392 -0.23793237277618573)"><path d="M234.13 -8.98 C241.34 -6.37, 248.55 -3.76, 257.63 -0.48 M234.13 -8.98 C239.08 -7.19, 244.03 -5.4, 257.63 -0.48" stroke="#f2f2f2" stroke-width="2" fill="none"></path></g></g><mask></mask><g stroke-linecap="round" transform="translate(447.2867789107228 138.85886190645937) rotate(0 6.650727650727617 7.482068607068584)"><path d="M13.3 7.48 C13.3 7.92, 13.27 8.35, 13.2 8.78 C13.13 9.21, 13.03 9.63, 12.9 10.04 C12.77 10.45, 12.6 10.85, 12.41 11.22 C12.22 11.6, 11.99 11.96, 11.75 12.29 C11.5 12.62, 11.22 12.94, 10.93 13.21 C10.63 13.49, 10.31 13.75, 9.98 13.96 C9.64 14.18, 9.29 14.36, 8.93 14.51 C8.56 14.66, 8.18 14.78, 7.81 14.85 C7.43 14.93, 7.04 14.96, 6.65 14.96 C6.27 14.96, 5.87 14.93, 5.5 14.85 C5.12 14.78, 4.74 14.66, 4.38 14.51 C4.01 14.36, 3.66 14.18, 3.33 13.96 C2.99 13.75, 2.67 13.49, 2.38 13.21 C2.08 12.94, 1.8 12.62, 1.56 12.29 C1.31 11.96, 1.08 11.6, 0.89 11.22 C0.7 10.85, 0.53 10.45, 0.4 10.04 C0.27 9.63, 0.17 9.21, 0.1 8.78 C0.03 8.35, 0 7.92, 0 7.48 C0 7.05, 0.03 6.61, 0.1 6.18 C0.17 5.76, 0.27 5.33, 0.4 4.92 C0.53 4.52, 0.7 4.12, 0.89 3.74 C1.08 3.37, 1.31 3, 1.56 2.67 C1.8 2.34, 2.08 2.03, 2.38 1.75 C2.67 1.47, 2.99 1.22, 3.33 1 C3.66 0.79, 4.01 0.6, 4.38 0.45 C4.74 0.3, 5.12 0.19, 5.5 0.11 C5.87 0.04, 6.27 0, 6.65 0 C7.04 0, 7.43 0.04, 7.81 0.11 C8.18 0.19, 8.56 0.3, 8.93 0.45 C9.29 0.6, 9.64 0.79, 9.98 1 C10.31 1.22, 10.63 1.47, 10.93 1.75 C11.22 2.03, 11.5 2.34, 11.75 2.67 C11.99 3, 12.22 3.37, 12.41 3.74 C12.6 4.12, 12.77 4.52, 12.9 4.92 C13.03 5.33, 13.13 5.76, 13.2 6.18 C13.27 6.61, 13.28 7.27, 13.3 7.48 C13.32 7.7, 13.32 7.27, 13.3 7.48" stroke="none" stroke-width="0" fill="#f2f2f2"></path><path d="M13.3 7.48 C13.3 7.92, 13.27 8.35, 13.2 8.78 C13.13 9.21, 13.03 9.63, 12.9 10.04 C12.77 10.45, 12.6 10.85, 12.41 11.22 C12.22 11.6, 11.99 11.96, 11.75 12.29 C11.5 12.62, 11.22 12.94, 10.93 13.21 C10.63 13.49, 10.31 13.75, 9.98 13.96 C9.64 14.18, 9.29 14.36, 8.93 14.51 C8.56 14.66, 8.18 14.78, 7.81 14.85 C7.43 14.93, 7.04 14.96, 6.65 14.96 C6.27 14.96, 5.87 14.93, 5.5 14.85 C5.12 14.78, 4.74 14.66, 4.38 14.51 C4.01 14.36, 3.66 14.18, 3.33 13.96 C2.99 13.75, 2.67 13.49, 2.38 13.21 C2.08 12.94, 1.8 12.62, 1.56 12.29 C1.31 11.96, 1.08 11.6, 0.89 11.22 C0.7 10.85, 0.53 10.45, 0.4 10.04 C0.27 9.63, 0.17 9.21, 0.1 8.78 C0.03 8.35, 0 7.92, 0 7.48 C0 7.05, 0.03 6.61, 0.1 6.18 C0.17 5.76, 0.27 5.33, 0.4 4.92 C0.53 4.52, 0.7 4.12, 0.89 3.74 C1.08 3.37, 1.31 3, 1.56 2.67 C1.8 2.34, 2.08 2.03, 2.38 1.75 C2.67 1.47, 2.99 1.22, 3.33 1 C3.66 0.79, 4.01 0.6, 4.38 0.45 C4.74 0.3, 5.12 0.19, 5.5 0.11 C5.87 0.04, 6.27 0, 6.65 0 C7.04 0, 7.43 0.04, 7.81 0.11 C8.18 0.19, 8.56 0.3, 8.93 0.45 C9.29 0.6, 9.64 0.79, 9.98 1 C10.31 1.22, 10.63 1.47, 10.93 1.75 C11.22 2.03, 11.5 2.34, 11.75 2.67 C11.99 3, 12.22 3.37, 12.41 3.74 C12.6 4.12, 12.77 4.52, 12.9 4.92 C13.03 5.33, 13.13 5.76, 13.2 6.18 C13.27 6.61, 13.28 7.27, 13.3 7.48 C13.32 7.7, 13.32 7.27, 13.3 7.48" stroke="#f2f2f2" stroke-width="2" fill="none"></path></g><g stroke-linecap="round" transform="translate(414.0331406570846 190.40200119959871) rotate(0 6.650727650727617 7.482068607068584)"><path d="M13.3 7.48 C13.3 7.92, 13.27 8.35, 13.2 8.78 C13.13 9.21, 13.03 9.63, 12.9 10.04 C12.77 10.45, 12.6 10.85, 12.41 11.22 C12.22 11.6, 11.99 11.96, 11.75 12.29 C11.5 12.62, 11.22 12.94, 10.93 13.21 C10.63 13.49, 10.31 13.75, 9.98 13.96 C9.64 14.18, 9.29 14.36, 8.93 14.51 C8.56 14.66, 8.18 14.78, 7.81 14.85 C7.43 14.93, 7.04 14.96, 6.65 14.96 C6.27 14.96, 5.87 14.93, 5.5 14.85 C5.12 14.78, 4.74 14.66, 4.38 14.51 C4.01 14.36, 3.66 14.18, 3.33 13.96 C2.99 13.75, 2.67 13.49, 2.38 13.21 C2.08 12.94, 1.8 12.62, 1.56 12.29 C1.31 11.96, 1.08 11.6, 0.89 11.22 C0.7 10.85, 0.53 10.45, 0.4 10.04 C0.27 9.63, 0.17 9.21, 0.1 8.78 C0.03 8.35, 0 7.92, 0 7.48 C0 7.05, 0.03 6.61, 0.1 6.18 C0.17 5.76, 0.27 5.33, 0.4 4.92 C0.53 4.52, 0.7 4.12, 0.89 3.74 C1.08 3.37, 1.31 3, 1.56 2.67 C1.8 2.34, 2.08 2.03, 2.38 1.75 C2.67 1.47, 2.99 1.22, 3.33 1 C3.66 0.79, 4.01 0.6, 4.38 0.45 C4.74 0.3, 5.12 0.19, 5.5 0.11 C5.87 0.04, 6.27 0, 6.65 0 C7.04 0, 7.43 0.04, 7.81 0.11 C8.18 0.19, 8.56 0.3, 8.93 0.45 C9.29 0.6, 9.64 0.79, 9.98 1 C10.31 1.22, 10.63 1.47, 10.93 1.75 C11.22 2.03, 11.5 2.34, 11.75 2.67 C11.99 3, 12.22 3.37, 12.41 3.74 C12.6 4.12, 12.77 4.52, 12.9 4.92 C13.03 5.33, 13.13 5.76, 13.2 6.18 C13.27 6.61, 13.28 7.27, 13.3 7.48 C13.32 7.7, 13.32 7.27, 13.3 7.48" stroke="none" stroke-width="0" fill="#f2f2f2"></path><path d="M13.3 7.48 C13.3 7.92, 13.27 8.35, 13.2 8.78 C13.13 9.21, 13.03 9.63, 12.9 10.04 C12.77 10.45, 12.6 10.85, 12.41 11.22 C12.22 11.6, 11.99 11.96, 11.75 12.29 C11.5 12.62, 11.22 12.94, 10.93 13.21 C10.63 13.49, 10.31 13.75, 9.98 13.96 C9.64 14.18, 9.29 14.36, 8.93 14.51 C8.56 14.66, 8.18 14.78, 7.81 14.85 C7.43 14.93, 7.04 14.96, 6.65 14.96 C6.27 14.96, 5.87 14.93, 5.5 14.85 C5.12 14.78, 4.74 14.66, 4.38 14.51 C4.01 14.36, 3.66 14.18, 3.33 13.96 C2.99 13.75, 2.67 13.49, 2.38 13.21 C2.08 12.94, 1.8 12.62, 1.56 12.29 C1.31 11.96, 1.08 11.6, 0.89 11.22 C0.7 10.85, 0.53 10.45, 0.4 10.04 C0.27 9.63, 0.17 9.21, 0.1 8.78 C0.03 8.35, 0 7.92, 0 7.48 C0 7.05, 0.03 6.61, 0.1 6.18 C0.17 5.76, 0.27 5.33, 0.4 4.92 C0.53 4.52, 0.7 4.12, 0.89 3.74 C1.08 3.37, 1.31 3, 1.56 2.67 C1.8 2.34, 2.08 2.03, 2.38 1.75 C2.67 1.47, 2.99 1.22, 3.33 1 C3.66 0.79, 4.01 0.6, 4.38 0.45 C4.74 0.3, 5.12 0.19, 5.5 0.11 C5.87 0.04, 6.27 0, 6.65 0 C7.04 0, 7.43 0.04, 7.81 0.11 C8.18 0.19, 8.56 0.3, 8.93 0.45 C9.29 0.6, 9.64 0.79, 9.98 1 C10.31 1.22, 10.63 1.47, 10.93 1.75 C11.22 2.03, 11.5 2.34, 11.75 2.67 C11.99 3, 12.22 3.37, 12.41 3.74 C12.6 4.12, 12.77 4.52, 12.9 4.92 C13.03 5.33, 13.13 5.76, 13.2 6.18 C13.27 6.61, 13.28 7.27, 13.3 7.48 C13.32 7.7, 13.32 7.27, 13.3 7.48" stroke="#f2f2f2" stroke-width="2" fill="none"></path></g><g stroke-linecap="round" transform="translate(510.46869159263554 137.19617999377755) rotate(0 6.650727650727617 7.482068607068584)"><path d="M13.3 7.48 C13.3 7.92, 13.27 8.35, 13.2 8.78 C13.13 9.21, 13.03 9.63, 12.9 10.04 C12.77 10.45, 12.6 10.85, 12.41 11.22 C12.22 11.6, 11.99 11.96, 11.75 12.29 C11.5 12.62, 11.22 12.94, 10.93 13.21 C10.63 13.49, 10.31 13.75, 9.98 13.96 C9.64 14.18, 9.29 14.36, 8.93 14.51 C8.56 14.66, 8.18 14.78, 7.81 14.85 C7.43 14.93, 7.04 14.96, 6.65 14.96 C6.27 14.96, 5.87 14.93, 5.5 14.85 C5.12 14.78, 4.74 14.66, 4.38 14.51 C4.01 14.36, 3.66 14.18, 3.33 13.96 C2.99 13.75, 2.67 13.49, 2.38 13.21 C2.08 12.94, 1.8 12.62, 1.56 12.29 C1.31 11.96, 1.08 11.6, 0.89 11.22 C0.7 10.85, 0.53 10.45, 0.4 10.04 C0.27 9.63, 0.17 9.21, 0.1 8.78 C0.03 8.35, 0 7.92, 0 7.48 C0 7.05, 0.03 6.61, 0.1 6.18 C0.17 5.76, 0.27 5.33, 0.4 4.92 C0.53 4.52, 0.7 4.12, 0.89 3.74 C1.08 3.37, 1.31 3, 1.56 2.67 C1.8 2.34, 2.08 2.03, 2.38 1.75 C2.67 1.47, 2.99 1.22, 3.33 1 C3.66 0.79, 4.01 0.6, 4.38 0.45 C4.74 0.3, 5.12 0.19, 5.5 0.11 C5.87 0.04, 6.27 0, 6.65 0 C7.04 0, 7.43 0.04, 7.81 0.11 C8.18 0.19, 8.56 0.3, 8.93 0.45 C9.29 0.6, 9.64 0.79, 9.98 1 C10.31 1.22, 10.63 1.47, 10.93 1.75 C11.22 2.03, 11.5 2.34, 11.75 2.67 C11.99 3, 12.22 3.37, 12.41 3.74 C12.6 4.12, 12.77 4.52, 12.9 4.92 C13.03 5.33, 13.13 5.76, 13.2 6.18 C13.27 6.61, 13.28 7.27, 13.3 7.48 C13.32 7.7, 13.32 7.27, 13.3 7.48" stroke="none" stroke-width="0" fill="#f2f2f2"></path><path d="M13.3 7.48 C13.3 7.92, 13.27 8.35, 13.2 8.78 C13.13 9.21, 13.03 9.63, 12.9 10.04 C12.77 10.45, 12.6 10.85, 12.41 11.22 C12.22 11.6, 11.99 11.96, 11.75 12.29 C11.5 12.62, 11.22 12.94, 10.93 13.21 C10.63 13.49, 10.31 13.75, 9.98 13.96 C9.64 14.18, 9.29 14.36, 8.93 14.51 C8.56 14.66, 8.18 14.78, 7.81 14.85 C7.43 14.93, 7.04 14.96, 6.65 14.96 C6.27 14.96, 5.87 14.93, 5.5 14.85 C5.12 14.78, 4.74 14.66, 4.38 14.51 C4.01 14.36, 3.66 14.18, 3.33 13.96 C2.99 13.75, 2.67 13.49, 2.38 13.21 C2.08 12.94, 1.8 12.62, 1.56 12.29 C1.31 11.96, 1.08 11.6, 0.89 11.22 C0.7 10.85, 0.53 10.45, 0.4 10.04 C0.27 9.63, 0.17 9.21, 0.1 8.78 C0.03 8.35, 0 7.92, 0 7.48 C0 7.05, 0.03 6.61, 0.1 6.18 C0.17 5.76, 0.27 5.33, 0.4 4.92 C0.53 4.52, 0.7 4.12, 0.89 3.74 C1.08 3.37, 1.31 3, 1.56 2.67 C1.8 2.34, 2.08 2.03, 2.38 1.75 C2.67 1.47, 2.99 1.22, 3.33 1 C3.66 0.79, 4.01 0.6, 4.38 0.45 C4.74 0.3, 5.12 0.19, 5.5 0.11 C5.87 0.04, 6.27 0, 6.65 0 C7.04 0, 7.43 0.04, 7.81 0.11 C8.18 0.19, 8.56 0.3, 8.93 0.45 C9.29 0.6, 9.64 0.79, 9.98 1 C10.31 1.22, 10.63 1.47, 10.93 1.75 C11.22 2.03, 11.5 2.34, 11.75 2.67 C11.99 3, 12.22 3.37, 12.41 3.74 C12.6 4.12, 12.77 4.52, 12.9 4.92 C13.03 5.33, 13.13 5.76, 13.2 6.18 C13.27 6.61, 13.28 7.27, 13.3 7.48 C13.32 7.7, 13.32 7.27, 13.3 7.48" stroke="#f2f2f2" stroke-width="2" fill="none"></path></g><g stroke-linecap="round" transform="translate(475.5523714263153 192.06468311228053) rotate(0 6.650727650727617 7.482068607068584)"><path d="M13.3 7.48 C13.3 7.92, 13.27 8.35, 13.2 8.78 C13.13 9.21, 13.03 9.63, 12.9 10.04 C12.77 10.45, 12.6 10.85, 12.41 11.22 C12.22 11.6, 11.99 11.96, 11.75 12.29 C11.5 12.62, 11.22 12.94, 10.93 13.21 C10.63 13.49, 10.31 13.75, 9.98 13.96 C9.64 14.18, 9.29 14.36, 8.93 14.51 C8.56 14.66, 8.18 14.78, 7.81 14.85 C7.43 14.93, 7.04 14.96, 6.65 14.96 C6.27 14.96, 5.87 14.93, 5.5 14.85 C5.12 14.78, 4.74 14.66, 4.38 14.51 C4.01 14.36, 3.66 14.18, 3.33 13.96 C2.99 13.75, 2.67 13.49, 2.38 13.21 C2.08 12.94, 1.8 12.62, 1.56 12.29 C1.31 11.96, 1.08 11.6, 0.89 11.22 C0.7 10.85, 0.53 10.45, 0.4 10.04 C0.27 9.63, 0.17 9.21, 0.1 8.78 C0.03 8.35, 0 7.92, 0 7.48 C0 7.05, 0.03 6.61, 0.1 6.18 C0.17 5.76, 0.27 5.33, 0.4 4.92 C0.53 4.52, 0.7 4.12, 0.89 3.74 C1.08 3.37, 1.31 3, 1.56 2.67 C1.8 2.34, 2.08 2.03, 2.38 1.75 C2.67 1.47, 2.99 1.22, 3.33 1 C3.66 0.79, 4.01 0.6, 4.38 0.45 C4.74 0.3, 5.12 0.19, 5.5 0.11 C5.87 0.04, 6.27 0, 6.65 0 C7.04 0, 7.43 0.04, 7.81 0.11 C8.18 0.19, 8.56 0.3, 8.93 0.45 C9.29 0.6, 9.64 0.79, 9.98 1 C10.31 1.22, 10.63 1.47, 10.93 1.75 C11.22 2.03, 11.5 2.34, 11.75 2.67 C11.99 3, 12.22 3.37, 12.41 3.74 C12.6 4.12, 12.77 4.52, 12.9 4.92 C13.03 5.33, 13.13 5.76, 13.2 6.18 C13.27 6.61, 13.28 7.27, 13.3 7.48 C13.32 7.7, 13.32 7.27, 13.3 7.48" stroke="none" stroke-width="0" fill="#f2f2f2"></path><path d="M13.3 7.48 C13.3 7.92, 13.27 8.35, 13.2 8.78 C13.13 9.21, 13.03 9.63, 12.9 10.04 C12.77 10.45, 12.6 10.85, 12.41 11.22 C12.22 11.6, 11.99 11.96, 11.75 12.29 C11.5 12.62, 11.22 12.94, 10.93 13.21 C10.63 13.49, 10.31 13.75, 9.98 13.96 C9.64 14.18, 9.29 14.36, 8.93 14.51 C8.56 14.66, 8.18 14.78, 7.81 14.85 C7.43 14.93, 7.04 14.96, 6.65 14.96 C6.27 14.96, 5.87 14.93, 5.5 14.85 C5.12 14.78, 4.74 14.66, 4.38 14.51 C4.01 14.36, 3.66 14.18, 3.33 13.96 C2.99 13.75, 2.67 13.49, 2.38 13.21 C2.08 12.94, 1.8 12.62, 1.56 12.29 C1.31 11.96, 1.08 11.6, 0.89 11.22 C0.7 10.85, 0.53 10.45, 0.4 10.04 C0.27 9.63, 0.17 9.21, 0.1 8.78 C0.03 8.35, 0 7.92, 0 7.48 C0 7.05, 0.03 6.61, 0.1 6.18 C0.17 5.76, 0.27 5.33, 0.4 4.92 C0.53 4.52, 0.7 4.12, 0.89 3.74 C1.08 3.37, 1.31 3, 1.56 2.67 C1.8 2.34, 2.08 2.03, 2.38 1.75 C2.67 1.47, 2.99 1.22, 3.33 1 C3.66 0.79, 4.01 0.6, 4.38 0.45 C4.74 0.3, 5.12 0.19, 5.5 0.11 C5.87 0.04, 6.27 0, 6.65 0 C7.04 0, 7.43 0.04, 7.81 0.11 C8.18 0.19, 8.56 0.3, 8.93 0.45 C9.29 0.6, 9.64 0.79, 9.98 1 C10.31 1.22, 10.63 1.47, 10.93 1.75 C11.22 2.03, 11.5 2.34, 11.75 2.67 C11.99 3, 12.22 3.37, 12.41 3.74 C12.6 4.12, 12.77 4.52, 12.9 4.92 C13.03 5.33, 13.13 5.76, 13.2 6.18 C13.27 6.61, 13.28 7.27, 13.3 7.48 C13.32 7.7, 13.32 7.27, 13.3 7.48" stroke="#f2f2f2" stroke-width="2" fill="none"></path></g><g stroke-linecap="round" transform="translate(519.7701468940905 204.70345650105395) rotate(0 6.650727650727617 7.482068607068584)"><path d="M13.3 7.48 C13.3 7.92, 13.27 8.35, 13.2 8.78 C13.13 9.21, 13.03 9.63, 12.9 10.04 C12.77 10.45, 12.6 10.85, 12.41 11.22 C12.22 11.6, 11.99 11.96, 11.75 12.29 C11.5 12.62, 11.22 12.94, 10.93 13.21 C10.63 13.49, 10.31 13.75, 9.98 13.96 C9.64 14.18, 9.29 14.36, 8.93 14.51 C8.56 14.66, 8.18 14.78, 7.81 14.85 C7.43 14.93, 7.04 14.96, 6.65 14.96 C6.27 14.96, 5.87 14.93, 5.5 14.85 C5.12 14.78, 4.74 14.66, 4.38 14.51 C4.01 14.36, 3.66 14.18, 3.33 13.96 C2.99 13.75, 2.67 13.49, 2.38 13.21 C2.08 12.94, 1.8 12.62, 1.56 12.29 C1.31 11.96, 1.08 11.6, 0.89 11.22 C0.7 10.85, 0.53 10.45, 0.4 10.04 C0.27 9.63, 0.17 9.21, 0.1 8.78 C0.03 8.35, 0 7.92, 0 7.48 C0 7.05, 0.03 6.61, 0.1 6.18 C0.17 5.76, 0.27 5.33, 0.4 4.92 C0.53 4.52, 0.7 4.12, 0.89 3.74 C1.08 3.37, 1.31 3, 1.56 2.67 C1.8 2.34, 2.08 2.03, 2.38 1.75 C2.67 1.47, 2.99 1.22, 3.33 1 C3.66 0.79, 4.01 0.6, 4.38 0.45 C4.74 0.3, 5.12 0.19, 5.5 0.11 C5.87 0.04, 6.27 0, 6.65 0 C7.04 0, 7.43 0.04, 7.81 0.11 C8.18 0.19, 8.56 0.3, 8.93 0.45 C9.29 0.6, 9.64 0.79, 9.98 1 C10.31 1.22, 10.63 1.47, 10.93 1.75 C11.22 2.03, 11.5 2.34, 11.75 2.67 C11.99 3, 12.22 3.37, 12.41 3.74 C12.6 4.12, 12.77 4.52, 12.9 4.92 C13.03 5.33, 13.13 5.76, 13.2 6.18 C13.27 6.61, 13.28 7.27, 13.3 7.48 C13.32 7.7, 13.32 7.27, 13.3 7.48" stroke="none" stroke-width="0" fill="#f2f2f2"></path><path d="M13.3 7.48 C13.3 7.92, 13.27 8.35, 13.2 8.78 C13.13 9.21, 13.03 9.63, 12.9 10.04 C12.77 10.45, 12.6 10.85, 12.41 11.22 C12.22 11.6, 11.99 11.96, 11.75 12.29 C11.5 12.62, 11.22 12.94, 10.93 13.21 C10.63 13.49, 10.31 13.75, 9.98 13.96 C9.64 14.18, 9.29 14.36, 8.93 14.51 C8.56 14.66, 8.18 14.78, 7.81 14.85 C7.43 14.93, 7.04 14.96, 6.65 14.96 C6.27 14.96, 5.87 14.93, 5.5 14.85 C5.12 14.78, 4.74 14.66, 4.38 14.51 C4.01 14.36, 3.66 14.18, 3.33 13.96 C2.99 13.75, 2.67 13.49, 2.38 13.21 C2.08 12.94, 1.8 12.62, 1.56 12.29 C1.31 11.96, 1.08 11.6, 0.89 11.22 C0.7 10.85, 0.53 10.45, 0.4 10.04 C0.27 9.63, 0.17 9.21, 0.1 8.78 C0.03 8.35, 0 7.92, 0 7.48 C0 7.05, 0.03 6.61, 0.1 6.18 C0.17 5.76, 0.27 5.33, 0.4 4.92 C0.53 4.52, 0.7 4.12, 0.89 3.74 C1.08 3.37, 1.31 3, 1.56 2.67 C1.8 2.34, 2.08 2.03, 2.38 1.75 C2.67 1.47, 2.99 1.22, 3.33 1 C3.66 0.79, 4.01 0.6, 4.38 0.45 C4.74 0.3, 5.12 0.19, 5.5 0.11 C5.87 0.04, 6.27 0, 6.65 0 C7.04 0, 7.43 0.04, 7.81 0.11 C8.18 0.19, 8.56 0.3, 8.93 0.45 C9.29 0.6, 9.64 0.79, 9.98 1 C10.31 1.22, 10.63 1.47, 10.93 1.75 C11.22 2.03, 11.5 2.34, 11.75 2.67 C11.99 3, 12.22 3.37, 12.41 3.74 C12.6 4.12, 12.77 4.52, 12.9 4.92 C13.03 5.33, 13.13 5.76, 13.2 6.18 C13.27 6.61, 13.28 7.27, 13.3 7.48 C13.32 7.7, 13.32 7.27, 13.3 7.48" stroke="#f2f2f2" stroke-width="2" fill="none"></path></g><g stroke-linecap="round" transform="translate(545.3850117589556 140.5215438191414) rotate(0 6.650727650727617 7.482068607068584)"><path d="M13.3 7.48 C13.3 7.92, 13.27 8.35, 13.2 8.78 C13.13 9.21, 13.03 9.63, 12.9 10.04 C12.77 10.45, 12.6 10.85, 12.41 11.22 C12.22 11.6, 11.99 11.96, 11.75 12.29 C11.5 12.62, 11.22 12.94, 10.93 13.21 C10.63 13.49, 10.31 13.75, 9.98 13.96 C9.64 14.18, 9.29 14.36, 8.93 14.51 C8.56 14.66, 8.18 14.78, 7.81 14.85 C7.43 14.93, 7.04 14.96, 6.65 14.96 C6.27 14.96, 5.87 14.93, 5.5 14.85 C5.12 14.78, 4.74 14.66, 4.38 14.51 C4.01 14.36, 3.66 14.18, 3.33 13.96 C2.99 13.75, 2.67 13.49, 2.38 13.21 C2.08 12.94, 1.8 12.62, 1.56 12.29 C1.31 11.96, 1.08 11.6, 0.89 11.22 C0.7 10.85, 0.53 10.45, 0.4 10.04 C0.27 9.63, 0.17 9.21, 0.1 8.78 C0.03 8.35, 0 7.92, 0 7.48 C0 7.05, 0.03 6.61, 0.1 6.18 C0.17 5.76, 0.27 5.33, 0.4 4.92 C0.53 4.52, 0.7 4.12, 0.89 3.74 C1.08 3.37, 1.31 3, 1.56 2.67 C1.8 2.34, 2.08 2.03, 2.38 1.75 C2.67 1.47, 2.99 1.22, 3.33 1 C3.66 0.79, 4.01 0.6, 4.38 0.45 C4.74 0.3, 5.12 0.19, 5.5 0.11 C5.87 0.04, 6.27 0, 6.65 0 C7.04 0, 7.43 0.04, 7.81 0.11 C8.18 0.19, 8.56 0.3, 8.93 0.45 C9.29 0.6, 9.64 0.79, 9.98 1 C10.31 1.22, 10.63 1.47, 10.93 1.75 C11.22 2.03, 11.5 2.34, 11.75 2.67 C11.99 3, 12.22 3.37, 12.41 3.74 C12.6 4.12, 12.77 4.52, 12.9 4.92 C13.03 5.33, 13.13 5.76, 13.2 6.18 C13.27 6.61, 13.28 7.27, 13.3 7.48 C13.32 7.7, 13.32 7.27, 13.3 7.48" stroke="none" stroke-width="0" fill="#f2f2f2"></path><path d="M13.3 7.48 C13.3 7.92, 13.27 8.35, 13.2 8.78 C13.13 9.21, 13.03 9.63, 12.9 10.04 C12.77 10.45, 12.6 10.85, 12.41 11.22 C12.22 11.6, 11.99 11.96, 11.75 12.29 C11.5 12.62, 11.22 12.94, 10.93 13.21 C10.63 13.49, 10.31 13.75, 9.98 13.96 C9.64 14.18, 9.29 14.36, 8.93 14.51 C8.56 14.66, 8.18 14.78, 7.81 14.85 C7.43 14.93, 7.04 14.96, 6.65 14.96 C6.27 14.96, 5.87 14.93, 5.5 14.85 C5.12 14.78, 4.74 14.66, 4.38 14.51 C4.01 14.36, 3.66 14.18, 3.33 13.96 C2.99 13.75, 2.67 13.49, 2.38 13.21 C2.08 12.94, 1.8 12.62, 1.56 12.29 C1.31 11.96, 1.08 11.6, 0.89 11.22 C0.7 10.85, 0.53 10.45, 0.4 10.04 C0.27 9.63, 0.17 9.21, 0.1 8.78 C0.03 8.35, 0 7.92, 0 7.48 C0 7.05, 0.03 6.61, 0.1 6.18 C0.17 5.76, 0.27 5.33, 0.4 4.92 C0.53 4.52, 0.7 4.12, 0.89 3.74 C1.08 3.37, 1.31 3, 1.56 2.67 C1.8 2.34, 2.08 2.03, 2.38 1.75 C2.67 1.47, 2.99 1.22, 3.33 1 C3.66 0.79, 4.01 0.6, 4.38 0.45 C4.74 0.3, 5.12 0.19, 5.5 0.11 C5.87 0.04, 6.27 0, 6.65 0 C7.04 0, 7.43 0.04, 7.81 0.11 C8.18 0.19, 8.56 0.3, 8.93 0.45 C9.29 0.6, 9.64 0.79, 9.98 1 C10.31 1.22, 10.63 1.47, 10.93 1.75 C11.22 2.03, 11.5 2.34, 11.75 2.67 C11.99 3, 12.22 3.37, 12.41 3.74 C12.6 4.12, 12.77 4.52, 12.9 4.92 C13.03 5.33, 13.13 5.76, 13.2 6.18 C13.27 6.61, 13.28 7.27, 13.3 7.48 C13.32 7.7, 13.32 7.27, 13.3 7.48" stroke="#f2f2f2" stroke-width="2" fill="none"></path></g><g stroke-linecap="round" transform="translate(583.6266957506397 128.882770430368) rotate(0 6.650727650727617 7.482068607068584)"><path d="M13.3 7.48 C13.3 7.92, 13.27 8.35, 13.2 8.78 C13.13 9.21, 13.03 9.63, 12.9 10.04 C12.77 10.45, 12.6 10.85, 12.41 11.22 C12.22 11.6, 11.99 11.96, 11.75 12.29 C11.5 12.62, 11.22 12.94, 10.93 13.21 C10.63 13.49, 10.31 13.75, 9.98 13.96 C9.64 14.18, 9.29 14.36, 8.93 14.51 C8.56 14.66, 8.18 14.78, 7.81 14.85 C7.43 14.93, 7.04 14.96, 6.65 14.96 C6.27 14.96, 5.87 14.93, 5.5 14.85 C5.12 14.78, 4.74 14.66, 4.38 14.51 C4.01 14.36, 3.66 14.18, 3.33 13.96 C2.99 13.75, 2.67 13.49, 2.38 13.21 C2.08 12.94, 1.8 12.62, 1.56 12.29 C1.31 11.96, 1.08 11.6, 0.89 11.22 C0.7 10.85, 0.53 10.45, 0.4 10.04 C0.27 9.63, 0.17 9.21, 0.1 8.78 C0.03 8.35, 0 7.92, 0 7.48 C0 7.05, 0.03 6.61, 0.1 6.18 C0.17 5.76, 0.27 5.33, 0.4 4.92 C0.53 4.52, 0.7 4.12, 0.89 3.74 C1.08 3.37, 1.31 3, 1.56 2.67 C1.8 2.34, 2.08 2.03, 2.38 1.75 C2.67 1.47, 2.99 1.22, 3.33 1 C3.66 0.79, 4.01 0.6, 4.38 0.45 C4.74 0.3, 5.12 0.19, 5.5 0.11 C5.87 0.04, 6.27 0, 6.65 0 C7.04 0, 7.43 0.04, 7.81 0.11 C8.18 0.19, 8.56 0.3, 8.93 0.45 C9.29 0.6, 9.64 0.79, 9.98 1 C10.31 1.22, 10.63 1.47, 10.93 1.75 C11.22 2.03, 11.5 2.34, 11.75 2.67 C11.99 3, 12.22 3.37, 12.41 3.74 C12.6 4.12, 12.77 4.52, 12.9 4.92 C13.03 5.33, 13.13 5.76, 13.2 6.18 C13.27 6.61, 13.28 7.27, 13.3 7.48 C13.32 7.7, 13.32 7.27, 13.3 7.48" stroke="none" stroke-width="0" fill="#f2f2f2"></path><path d="M13.3 7.48 C13.3 7.92, 13.27 8.35, 13.2 8.78 C13.13 9.21, 13.03 9.63, 12.9 10.04 C12.77 10.45, 12.6 10.85, 12.41 11.22 C12.22 11.6, 11.99 11.96, 11.75 12.29 C11.5 12.62, 11.22 12.94, 10.93 13.21 C10.63 13.49, 10.31 13.75, 9.98 13.96 C9.64 14.18, 9.29 14.36, 8.93 14.51 C8.56 14.66, 8.18 14.78, 7.81 14.85 C7.43 14.93, 7.04 14.96, 6.65 14.96 C6.27 14.96, 5.87 14.93, 5.5 14.85 C5.12 14.78, 4.74 14.66, 4.38 14.51 C4.01 14.36, 3.66 14.18, 3.33 13.96 C2.99 13.75, 2.67 13.49, 2.38 13.21 C2.08 12.94, 1.8 12.62, 1.56 12.29 C1.31 11.96, 1.08 11.6, 0.89 11.22 C0.7 10.85, 0.53 10.45, 0.4 10.04 C0.27 9.63, 0.17 9.21, 0.1 8.78 C0.03 8.35, 0 7.92, 0 7.48 C0 7.05, 0.03 6.61, 0.1 6.18 C0.17 5.76, 0.27 5.33, 0.4 4.92 C0.53 4.52, 0.7 4.12, 0.89 3.74 C1.08 3.37, 1.31 3, 1.56 2.67 C1.8 2.34, 2.08 2.03, 2.38 1.75 C2.67 1.47, 2.99 1.22, 3.33 1 C3.66 0.79, 4.01 0.6, 4.38 0.45 C4.74 0.3, 5.12 0.19, 5.5 0.11 C5.87 0.04, 6.27 0, 6.65 0 C7.04 0, 7.43 0.04, 7.81 0.11 C8.18 0.19, 8.56 0.3, 8.93 0.45 C9.29 0.6, 9.64 0.79, 9.98 1 C10.31 1.22, 10.63 1.47, 10.93 1.75 C11.22 2.03, 11.5 2.34, 11.75 2.67 C11.99 3, 12.22 3.37, 12.41 3.74 C12.6 4.12, 12.77 4.52, 12.9 4.92 C13.03 5.33, 13.13 5.76, 13.2 6.18 C13.27 6.61, 13.28 7.27, 13.3 7.48 C13.32 7.7, 13.32 7.27, 13.3 7.48" stroke="#f2f2f2" stroke-width="2" fill="none"></path></g><g stroke-linecap="round"><g transform="translate(402.39436726831093 189.57066024325758) rotate(0 109.7370062370062 -12.470114345114325)"><path d="M0 0 C36.58 -4.16, 182.9 -20.78, 219.47 -24.94 M0 0 C36.58 -4.16, 182.9 -20.78, 219.47 -24.94" stroke="#f2f2f2" stroke-width="2" fill="none"></path></g></g><mask></mask><g stroke-linecap="round"><g transform="translate(400.7316853556291 179.59456876716598) rotate(0 108.90566528066529 -12.470114345114325)"><path d="M0 0 C36.3 -4.16, 181.51 -20.78, 217.81 -24.94" stroke="#f2f2f2" stroke-width="2.5" fill="none" stroke-dasharray="8 10"></path></g></g><mask></mask><g stroke-linecap="round"><g transform="translate(84.58215797473758 521.5289814733014) rotate(0 -0.17486569585872758 -105.59397740285624)"><path d="M0 0 C-0.06 -35.2, -0.29 -175.99, -0.35 -211.19 M0 0 C-0.06 -35.2, -0.29 -175.99, -0.35 -211.19" stroke="#f2f2f2" stroke-width="2" fill="none"></path></g><g transform="translate(84.58215797473758 521.5289814733014) rotate(0 -0.17486569585872758 -105.59397740285624)"><path d="M8.24 -187.71 C5.6 -194.91, 2.97 -202.12, -0.35 -211.19 M8.24 -187.71 C5.18 -196.07, 2.12 -204.44, -0.35 -211.19" stroke="#f2f2f2" stroke-width="2" fill="none"></path></g><g transform="translate(84.58215797473758 521.5289814733014) rotate(0 -0.17486569585872758 -105.59397740285624)"><path d="M-8.86 -187.68 C-6.25 -194.89, -3.64 -202.11, -0.35 -211.19 M-8.86 -187.68 C-5.83 -196.06, -2.8 -204.43, -0.35 -211.19" stroke="#f2f2f2" stroke-width="2" fill="none"></path></g></g><mask></mask><g stroke-linecap="round"><g transform="translate(75.97243442776221 498.5054592925256) rotate(0 128.43966685030847 1.8683294968809037)"><path d="M0 0 C42.81 0.62, 214.07 3.11, 256.88 3.74 M0 0 C42.81 0.62, 214.07 3.11, 256.88 3.74" stroke="#f2f2f2" stroke-width="2" fill="none"></path></g><g transform="translate(75.97243442776221 498.5054592925256) rotate(0 128.43966685030847 1.8683294968809037)"><path d="M233.27 11.94 C239.98 9.61, 246.69 7.28, 256.88 3.74 M233.27 11.94 C242.46 8.75, 251.65 5.56, 256.88 3.74" stroke="#f2f2f2" stroke-width="2" fill="none"></path></g><g transform="translate(75.97243442776221 498.5054592925256) rotate(0 128.43966685030847 1.8683294968809037)"><path d="M233.51 -5.15 C240.16 -2.63, 246.8 -0.1, 256.88 3.74 M233.51 -5.15 C242.61 -1.69, 251.7 1.77, 256.88 3.74" stroke="#f2f2f2" stroke-width="2" fill="none"></path></g></g><mask></mask><g stroke-linecap="round"><g transform="translate(104.23802694335484 346.9473806417006) rotate(0 94.77286902286903 46.55509355509355)"><path d="M0 0 C31.59 15.52, 157.95 77.59, 189.55 93.11 M0 0 C31.59 15.52, 157.95 77.59, 189.55 93.11" stroke="#f2f2f2" stroke-width="2" fill="none"></path></g></g><mask></mask><g stroke-linecap="round" transform="translate(185.7094406647684 410.9606342799545) rotate(0 6.650727650727674 7.482068607068584)"><path d="M13.3 7.48 C13.3 7.92, 13.27 8.35, 13.2 8.78 C13.13 9.21, 13.03 9.63, 12.9 10.04 C12.77 10.45, 12.6 10.85, 12.41 11.22 C12.22 11.6, 11.99 11.96, 11.75 12.29 C11.5 12.62, 11.22 12.94, 10.93 13.21 C10.63 13.49, 10.31 13.75, 9.98 13.96 C9.64 14.18, 9.29 14.36, 8.93 14.51 C8.56 14.66, 8.18 14.78, 7.81 14.85 C7.43 14.93, 7.04 14.96, 6.65 14.96 C6.27 14.96, 5.87 14.93, 5.5 14.85 C5.12 14.78, 4.74 14.66, 4.38 14.51 C4.01 14.36, 3.66 14.18, 3.33 13.96 C2.99 13.75, 2.67 13.49, 2.38 13.21 C2.08 12.94, 1.8 12.62, 1.56 12.29 C1.31 11.96, 1.08 11.6, 0.89 11.22 C0.7 10.85, 0.53 10.45, 0.4 10.04 C0.27 9.63, 0.17 9.21, 0.1 8.78 C0.03 8.35, 0 7.92, 0 7.48 C0 7.05, 0.03 6.61, 0.1 6.18 C0.17 5.76, 0.27 5.33, 0.4 4.92 C0.53 4.52, 0.7 4.12, 0.89 3.74 C1.08 3.37, 1.31 3, 1.56 2.67 C1.8 2.34, 2.08 2.03, 2.38 1.75 C2.67 1.47, 2.99 1.22, 3.33 1 C3.66 0.79, 4.01 0.6, 4.38 0.45 C4.74 0.3, 5.12 0.19, 5.5 0.11 C5.87 0.04, 6.27 0, 6.65 0 C7.04 0, 7.43 0.04, 7.81 0.11 C8.18 0.19, 8.56 0.3, 8.93 0.45 C9.29 0.6, 9.64 0.79, 9.98 1 C10.31 1.22, 10.63 1.47, 10.93 1.75 C11.22 2.03, 11.5 2.34, 11.75 2.67 C11.99 3, 12.22 3.37, 12.41 3.74 C12.6 4.12, 12.77 4.52, 12.9 4.92 C13.03 5.33, 13.13 5.76, 13.2 6.18 C13.27 6.61, 13.28 7.27, 13.3 7.48 C13.32 7.7, 13.32 7.27, 13.3 7.48" stroke="none" stroke-width="0" fill="#f2f2f2"></path><path d="M13.3 7.48 C13.3 7.92, 13.27 8.35, 13.2 8.78 C13.13 9.21, 13.03 9.63, 12.9 10.04 C12.77 10.45, 12.6 10.85, 12.41 11.22 C12.22 11.6, 11.99 11.96, 11.75 12.29 C11.5 12.62, 11.22 12.94, 10.93 13.21 C10.63 13.49, 10.31 13.75, 9.98 13.96 C9.64 14.18, 9.29 14.36, 8.93 14.51 C8.56 14.66, 8.18 14.78, 7.81 14.85 C7.43 14.93, 7.04 14.96, 6.65 14.96 C6.27 14.96, 5.87 14.93, 5.5 14.85 C5.12 14.78, 4.74 14.66, 4.38 14.51 C4.01 14.36, 3.66 14.18, 3.33 13.96 C2.99 13.75, 2.67 13.49, 2.38 13.21 C2.08 12.94, 1.8 12.62, 1.56 12.29 C1.31 11.96, 1.08 11.6, 0.89 11.22 C0.7 10.85, 0.53 10.45, 0.4 10.04 C0.27 9.63, 0.17 9.21, 0.1 8.78 C0.03 8.35, 0 7.92, 0 7.48 C0 7.05, 0.03 6.61, 0.1 6.18 C0.17 5.76, 0.27 5.33, 0.4 4.92 C0.53 4.52, 0.7 4.12, 0.89 3.74 C1.08 3.37, 1.31 3, 1.56 2.67 C1.8 2.34, 2.08 2.03, 2.38 1.75 C2.67 1.47, 2.99 1.22, 3.33 1 C3.66 0.79, 4.01 0.6, 4.38 0.45 C4.74 0.3, 5.12 0.19, 5.5 0.11 C5.87 0.04, 6.27 0, 6.65 0 C7.04 0, 7.43 0.04, 7.81 0.11 C8.18 0.19, 8.56 0.3, 8.93 0.45 C9.29 0.6, 9.64 0.79, 9.98 1 C10.31 1.22, 10.63 1.47, 10.93 1.75 C11.22 2.03, 11.5 2.34, 11.75 2.67 C11.99 3, 12.22 3.37, 12.41 3.74 C12.6 4.12, 12.77 4.52, 12.9 4.92 C13.03 5.33, 13.13 5.76, 13.2 6.18 C13.27 6.61, 13.28 7.27, 13.3 7.48 C13.32 7.7, 13.32 7.27, 13.3 7.48" stroke="#f2f2f2" stroke-width="2" fill="none"></path></g><g stroke-linecap="round" transform="translate(117.53948224481007 337.8026301219506) rotate(0 6.650727650727674 7.482068607068584)"><path d="M13.3 7.48 C13.3 7.92, 13.27 8.35, 13.2 8.78 C13.13 9.21, 13.03 9.63, 12.9 10.04 C12.77 10.45, 12.6 10.85, 12.41 11.22 C12.22 11.6, 11.99 11.96, 11.75 12.29 C11.5 12.62, 11.22 12.94, 10.93 13.21 C10.63 13.49, 10.31 13.75, 9.98 13.96 C9.64 14.18, 9.29 14.36, 8.93 14.51 C8.56 14.66, 8.18 14.78, 7.81 14.85 C7.43 14.93, 7.04 14.96, 6.65 14.96 C6.27 14.96, 5.87 14.93, 5.5 14.85 C5.12 14.78, 4.74 14.66, 4.38 14.51 C4.01 14.36, 3.66 14.18, 3.33 13.96 C2.99 13.75, 2.67 13.49, 2.38 13.21 C2.08 12.94, 1.8 12.62, 1.56 12.29 C1.31 11.96, 1.08 11.6, 0.89 11.22 C0.7 10.85, 0.53 10.45, 0.4 10.04 C0.27 9.63, 0.17 9.21, 0.1 8.78 C0.03 8.35, 0 7.92, 0 7.48 C0 7.05, 0.03 6.61, 0.1 6.18 C0.17 5.76, 0.27 5.33, 0.4 4.92 C0.53 4.52, 0.7 4.12, 0.89 3.74 C1.08 3.37, 1.31 3, 1.56 2.67 C1.8 2.34, 2.08 2.03, 2.38 1.75 C2.67 1.47, 2.99 1.22, 3.33 1 C3.66 0.79, 4.01 0.6, 4.38 0.45 C4.74 0.3, 5.12 0.19, 5.5 0.11 C5.87 0.04, 6.27 0, 6.65 0 C7.04 0, 7.43 0.04, 7.81 0.11 C8.18 0.19, 8.56 0.3, 8.93 0.45 C9.29 0.6, 9.64 0.79, 9.98 1 C10.31 1.22, 10.63 1.47, 10.93 1.75 C11.22 2.03, 11.5 2.34, 11.75 2.67 C11.99 3, 12.22 3.37, 12.41 3.74 C12.6 4.12, 12.77 4.52, 12.9 4.92 C13.03 5.33, 13.13 5.76, 13.2 6.18 C13.27 6.61, 13.28 7.27, 13.3 7.48 C13.32 7.7, 13.32 7.27, 13.3 7.48" stroke="none" stroke-width="0" fill="#f2f2f2"></path><path d="M13.3 7.48 C13.3 7.92, 13.27 8.35, 13.2 8.78 C13.13 9.21, 13.03 9.63, 12.9 10.04 C12.77 10.45, 12.6 10.85, 12.41 11.22 C12.22 11.6, 11.99 11.96, 11.75 12.29 C11.5 12.62, 11.22 12.94, 10.93 13.21 C10.63 13.49, 10.31 13.75, 9.98 13.96 C9.64 14.18, 9.29 14.36, 8.93 14.51 C8.56 14.66, 8.18 14.78, 7.81 14.85 C7.43 14.93, 7.04 14.96, 6.65 14.96 C6.27 14.96, 5.87 14.93, 5.5 14.85 C5.12 14.78, 4.74 14.66, 4.38 14.51 C4.01 14.36, 3.66 14.18, 3.33 13.96 C2.99 13.75, 2.67 13.49, 2.38 13.21 C2.08 12.94, 1.8 12.62, 1.56 12.29 C1.31 11.96, 1.08 11.6, 0.89 11.22 C0.7 10.85, 0.53 10.45, 0.4 10.04 C0.27 9.63, 0.17 9.21, 0.1 8.78 C0.03 8.35, 0 7.92, 0 7.48 C0 7.05, 0.03 6.61, 0.1 6.18 C0.17 5.76, 0.27 5.33, 0.4 4.92 C0.53 4.52, 0.7 4.12, 0.89 3.74 C1.08 3.37, 1.31 3, 1.56 2.67 C1.8 2.34, 2.08 2.03, 2.38 1.75 C2.67 1.47, 2.99 1.22, 3.33 1 C3.66 0.79, 4.01 0.6, 4.38 0.45 C4.74 0.3, 5.12 0.19, 5.5 0.11 C5.87 0.04, 6.27 0, 6.65 0 C7.04 0, 7.43 0.04, 7.81 0.11 C8.18 0.19, 8.56 0.3, 8.93 0.45 C9.29 0.6, 9.64 0.79, 9.98 1 C10.31 1.22, 10.63 1.47, 10.93 1.75 C11.22 2.03, 11.5 2.34, 11.75 2.67 C11.99 3, 12.22 3.37, 12.41 3.74 C12.6 4.12, 12.77 4.52, 12.9 4.92 C13.03 5.33, 13.13 5.76, 13.2 6.18 C13.27 6.61, 13.28 7.27, 13.3 7.48 C13.32 7.7, 13.32 7.27, 13.3 7.48" stroke="#f2f2f2" stroke-width="2" fill="none"></path></g><g stroke-linecap="round" transform="translate(282.1449916003196 409.29795236727267) rotate(0 6.650727650727674 7.482068607068584)"><path d="M13.3 7.48 C13.3 7.92, 13.27 8.35, 13.2 8.78 C13.13 9.21, 13.03 9.63, 12.9 10.04 C12.77 10.45, 12.6 10.85, 12.41 11.22 C12.22 11.6, 11.99 11.96, 11.75 12.29 C11.5 12.62, 11.22 12.94, 10.93 13.21 C10.63 13.49, 10.31 13.75, 9.98 13.96 C9.64 14.18, 9.29 14.36, 8.93 14.51 C8.56 14.66, 8.18 14.78, 7.81 14.85 C7.43 14.93, 7.04 14.96, 6.65 14.96 C6.27 14.96, 5.87 14.93, 5.5 14.85 C5.12 14.78, 4.74 14.66, 4.38 14.51 C4.01 14.36, 3.66 14.18, 3.33 13.96 C2.99 13.75, 2.67 13.49, 2.38 13.21 C2.08 12.94, 1.8 12.62, 1.56 12.29 C1.31 11.96, 1.08 11.6, 0.89 11.22 C0.7 10.85, 0.53 10.45, 0.4 10.04 C0.27 9.63, 0.17 9.21, 0.1 8.78 C0.03 8.35, 0 7.92, 0 7.48 C0 7.05, 0.03 6.61, 0.1 6.18 C0.17 5.76, 0.27 5.33, 0.4 4.92 C0.53 4.52, 0.7 4.12, 0.89 3.74 C1.08 3.37, 1.31 3, 1.56 2.67 C1.8 2.34, 2.08 2.03, 2.38 1.75 C2.67 1.47, 2.99 1.22, 3.33 1 C3.66 0.79, 4.01 0.6, 4.38 0.45 C4.74 0.3, 5.12 0.19, 5.5 0.11 C5.87 0.04, 6.27 0, 6.65 0 C7.04 0, 7.43 0.04, 7.81 0.11 C8.18 0.19, 8.56 0.3, 8.93 0.45 C9.29 0.6, 9.64 0.79, 9.98 1 C10.31 1.22, 10.63 1.47, 10.93 1.75 C11.22 2.03, 11.5 2.34, 11.75 2.67 C11.99 3, 12.22 3.37, 12.41 3.74 C12.6 4.12, 12.77 4.52, 12.9 4.92 C13.03 5.33, 13.13 5.76, 13.2 6.18 C13.27 6.61, 13.28 7.27, 13.3 7.48 C13.32 7.7, 13.32 7.27, 13.3 7.48" stroke="none" stroke-width="0" fill="#f2f2f2"></path><path d="M13.3 7.48 C13.3 7.92, 13.27 8.35, 13.2 8.78 C13.13 9.21, 13.03 9.63, 12.9 10.04 C12.77 10.45, 12.6 10.85, 12.41 11.22 C12.22 11.6, 11.99 11.96, 11.75 12.29 C11.5 12.62, 11.22 12.94, 10.93 13.21 C10.63 13.49, 10.31 13.75, 9.98 13.96 C9.64 14.18, 9.29 14.36, 8.93 14.51 C8.56 14.66, 8.18 14.78, 7.81 14.85 C7.43 14.93, 7.04 14.96, 6.65 14.96 C6.27 14.96, 5.87 14.93, 5.5 14.85 C5.12 14.78, 4.74 14.66, 4.38 14.51 C4.01 14.36, 3.66 14.18, 3.33 13.96 C2.99 13.75, 2.67 13.49, 2.38 13.21 C2.08 12.94, 1.8 12.62, 1.56 12.29 C1.31 11.96, 1.08 11.6, 0.89 11.22 C0.7 10.85, 0.53 10.45, 0.4 10.04 C0.27 9.63, 0.17 9.21, 0.1 8.78 C0.03 8.35, 0 7.92, 0 7.48 C0 7.05, 0.03 6.61, 0.1 6.18 C0.17 5.76, 0.27 5.33, 0.4 4.92 C0.53 4.52, 0.7 4.12, 0.89 3.74 C1.08 3.37, 1.31 3, 1.56 2.67 C1.8 2.34, 2.08 2.03, 2.38 1.75 C2.67 1.47, 2.99 1.22, 3.33 1 C3.66 0.79, 4.01 0.6, 4.38 0.45 C4.74 0.3, 5.12 0.19, 5.5 0.11 C5.87 0.04, 6.27 0, 6.65 0 C7.04 0, 7.43 0.04, 7.81 0.11 C8.18 0.19, 8.56 0.3, 8.93 0.45 C9.29 0.6, 9.64 0.79, 9.98 1 C10.31 1.22, 10.63 1.47, 10.93 1.75 C11.22 2.03, 11.5 2.34, 11.75 2.67 C11.99 3, 12.22 3.37, 12.41 3.74 C12.6 4.12, 12.77 4.52, 12.9 4.92 C13.03 5.33, 13.13 5.76, 13.2 6.18 C13.27 6.61, 13.28 7.27, 13.3 7.48 C13.32 7.7, 13.32 7.27, 13.3 7.48" stroke="#f2f2f2" stroke-width="2" fill="none"></path></g><g stroke-linecap="round"><g transform="translate(94.26193546726336 395.1651561094761) rotate(0 101.42359667359665 -9.144750519750517)"><path d="M0 0 C33.81 -3.05, 169.04 -15.24, 202.85 -18.29" stroke="#f2f2f2" stroke-width="2.5" fill="none" stroke-dasharray="8 10"></path></g></g><mask></mask><g stroke-linecap="round"><g transform="translate(397.0498569455616 511.472739700089) rotate(0 0.18753853677515053 -101.94993062816172)"><path d="M0 0 C0.06 -33.98, 0.31 -169.92, 0.38 -203.9 M0 0 C0.06 -33.98, 0.31 -169.92, 0.38 -203.9" stroke="#f2f2f2" stroke-width="2" fill="none"></path></g><g transform="translate(397.0498569455616 511.472739700089) rotate(0 0.18753853677515053 -101.94993062816172)"><path d="M8.88 -180.39 C6.85 -186.01, 4.82 -191.63, 0.38 -203.9 M8.88 -180.39 C6.15 -187.94, 3.42 -195.49, 0.38 -203.9" stroke="#f2f2f2" stroke-width="2" fill="none"></path></g><g transform="translate(397.0498569455616 511.472739700089) rotate(0 0.18753853677515053 -101.94993062816172)"><path d="M-8.22 -180.42 C-6.17 -186.03, -4.11 -191.64, 0.38 -203.9 M-8.22 -180.42 C-5.46 -187.96, -2.7 -195.5, 0.38 -203.9" stroke="#f2f2f2" stroke-width="2" fill="none"></path></g></g><mask></mask><g stroke-linecap="round"><g transform="translate(388.08159168329837 501.63807684295585) rotate(0 128.77054999288305 -0.4071123314293459)"><path d="M0 0 C42.92 -0.14, 214.62 -0.68, 257.54 -0.81 M0 0 C42.92 -0.14, 214.62 -0.68, 257.54 -0.81" stroke="#f2f2f2" stroke-width="2" fill="none"></path></g><g transform="translate(388.08159168329837 501.63807684295585) rotate(0 128.77054999288305 -0.4071123314293459)"><path d="M234.08 7.81 C239.26 5.91, 244.44 4, 257.54 -0.81 M234.08 7.81 C242.03 4.89, 249.99 1.96, 257.54 -0.81" stroke="#f2f2f2" stroke-width="2" fill="none"></path></g><g transform="translate(388.08159168329837 501.63807684295585) rotate(0 128.77054999288305 -0.4071123314293459)"><path d="M234.02 -9.29 C239.22 -7.42, 244.41 -5.55, 257.54 -0.81 M234.02 -9.29 C242 -6.42, 249.98 -3.54, 257.54 -0.81" stroke="#f2f2f2" stroke-width="2" fill="none"></path></g></g><mask></mask><g stroke-linecap="round"><g transform="translate(413.40595410690423 458.5410868934361) rotate(0 100.5 -55.5)"><path d="M0 0 C33.5 -18.5, 167.5 -92.5, 201 -111 M0 0 C33.5 -18.5, 167.5 -92.5, 201 -111" stroke="#f2f2f2" stroke-width="2" fill="none"></path></g></g><mask></mask><g stroke-linecap="round" transform="translate(451.98611202735503 383.35625538051903) rotate(0 4 4.5)"><path d="M8 4.5 C8 4.76, 7.98 5.02, 7.94 5.28 C7.9 5.54, 7.84 5.79, 7.76 6.04 C7.68 6.28, 7.58 6.52, 7.46 6.75 C7.35 6.98, 7.21 7.19, 7.06 7.39 C6.92 7.59, 6.75 7.78, 6.57 7.95 C6.39 8.11, 6.2 8.27, 6 8.4 C5.8 8.53, 5.59 8.64, 5.37 8.73 C5.15 8.82, 4.92 8.89, 4.69 8.93 C4.47 8.98, 4.23 9, 4 9 C3.77 9, 3.53 8.98, 3.31 8.93 C3.08 8.89, 2.85 8.82, 2.63 8.73 C2.41 8.64, 2.2 8.53, 2 8.4 C1.8 8.27, 1.61 8.11, 1.43 7.95 C1.25 7.78, 1.08 7.59, 0.94 7.39 C0.79 7.19, 0.65 6.98, 0.54 6.75 C0.42 6.52, 0.32 6.28, 0.24 6.04 C0.16 5.79, 0.1 5.54, 0.06 5.28 C0.02 5.02, 0 4.76, 0 4.5 C0 4.24, 0.02 3.98, 0.06 3.72 C0.1 3.46, 0.16 3.21, 0.24 2.96 C0.32 2.72, 0.42 2.48, 0.54 2.25 C0.65 2.02, 0.79 1.81, 0.94 1.61 C1.08 1.41, 1.25 1.22, 1.43 1.05 C1.61 0.89, 1.8 0.73, 2 0.6 C2.2 0.47, 2.41 0.36, 2.63 0.27 C2.85 0.18, 3.08 0.11, 3.31 0.07 C3.53 0.02, 3.77 0, 4 0 C4.23 0, 4.47 0.02, 4.69 0.07 C4.92 0.11, 5.15 0.18, 5.37 0.27 C5.59 0.36, 5.8 0.47, 6 0.6 C6.2 0.73, 6.39 0.89, 6.57 1.05 C6.75 1.22, 6.92 1.41, 7.06 1.61 C7.21 1.81, 7.35 2.02, 7.46 2.25 C7.58 2.48, 7.68 2.72, 7.76 2.96 C7.84 3.21, 7.9 3.46, 7.94 3.72 C7.98 3.98, 7.99 4.37, 8 4.5 C8.01 4.63, 8.01 4.37, 8 4.5" stroke="none" stroke-width="0" fill="#f2f2f2"></path><path d="M8 4.5 C8 4.76, 7.98 5.02, 7.94 5.28 C7.9 5.54, 7.84 5.79, 7.76 6.04 C7.68 6.28, 7.58 6.52, 7.46 6.75 C7.35 6.98, 7.21 7.19, 7.06 7.39 C6.92 7.59, 6.75 7.78, 6.57 7.95 C6.39 8.11, 6.2 8.27, 6 8.4 C5.8 8.53, 5.59 8.64, 5.37 8.73 C5.15 8.82, 4.92 8.89, 4.69 8.93 C4.47 8.98, 4.23 9, 4 9 C3.77 9, 3.53 8.98, 3.31 8.93 C3.08 8.89, 2.85 8.82, 2.63 8.73 C2.41 8.64, 2.2 8.53, 2 8.4 C1.8 8.27, 1.61 8.11, 1.43 7.95 C1.25 7.78, 1.08 7.59, 0.94 7.39 C0.79 7.19, 0.65 6.98, 0.54 6.75 C0.42 6.52, 0.32 6.28, 0.24 6.04 C0.16 5.79, 0.1 5.54, 0.06 5.28 C0.02 5.02, 0 4.76, 0 4.5 C0 4.24, 0.02 3.98, 0.06 3.72 C0.1 3.46, 0.16 3.21, 0.24 2.96 C0.32 2.72, 0.42 2.48, 0.54 2.25 C0.65 2.02, 0.79 1.81, 0.94 1.61 C1.08 1.41, 1.25 1.22, 1.43 1.05 C1.61 0.89, 1.8 0.73, 2 0.6 C2.2 0.47, 2.41 0.36, 2.63 0.27 C2.85 0.18, 3.08 0.11, 3.31 0.07 C3.53 0.02, 3.77 0, 4 0 C4.23 0, 4.47 0.02, 4.69 0.07 C4.92 0.11, 5.15 0.18, 5.37 0.27 C5.59 0.36, 5.8 0.47, 6 0.6 C6.2 0.73, 6.39 0.89, 6.57 1.05 C6.75 1.22, 6.92 1.41, 7.06 1.61 C7.21 1.81, 7.35 2.02, 7.46 2.25 C7.58 2.48, 7.68 2.72, 7.76 2.96 C7.84 3.21, 7.9 3.46, 7.94 3.72 C7.98 3.98, 7.99 4.37, 8 4.5 C8.01 4.63, 8.01 4.37, 8 4.5" stroke="#f2f2f2" stroke-width="2" fill="none"></path></g><g stroke-linecap="round" transform="translate(437.9130022219157 441.05600558282) rotate(0 4 4.5)"><path d="M8 4.5 C8 4.76, 7.98 5.02, 7.94 5.28 C7.9 5.54, 7.84 5.79, 7.76 6.04 C7.68 6.28, 7.58 6.52, 7.46 6.75 C7.35 6.98, 7.21 7.19, 7.06 7.39 C6.92 7.59, 6.75 7.78, 6.57 7.95 C6.39 8.11, 6.2 8.27, 6 8.4 C5.8 8.53, 5.59 8.64, 5.37 8.73 C5.15 8.82, 4.92 8.89, 4.69 8.93 C4.47 8.98, 4.23 9, 4 9 C3.77 9, 3.53 8.98, 3.31 8.93 C3.08 8.89, 2.85 8.82, 2.63 8.73 C2.41 8.64, 2.2 8.53, 2 8.4 C1.8 8.27, 1.61 8.11, 1.43 7.95 C1.25 7.78, 1.08 7.59, 0.94 7.39 C0.79 7.19, 0.65 6.98, 0.54 6.75 C0.42 6.52, 0.32 6.28, 0.24 6.04 C0.16 5.79, 0.1 5.54, 0.06 5.28 C0.02 5.02, 0 4.76, 0 4.5 C0 4.24, 0.02 3.98, 0.06 3.72 C0.1 3.46, 0.16 3.21, 0.24 2.96 C0.32 2.72, 0.42 2.48, 0.54 2.25 C0.65 2.02, 0.79 1.81, 0.94 1.61 C1.08 1.41, 1.25 1.22, 1.43 1.05 C1.61 0.89, 1.8 0.73, 2 0.6 C2.2 0.47, 2.41 0.36, 2.63 0.27 C2.85 0.18, 3.08 0.11, 3.31 0.07 C3.53 0.02, 3.77 0, 4 0 C4.23 0, 4.47 0.02, 4.69 0.07 C4.92 0.11, 5.15 0.18, 5.37 0.27 C5.59 0.36, 5.8 0.47, 6 0.6 C6.2 0.73, 6.39 0.89, 6.57 1.05 C6.75 1.22, 6.92 1.41, 7.06 1.61 C7.21 1.81, 7.35 2.02, 7.46 2.25 C7.58 2.48, 7.68 2.72, 7.76 2.96 C7.84 3.21, 7.9 3.46, 7.94 3.72 C7.98 3.98, 7.99 4.37, 8 4.5 C8.01 4.63, 8.01 4.37, 8 4.5" stroke="none" stroke-width="0" fill="#f2f2f2"></path><path d="M8 4.5 C8 4.76, 7.98 5.02, 7.94 5.28 C7.9 5.54, 7.84 5.79, 7.76 6.04 C7.68 6.28, 7.58 6.52, 7.46 6.75 C7.35 6.98, 7.21 7.19, 7.06 7.39 C6.92 7.59, 6.75 7.78, 6.57 7.95 C6.39 8.11, 6.2 8.27, 6 8.4 C5.8 8.53, 5.59 8.64, 5.37 8.73 C5.15 8.82, 4.92 8.89, 4.69 8.93 C4.47 8.98, 4.23 9, 4 9 C3.77 9, 3.53 8.98, 3.31 8.93 C3.08 8.89, 2.85 8.82, 2.63 8.73 C2.41 8.64, 2.2 8.53, 2 8.4 C1.8 8.27, 1.61 8.11, 1.43 7.95 C1.25 7.78, 1.08 7.59, 0.94 7.39 C0.79 7.19, 0.65 6.98, 0.54 6.75 C0.42 6.52, 0.32 6.28, 0.24 6.04 C0.16 5.79, 0.1 5.54, 0.06 5.28 C0.02 5.02, 0 4.76, 0 4.5 C0 4.24, 0.02 3.98, 0.06 3.72 C0.1 3.46, 0.16 3.21, 0.24 2.96 C0.32 2.72, 0.42 2.48, 0.54 2.25 C0.65 2.02, 0.79 1.81, 0.94 1.61 C1.08 1.41, 1.25 1.22, 1.43 1.05 C1.61 0.89, 1.8 0.73, 2 0.6 C2.2 0.47, 2.41 0.36, 2.63 0.27 C2.85 0.18, 3.08 0.11, 3.31 0.07 C3.53 0.02, 3.77 0, 4 0 C4.23 0, 4.47 0.02, 4.69 0.07 C4.92 0.11, 5.15 0.18, 5.37 0.27 C5.59 0.36, 5.8 0.47, 6 0.6 C6.2 0.73, 6.39 0.89, 6.57 1.05 C6.75 1.22, 6.92 1.41, 7.06 1.61 C7.21 1.81, 7.35 2.02, 7.46 2.25 C7.58 2.48, 7.68 2.72, 7.76 2.96 C7.84 3.21, 7.9 3.46, 7.94 3.72 C7.98 3.98, 7.99 4.37, 8 4.5 C8.01 4.63, 8.01 4.37, 8 4.5" stroke="#f2f2f2" stroke-width="2" fill="none"></path></g><g stroke-linecap="round" transform="translate(509.685862229656 418.53902989411716) rotate(0 4 4.5)"><path d="M8 4.5 C8 4.76, 7.98 5.02, 7.94 5.28 C7.9 5.54, 7.84 5.79, 7.76 6.04 C7.68 6.28, 7.58 6.52, 7.46 6.75 C7.35 6.98, 7.21 7.19, 7.06 7.39 C6.92 7.59, 6.75 7.78, 6.57 7.95 C6.39 8.11, 6.2 8.27, 6 8.4 C5.8 8.53, 5.59 8.64, 5.37 8.73 C5.15 8.82, 4.92 8.89, 4.69 8.93 C4.47 8.98, 4.23 9, 4 9 C3.77 9, 3.53 8.98, 3.31 8.93 C3.08 8.89, 2.85 8.82, 2.63 8.73 C2.41 8.64, 2.2 8.53, 2 8.4 C1.8 8.27, 1.61 8.11, 1.43 7.95 C1.25 7.78, 1.08 7.59, 0.94 7.39 C0.79 7.19, 0.65 6.98, 0.54 6.75 C0.42 6.52, 0.32 6.28, 0.24 6.04 C0.16 5.79, 0.1 5.54, 0.06 5.28 C0.02 5.02, 0 4.76, 0 4.5 C0 4.24, 0.02 3.98, 0.06 3.72 C0.1 3.46, 0.16 3.21, 0.24 2.96 C0.32 2.72, 0.42 2.48, 0.54 2.25 C0.65 2.02, 0.79 1.81, 0.94 1.61 C1.08 1.41, 1.25 1.22, 1.43 1.05 C1.61 0.89, 1.8 0.73, 2 0.6 C2.2 0.47, 2.41 0.36, 2.63 0.27 C2.85 0.18, 3.08 0.11, 3.31 0.07 C3.53 0.02, 3.77 0, 4 0 C4.23 0, 4.47 0.02, 4.69 0.07 C4.92 0.11, 5.15 0.18, 5.37 0.27 C5.59 0.36, 5.8 0.47, 6 0.6 C6.2 0.73, 6.39 0.89, 6.57 1.05 C6.75 1.22, 6.92 1.41, 7.06 1.61 C7.21 1.81, 7.35 2.02, 7.46 2.25 C7.58 2.48, 7.68 2.72, 7.76 2.96 C7.84 3.21, 7.9 3.46, 7.94 3.72 C7.98 3.98, 7.99 4.37, 8 4.5 C8.01 4.63, 8.01 4.37, 8 4.5" stroke="none" stroke-width="0" fill="#f2f2f2"></path><path d="M8 4.5 C8 4.76, 7.98 5.02, 7.94 5.28 C7.9 5.54, 7.84 5.79, 7.76 6.04 C7.68 6.28, 7.58 6.52, 7.46 6.75 C7.35 6.98, 7.21 7.19, 7.06 7.39 C6.92 7.59, 6.75 7.78, 6.57 7.95 C6.39 8.11, 6.2 8.27, 6 8.4 C5.8 8.53, 5.59 8.64, 5.37 8.73 C5.15 8.82, 4.92 8.89, 4.69 8.93 C4.47 8.98, 4.23 9, 4 9 C3.77 9, 3.53 8.98, 3.31 8.93 C3.08 8.89, 2.85 8.82, 2.63 8.73 C2.41 8.64, 2.2 8.53, 2 8.4 C1.8 8.27, 1.61 8.11, 1.43 7.95 C1.25 7.78, 1.08 7.59, 0.94 7.39 C0.79 7.19, 0.65 6.98, 0.54 6.75 C0.42 6.52, 0.32 6.28, 0.24 6.04 C0.16 5.79, 0.1 5.54, 0.06 5.28 C0.02 5.02, 0 4.76, 0 4.5 C0 4.24, 0.02 3.98, 0.06 3.72 C0.1 3.46, 0.16 3.21, 0.24 2.96 C0.32 2.72, 0.42 2.48, 0.54 2.25 C0.65 2.02, 0.79 1.81, 0.94 1.61 C1.08 1.41, 1.25 1.22, 1.43 1.05 C1.61 0.89, 1.8 0.73, 2 0.6 C2.2 0.47, 2.41 0.36, 2.63 0.27 C2.85 0.18, 3.08 0.11, 3.31 0.07 C3.53 0.02, 3.77 0, 4 0 C4.23 0, 4.47 0.02, 4.69 0.07 C4.92 0.11, 5.15 0.18, 5.37 0.27 C5.59 0.36, 5.8 0.47, 6 0.6 C6.2 0.73, 6.39 0.89, 6.57 1.05 C6.75 1.22, 6.92 1.41, 7.06 1.61 C7.21 1.81, 7.35 2.02, 7.46 2.25 C7.58 2.48, 7.68 2.72, 7.76 2.96 C7.84 3.21, 7.9 3.46, 7.94 3.72 C7.98 3.98, 7.99 4.37, 8 4.5 C8.01 4.63, 8.01 4.37, 8 4.5" stroke="#f2f2f2" stroke-width="2" fill="none"></path></g><g stroke-linecap="round" transform="translate(564.5709904708691 401.6512981275902) rotate(0 4 4.5)"><path d="M8 4.5 C8 4.76, 7.98 5.02, 7.94 5.28 C7.9 5.54, 7.84 5.79, 7.76 6.04 C7.68 6.28, 7.58 6.52, 7.46 6.75 C7.35 6.98, 7.21 7.19, 7.06 7.39 C6.92 7.59, 6.75 7.78, 6.57 7.95 C6.39 8.11, 6.2 8.27, 6 8.4 C5.8 8.53, 5.59 8.64, 5.37 8.73 C5.15 8.82, 4.92 8.89, 4.69 8.93 C4.47 8.98, 4.23 9, 4 9 C3.77 9, 3.53 8.98, 3.31 8.93 C3.08 8.89, 2.85 8.82, 2.63 8.73 C2.41 8.64, 2.2 8.53, 2 8.4 C1.8 8.27, 1.61 8.11, 1.43 7.95 C1.25 7.78, 1.08 7.59, 0.94 7.39 C0.79 7.19, 0.65 6.98, 0.54 6.75 C0.42 6.52, 0.32 6.28, 0.24 6.04 C0.16 5.79, 0.1 5.54, 0.06 5.28 C0.02 5.02, 0 4.76, 0 4.5 C0 4.24, 0.02 3.98, 0.06 3.72 C0.1 3.46, 0.16 3.21, 0.24 2.96 C0.32 2.72, 0.42 2.48, 0.54 2.25 C0.65 2.02, 0.79 1.81, 0.94 1.61 C1.08 1.41, 1.25 1.22, 1.43 1.05 C1.61 0.89, 1.8 0.73, 2 0.6 C2.2 0.47, 2.41 0.36, 2.63 0.27 C2.85 0.18, 3.08 0.11, 3.31 0.07 C3.53 0.02, 3.77 0, 4 0 C4.23 0, 4.47 0.02, 4.69 0.07 C4.92 0.11, 5.15 0.18, 5.37 0.27 C5.59 0.36, 5.8 0.47, 6 0.6 C6.2 0.73, 6.39 0.89, 6.57 1.05 C6.75 1.22, 6.92 1.41, 7.06 1.61 C7.21 1.81, 7.35 2.02, 7.46 2.25 C7.58 2.48, 7.68 2.72, 7.76 2.96 C7.84 3.21, 7.9 3.46, 7.94 3.72 C7.98 3.98, 7.99 4.37, 8 4.5 C8.01 4.63, 8.01 4.37, 8 4.5" stroke="none" stroke-width="0" fill="#f2f2f2"></path><path d="M8 4.5 C8 4.76, 7.98 5.02, 7.94 5.28 C7.9 5.54, 7.84 5.79, 7.76 6.04 C7.68 6.28, 7.58 6.52, 7.46 6.75 C7.35 6.98, 7.21 7.19, 7.06 7.39 C6.92 7.59, 6.75 7.78, 6.57 7.95 C6.39 8.11, 6.2 8.27, 6 8.4 C5.8 8.53, 5.59 8.64, 5.37 8.73 C5.15 8.82, 4.92 8.89, 4.69 8.93 C4.47 8.98, 4.23 9, 4 9 C3.77 9, 3.53 8.98, 3.31 8.93 C3.08 8.89, 2.85 8.82, 2.63 8.73 C2.41 8.64, 2.2 8.53, 2 8.4 C1.8 8.27, 1.61 8.11, 1.43 7.95 C1.25 7.78, 1.08 7.59, 0.94 7.39 C0.79 7.19, 0.65 6.98, 0.54 6.75 C0.42 6.52, 0.32 6.28, 0.24 6.04 C0.16 5.79, 0.1 5.54, 0.06 5.28 C0.02 5.02, 0 4.76, 0 4.5 C0 4.24, 0.02 3.98, 0.06 3.72 C0.1 3.46, 0.16 3.21, 0.24 2.96 C0.32 2.72, 0.42 2.48, 0.54 2.25 C0.65 2.02, 0.79 1.81, 0.94 1.61 C1.08 1.41, 1.25 1.22, 1.43 1.05 C1.61 0.89, 1.8 0.73, 2 0.6 C2.2 0.47, 2.41 0.36, 2.63 0.27 C2.85 0.18, 3.08 0.11, 3.31 0.07 C3.53 0.02, 3.77 0, 4 0 C4.23 0, 4.47 0.02, 4.69 0.07 C4.92 0.11, 5.15 0.18, 5.37 0.27 C5.59 0.36, 5.8 0.47, 6 0.6 C6.2 0.73, 6.39 0.89, 6.57 1.05 C6.75 1.22, 6.92 1.41, 7.06 1.61 C7.21 1.81, 7.35 2.02, 7.46 2.25 C7.58 2.48, 7.68 2.72, 7.76 2.96 C7.84 3.21, 7.9 3.46, 7.94 3.72 C7.98 3.98, 7.99 4.37, 8 4.5 C8.01 4.63, 8.01 4.37, 8 4.5" stroke="#f2f2f2" stroke-width="2" fill="none"></path></g><g stroke-linecap="round" transform="translate(501.2419963463925 366.4685236139921) rotate(0 4 4.5)"><path d="M8 4.5 C8 4.76, 7.98 5.02, 7.94 5.28 C7.9 5.54, 7.84 5.79, 7.76 6.04 C7.68 6.28, 7.58 6.52, 7.46 6.75 C7.35 6.98, 7.21 7.19, 7.06 7.39 C6.92 7.59, 6.75 7.78, 6.57 7.95 C6.39 8.11, 6.2 8.27, 6 8.4 C5.8 8.53, 5.59 8.64, 5.37 8.73 C5.15 8.82, 4.92 8.89, 4.69 8.93 C4.47 8.98, 4.23 9, 4 9 C3.77 9, 3.53 8.98, 3.31 8.93 C3.08 8.89, 2.85 8.82, 2.63 8.73 C2.41 8.64, 2.2 8.53, 2 8.4 C1.8 8.27, 1.61 8.11, 1.43 7.95 C1.25 7.78, 1.08 7.59, 0.94 7.39 C0.79 7.19, 0.65 6.98, 0.54 6.75 C0.42 6.52, 0.32 6.28, 0.24 6.04 C0.16 5.79, 0.1 5.54, 0.06 5.28 C0.02 5.02, 0 4.76, 0 4.5 C0 4.24, 0.02 3.98, 0.06 3.72 C0.1 3.46, 0.16 3.21, 0.24 2.96 C0.32 2.72, 0.42 2.48, 0.54 2.25 C0.65 2.02, 0.79 1.81, 0.94 1.61 C1.08 1.41, 1.25 1.22, 1.43 1.05 C1.61 0.89, 1.8 0.73, 2 0.6 C2.2 0.47, 2.41 0.36, 2.63 0.27 C2.85 0.18, 3.08 0.11, 3.31 0.07 C3.53 0.02, 3.77 0, 4 0 C4.23 0, 4.47 0.02, 4.69 0.07 C4.92 0.11, 5.15 0.18, 5.37 0.27 C5.59 0.36, 5.8 0.47, 6 0.6 C6.2 0.73, 6.39 0.89, 6.57 1.05 C6.75 1.22, 6.92 1.41, 7.06 1.61 C7.21 1.81, 7.35 2.02, 7.46 2.25 C7.58 2.48, 7.68 2.72, 7.76 2.96 C7.84 3.21, 7.9 3.46, 7.94 3.72 C7.98 3.98, 7.99 4.37, 8 4.5 C8.01 4.63, 8.01 4.37, 8 4.5" stroke="none" stroke-width="0" fill="#f2f2f2"></path><path d="M8 4.5 C8 4.76, 7.98 5.02, 7.94 5.28 C7.9 5.54, 7.84 5.79, 7.76 6.04 C7.68 6.28, 7.58 6.52, 7.46 6.75 C7.35 6.98, 7.21 7.19, 7.06 7.39 C6.92 7.59, 6.75 7.78, 6.57 7.95 C6.39 8.11, 6.2 8.27, 6 8.4 C5.8 8.53, 5.59 8.64, 5.37 8.73 C5.15 8.82, 4.92 8.89, 4.69 8.93 C4.47 8.98, 4.23 9, 4 9 C3.77 9, 3.53 8.98, 3.31 8.93 C3.08 8.89, 2.85 8.82, 2.63 8.73 C2.41 8.64, 2.2 8.53, 2 8.4 C1.8 8.27, 1.61 8.11, 1.43 7.95 C1.25 7.78, 1.08 7.59, 0.94 7.39 C0.79 7.19, 0.65 6.98, 0.54 6.75 C0.42 6.52, 0.32 6.28, 0.24 6.04 C0.16 5.79, 0.1 5.54, 0.06 5.28 C0.02 5.02, 0 4.76, 0 4.5 C0 4.24, 0.02 3.98, 0.06 3.72 C0.1 3.46, 0.16 3.21, 0.24 2.96 C0.32 2.72, 0.42 2.48, 0.54 2.25 C0.65 2.02, 0.79 1.81, 0.94 1.61 C1.08 1.41, 1.25 1.22, 1.43 1.05 C1.61 0.89, 1.8 0.73, 2 0.6 C2.2 0.47, 2.41 0.36, 2.63 0.27 C2.85 0.18, 3.08 0.11, 3.31 0.07 C3.53 0.02, 3.77 0, 4 0 C4.23 0, 4.47 0.02, 4.69 0.07 C4.92 0.11, 5.15 0.18, 5.37 0.27 C5.59 0.36, 5.8 0.47, 6 0.6 C6.2 0.73, 6.39 0.89, 6.57 1.05 C6.75 1.22, 6.92 1.41, 7.06 1.61 C7.21 1.81, 7.35 2.02, 7.46 2.25 C7.58 2.48, 7.68 2.72, 7.76 2.96 C7.84 3.21, 7.9 3.46, 7.94 3.72 C7.98 3.98, 7.99 4.37, 8 4.5 C8.01 4.63, 8.01 4.37, 8 4.5" stroke="#f2f2f2" stroke-width="2" fill="none"></path></g><g stroke-linecap="round" transform="translate(540.2759477237979 336.9149930225696) rotate(0 4 4.5)"><path d="M8 4.5 C8 4.76, 7.98 5.02, 7.94 5.28 C7.9 5.54, 7.84 5.79, 7.76 6.04 C7.68 6.28, 7.58 6.52, 7.46 6.75 C7.35 6.98, 7.21 7.19, 7.06 7.39 C6.92 7.59, 6.75 7.78, 6.57 7.95 C6.39 8.11, 6.2 8.27, 6 8.4 C5.8 8.53, 5.59 8.64, 5.37 8.73 C5.15 8.82, 4.92 8.89, 4.69 8.93 C4.47 8.98, 4.23 9, 4 9 C3.77 9, 3.53 8.98, 3.31 8.93 C3.08 8.89, 2.85 8.82, 2.63 8.73 C2.41 8.64, 2.2 8.53, 2 8.4 C1.8 8.27, 1.61 8.11, 1.43 7.95 C1.25 7.78, 1.08 7.59, 0.94 7.39 C0.79 7.19, 0.65 6.98, 0.54 6.75 C0.42 6.52, 0.32 6.28, 0.24 6.04 C0.16 5.79, 0.1 5.54, 0.06 5.28 C0.02 5.02, 0 4.76, 0 4.5 C0 4.24, 0.02 3.98, 0.06 3.72 C0.1 3.46, 0.16 3.21, 0.24 2.96 C0.32 2.72, 0.42 2.48, 0.54 2.25 C0.65 2.02, 0.79 1.81, 0.94 1.61 C1.08 1.41, 1.25 1.22, 1.43 1.05 C1.61 0.89, 1.8 0.73, 2 0.6 C2.2 0.47, 2.41 0.36, 2.63 0.27 C2.85 0.18, 3.08 0.11, 3.31 0.07 C3.53 0.02, 3.77 0, 4 0 C4.23 0, 4.47 0.02, 4.69 0.07 C4.92 0.11, 5.15 0.18, 5.37 0.27 C5.59 0.36, 5.8 0.47, 6 0.6 C6.2 0.73, 6.39 0.89, 6.57 1.05 C6.75 1.22, 6.92 1.41, 7.06 1.61 C7.21 1.81, 7.35 2.02, 7.46 2.25 C7.58 2.48, 7.68 2.72, 7.76 2.96 C7.84 3.21, 7.9 3.46, 7.94 3.72 C7.98 3.98, 7.99 4.37, 8 4.5 C8.01 4.63, 8.01 4.37, 8 4.5" stroke="none" stroke-width="0" fill="#f2f2f2"></path><path d="M8 4.5 C8 4.76, 7.98 5.02, 7.94 5.28 C7.9 5.54, 7.84 5.79, 7.76 6.04 C7.68 6.28, 7.58 6.52, 7.46 6.75 C7.35 6.98, 7.21 7.19, 7.06 7.39 C6.92 7.59, 6.75 7.78, 6.57 7.95 C6.39 8.11, 6.2 8.27, 6 8.4 C5.8 8.53, 5.59 8.64, 5.37 8.73 C5.15 8.82, 4.92 8.89, 4.69 8.93 C4.47 8.98, 4.23 9, 4 9 C3.77 9, 3.53 8.98, 3.31 8.93 C3.08 8.89, 2.85 8.82, 2.63 8.73 C2.41 8.64, 2.2 8.53, 2 8.4 C1.8 8.27, 1.61 8.11, 1.43 7.95 C1.25 7.78, 1.08 7.59, 0.94 7.39 C0.79 7.19, 0.65 6.98, 0.54 6.75 C0.42 6.52, 0.32 6.28, 0.24 6.04 C0.16 5.79, 0.1 5.54, 0.06 5.28 C0.02 5.02, 0 4.76, 0 4.5 C0 4.24, 0.02 3.98, 0.06 3.72 C0.1 3.46, 0.16 3.21, 0.24 2.96 C0.32 2.72, 0.42 2.48, 0.54 2.25 C0.65 2.02, 0.79 1.81, 0.94 1.61 C1.08 1.41, 1.25 1.22, 1.43 1.05 C1.61 0.89, 1.8 0.73, 2 0.6 C2.2 0.47, 2.41 0.36, 2.63 0.27 C2.85 0.18, 3.08 0.11, 3.31 0.07 C3.53 0.02, 3.77 0, 4 0 C4.23 0, 4.47 0.02, 4.69 0.07 C4.92 0.11, 5.15 0.18, 5.37 0.27 C5.59 0.36, 5.8 0.47, 6 0.6 C6.2 0.73, 6.39 0.89, 6.57 1.05 C6.75 1.22, 6.92 1.41, 7.06 1.61 C7.21 1.81, 7.35 2.02, 7.46 2.25 C7.58 2.48, 7.68 2.72, 7.76 2.96 C7.84 3.21, 7.9 3.46, 7.94 3.72 C7.98 3.98, 7.99 4.37, 8 4.5 C8.01 4.63, 8.01 4.37, 8 4.5" stroke="#f2f2f2" stroke-width="2" fill="none"></path></g><g stroke-linecap="round" transform="translate(580.0514112568522 322.02726125604244) rotate(0 4 4.5)"><path d="M8 4.5 C8 4.76, 7.98 5.02, 7.94 5.28 C7.9 5.54, 7.84 5.79, 7.76 6.04 C7.68 6.28, 7.58 6.52, 7.46 6.75 C7.35 6.98, 7.21 7.19, 7.06 7.39 C6.92 7.59, 6.75 7.78, 6.57 7.95 C6.39 8.11, 6.2 8.27, 6 8.4 C5.8 8.53, 5.59 8.64, 5.37 8.73 C5.15 8.82, 4.92 8.89, 4.69 8.93 C4.47 8.98, 4.23 9, 4 9 C3.77 9, 3.53 8.98, 3.31 8.93 C3.08 8.89, 2.85 8.82, 2.63 8.73 C2.41 8.64, 2.2 8.53, 2 8.4 C1.8 8.27, 1.61 8.11, 1.43 7.95 C1.25 7.78, 1.08 7.59, 0.94 7.39 C0.79 7.19, 0.65 6.98, 0.54 6.75 C0.42 6.52, 0.32 6.28, 0.24 6.04 C0.16 5.79, 0.1 5.54, 0.06 5.28 C0.02 5.02, 0 4.76, 0 4.5 C0 4.24, 0.02 3.98, 0.06 3.72 C0.1 3.46, 0.16 3.21, 0.24 2.96 C0.32 2.72, 0.42 2.48, 0.54 2.25 C0.65 2.02, 0.79 1.81, 0.94 1.61 C1.08 1.41, 1.25 1.22, 1.43 1.05 C1.61 0.89, 1.8 0.73, 2 0.6 C2.2 0.47, 2.41 0.36, 2.63 0.27 C2.85 0.18, 3.08 0.11, 3.31 0.07 C3.53 0.02, 3.77 0, 4 0 C4.23 0, 4.47 0.02, 4.69 0.07 C4.92 0.11, 5.15 0.18, 5.37 0.27 C5.59 0.36, 5.8 0.47, 6 0.6 C6.2 0.73, 6.39 0.89, 6.57 1.05 C6.75 1.22, 6.92 1.41, 7.06 1.61 C7.21 1.81, 7.35 2.02, 7.46 2.25 C7.58 2.48, 7.68 2.72, 7.76 2.96 C7.84 3.21, 7.9 3.46, 7.94 3.72 C7.98 3.98, 7.99 4.37, 8 4.5 C8.01 4.63, 8.01 4.37, 8 4.5" stroke="none" stroke-width="0" fill="#f2f2f2"></path><path d="M8 4.5 C8 4.76, 7.98 5.02, 7.94 5.28 C7.9 5.54, 7.84 5.79, 7.76 6.04 C7.68 6.28, 7.58 6.52, 7.46 6.75 C7.35 6.98, 7.21 7.19, 7.06 7.39 C6.92 7.59, 6.75 7.78, 6.57 7.95 C6.39 8.11, 6.2 8.27, 6 8.4 C5.8 8.53, 5.59 8.64, 5.37 8.73 C5.15 8.82, 4.92 8.89, 4.69 8.93 C4.47 8.98, 4.23 9, 4 9 C3.77 9, 3.53 8.98, 3.31 8.93 C3.08 8.89, 2.85 8.82, 2.63 8.73 C2.41 8.64, 2.2 8.53, 2 8.4 C1.8 8.27, 1.61 8.11, 1.43 7.95 C1.25 7.78, 1.08 7.59, 0.94 7.39 C0.79 7.19, 0.65 6.98, 0.54 6.75 C0.42 6.52, 0.32 6.28, 0.24 6.04 C0.16 5.79, 0.1 5.54, 0.06 5.28 C0.02 5.02, 0 4.76, 0 4.5 C0 4.24, 0.02 3.98, 0.06 3.72 C0.1 3.46, 0.16 3.21, 0.24 2.96 C0.32 2.72, 0.42 2.48, 0.54 2.25 C0.65 2.02, 0.79 1.81, 0.94 1.61 C1.08 1.41, 1.25 1.22, 1.43 1.05 C1.61 0.89, 1.8 0.73, 2 0.6 C2.2 0.47, 2.41 0.36, 2.63 0.27 C2.85 0.18, 3.08 0.11, 3.31 0.07 C3.53 0.02, 3.77 0, 4 0 C4.23 0, 4.47 0.02, 4.69 0.07 C4.92 0.11, 5.15 0.18, 5.37 0.27 C5.59 0.36, 5.8 0.47, 6 0.6 C6.2 0.73, 6.39 0.89, 6.57 1.05 C6.75 1.22, 6.92 1.41, 7.06 1.61 C7.21 1.81, 7.35 2.02, 7.46 2.25 C7.58 2.48, 7.68 2.72, 7.76 2.96 C7.84 3.21, 7.9 3.46, 7.94 3.72 C7.98 3.98, 7.99 4.37, 8 4.5 C8.01 4.63, 8.01 4.37, 8 4.5" stroke="#f2f2f2" stroke-width="2.5" fill="none" stroke-dasharray="8 10"></path></g><g stroke-linecap="round"><g transform="translate(403.91560574722973 417.4097859719415) rotate(0 99.91907961861875 -21.109664708158903)"><path d="M0 0 C33.31 -7.04, 166.53 -35.18, 199.84 -42.22" stroke="#f2f2f2" stroke-width="2.5" fill="none" stroke-dasharray="8 10"></path></g></g><mask></mask><g stroke-linecap="round" transform="translate(448.83241670551536 380.0772673737785) rotate(0 7.20703125 7.20703125)"><path d="M5.44 0.5 C6.88 0.03, 9.19 -0.04, 10.65 0.54 C12.11 1.12, 13.7 2.48, 14.2 3.97 C14.7 5.46, 14.11 7.88, 13.65 9.49 C13.18 11.1, 12.6 12.85, 11.4 13.63 C10.21 14.41, 8.13 14.4, 6.5 14.19 C4.87 13.97, 2.74 13.5, 1.63 12.37 C0.51 11.23, -0.11 8.9, -0.21 7.39 C-0.3 5.87, -0.01 4.49, 1.04 3.28 C2.08 2.08, 5.2 0.65, 6.06 0.17 C6.92 -0.3, 6.11 0.33, 6.17 0.41 M5.43 -0.37 C6.98 -0.97, 9.94 -0.42, 11.29 0.3 C12.63 1.02, 13.1 2.4, 13.5 3.97 C13.89 5.54, 14.04 8.2, 13.65 9.73 C13.25 11.26, 12.3 12.37, 11.13 13.14 C9.96 13.91, 8.16 14.46, 6.63 14.33 C5.1 14.21, 3.15 13.42, 1.95 12.38 C0.75 11.34, -0.49 9.66, -0.58 8.1 C-0.67 6.54, 0.33 4.45, 1.41 3.02 C2.49 1.59, 5.23 -0.02, 5.89 -0.5 C6.55 -0.98, 5.35 -0.15, 5.35 0.15" stroke="none" stroke-width="0" fill="#ffffff"></path><path d="M9.26 0.15 C10.77 0.35, 12.27 1.78, 13.2 3.02 C14.12 4.27, 15.01 6.08, 14.82 7.62 C14.63 9.15, 13.26 11.17, 12.06 12.24 C10.86 13.3, 9.09 13.85, 7.61 14 C6.13 14.15, 4.41 14, 3.17 13.15 C1.93 12.29, 0.63 10.33, 0.17 8.86 C-0.28 7.39, -0.24 5.6, 0.42 4.32 C1.08 3.04, 2.7 1.91, 4.12 1.16 C5.55 0.4, 8.09 -0.05, 8.97 -0.22 C9.85 -0.4, 9.42 -0.06, 9.38 0.11 M7.87 -0.35 C9.56 -0.37, 11.99 1.21, 13.2 2.36 C14.4 3.52, 15.07 5.14, 15.11 6.57 C15.15 8, 14.4 9.74, 13.44 10.92 C12.47 12.11, 10.92 13.28, 9.31 13.66 C7.7 14.04, 5.27 13.85, 3.79 13.19 C2.31 12.53, 1.03 11.14, 0.43 9.71 C-0.17 8.27, -0.17 6.09, 0.2 4.58 C0.58 3.07, 1.39 1.3, 2.7 0.63 C4 -0.04, 7.22 0.57, 8.04 0.55 C8.85 0.54, 7.49 0.4, 7.59 0.54" stroke="#ffffff" stroke-width="2" fill="none"></path></g><g stroke-linecap="round" transform="translate(434.5909005922341 438.81097098705976) rotate(0 7.20703125 7.20703125)"><path d="M7.61 -0.05 C9.12 -0.12, 10.76 0.76, 11.84 1.84 C12.92 2.92, 13.79 4.86, 14.1 6.44 C14.4 8.02, 14.47 10.09, 13.66 11.34 C12.85 12.6, 10.77 13.54, 9.23 13.97 C7.68 14.39, 5.85 14.41, 4.4 13.89 C2.95 13.37, 1.2 12.15, 0.52 10.84 C-0.17 9.54, -0.07 7.56, 0.28 6.05 C0.64 4.55, 1.39 2.86, 2.63 1.8 C3.86 0.74, 6.79 -0.07, 7.69 -0.29 C8.59 -0.51, 7.99 0.37, 8.01 0.5 M5.37 0.02 C6.82 -0.34, 10.14 0.76, 11.61 1.45 C13.07 2.15, 13.74 2.88, 14.15 4.21 C14.56 5.53, 14.58 7.79, 14.07 9.38 C13.56 10.98, 12.51 12.85, 11.09 13.79 C9.66 14.73, 7.19 15.35, 5.53 15.03 C3.88 14.71, 2.08 13.21, 1.14 11.86 C0.2 10.51, -0.18 8.46, -0.09 6.93 C-0.01 5.4, 0.7 3.85, 1.67 2.69 C2.63 1.53, 4.85 0.38, 5.7 -0.03 C6.54 -0.45, 6.58 -0.02, 6.74 0.18" stroke="none" stroke-width="0" fill="#ffffff"></path><path d="M6.31 0.13 C7.78 -0.2, 9.47 0.5, 10.83 1.26 C12.2 2.03, 14.05 3.32, 14.49 4.74 C14.93 6.16, 14.05 8.33, 13.48 9.78 C12.92 11.22, 12.45 12.55, 11.11 13.38 C9.76 14.22, 7.07 15.09, 5.42 14.77 C3.78 14.45, 2.19 12.79, 1.23 11.46 C0.27 10.12, -0.46 8.24, -0.32 6.74 C-0.19 5.25, 0.94 3.55, 2.03 2.48 C3.13 1.4, 5.5 0.67, 6.26 0.3 C7.02 -0.08, 6.52 0.2, 6.59 0.21 M8.83 -0.54 C10.24 -0.41, 11.53 1.14, 12.48 2.51 C13.44 3.89, 14.42 6.09, 14.55 7.74 C14.68 9.39, 14.18 11.34, 13.26 12.43 C12.33 13.52, 10.73 14.12, 8.99 14.26 C7.25 14.41, 4.23 14.17, 2.82 13.32 C1.41 12.46, 1 10.6, 0.55 9.13 C0.1 7.67, -0.35 5.84, 0.13 4.55 C0.61 3.25, 1.91 2.07, 3.43 1.37 C4.95 0.67, 8.37 0.49, 9.25 0.34 C10.14 0.19, 8.91 0.37, 8.74 0.46" stroke="#ffffff" stroke-width="2" fill="none"></path></g><g stroke-linecap="round" transform="translate(506.9248849672341 416.88067313549726) rotate(0 7.20703125 7.20703125)"><path d="M7.88 -0.45 C9.34 -0.46, 11.17 1, 12.3 2.07 C13.43 3.13, 14.49 4.37, 14.67 5.93 C14.84 7.48, 14.2 10.07, 13.37 11.4 C12.54 12.72, 11.11 13.5, 9.68 13.87 C8.25 14.23, 6.36 14.23, 4.8 13.58 C3.24 12.92, 1.04 11.34, 0.3 9.95 C-0.44 8.55, -0.13 6.64, 0.37 5.2 C0.87 3.76, 2.03 2.24, 3.31 1.3 C4.59 0.37, 7.16 -0.31, 8.06 -0.41 C8.96 -0.52, 8.72 0.55, 8.7 0.67 M7.61 0.32 C8.94 0.63, 11.45 1.9, 12.59 3.06 C13.73 4.21, 14.31 5.7, 14.46 7.26 C14.62 8.82, 14.44 11.2, 13.52 12.41 C12.61 13.62, 10.55 14.33, 8.99 14.52 C7.43 14.7, 5.57 14.3, 4.17 13.53 C2.77 12.76, 1.13 11.35, 0.59 9.92 C0.05 8.49, 0.47 6.55, 0.94 4.96 C1.41 3.37, 2.11 1.09, 3.4 0.38 C4.69 -0.32, 7.85 0.75, 8.67 0.75 C9.49 0.75, 8.37 0.41, 8.32 0.36" stroke="none" stroke-width="0" fill="#ffffff"></path><path d="M7.46 0.22 C8.9 0.12, 11.21 0.5, 12.4 1.58 C13.59 2.67, 14.53 5.18, 14.59 6.74 C14.66 8.31, 13.75 9.69, 12.81 10.96 C11.87 12.23, 10.4 13.9, 8.95 14.34 C7.49 14.78, 5.41 14.25, 4.08 13.58 C2.74 12.9, 1.59 11.61, 0.92 10.28 C0.26 8.96, -0.19 7.13, 0.09 5.64 C0.36 4.15, 1.2 2.24, 2.56 1.33 C3.93 0.41, 7.3 0.38, 8.26 0.18 C9.23 -0.02, 8.41 0.02, 8.34 0.13 M6.42 -0.33 C7.88 -0.39, 10.59 0.26, 11.85 1.25 C13.11 2.24, 13.65 4.02, 13.99 5.6 C14.33 7.18, 14.62 9.29, 13.89 10.73 C13.16 12.17, 11.16 13.8, 9.61 14.25 C8.06 14.7, 6.13 14, 4.59 13.42 C3.04 12.84, 1.2 12.08, 0.33 10.8 C-0.53 9.52, -0.97 7.26, -0.6 5.73 C-0.24 4.21, 1.34 2.69, 2.55 1.64 C3.76 0.58, 5.82 -0.31, 6.64 -0.6 C7.47 -0.9, 7.35 -0.29, 7.51 -0.12" stroke="#ffffff" stroke-width="2" fill="none"></path></g><g stroke-linecap="round" transform="translate(562.4391671937966 397.72051688549726) rotate(0 7.20703125 7.20703125)"><path d="M9.04 0.06 C10.48 0.22, 12.07 1.5, 12.89 2.67 C13.7 3.84, 13.97 5.6, 13.95 7.1 C13.92 8.6, 13.75 10.49, 12.73 11.69 C11.7 12.88, 9.4 13.97, 7.77 14.28 C6.15 14.59, 4.23 14.3, 2.97 13.55 C1.71 12.79, 0.7 11.37, 0.23 9.76 C-0.23 8.16, -0.47 5.35, 0.17 3.9 C0.82 2.45, 2.61 1.75, 4.11 1.07 C5.62 0.4, 8.29 0.03, 9.2 -0.14 C10.1 -0.31, 9.66 -0.11, 9.56 0.03 M6.96 0.64 C8.31 0.59, 9.73 0.91, 10.85 1.79 C11.96 2.68, 13.25 4.52, 13.66 5.93 C14.08 7.35, 13.94 9.06, 13.34 10.3 C12.75 11.55, 11.44 12.78, 10.09 13.43 C8.74 14.07, 6.76 14.65, 5.22 14.2 C3.69 13.74, 1.85 11.84, 0.88 10.67 C-0.09 9.5, -0.94 8.51, -0.6 7.18 C-0.26 5.85, 1.8 3.92, 2.92 2.7 C4.03 1.49, 5.36 0.19, 6.09 -0.13 C6.82 -0.44, 7.18 0.77, 7.29 0.81" stroke="none" stroke-width="0" fill="#ffffff"></path><path d="M8.62 0.63 C10.06 0.81, 12.03 1.66, 13.08 2.8 C14.12 3.93, 15.01 5.94, 14.86 7.45 C14.71 8.96, 13.32 10.76, 12.18 11.84 C11.04 12.93, 9.47 13.79, 8.03 13.96 C6.59 14.12, 4.76 13.6, 3.51 12.83 C2.26 12.07, 1.04 10.78, 0.52 9.38 C0.01 7.99, -0.16 5.8, 0.42 4.45 C1.01 3.11, 2.68 2.07, 4.03 1.32 C5.38 0.56, 7.67 0, 8.54 -0.1 C9.4 -0.19, 9.22 0.56, 9.24 0.74 M9.32 0.8 C10.96 1.1, 12.68 2.03, 13.49 3.06 C14.29 4.08, 14.23 5.32, 14.15 6.93 C14.08 8.54, 13.98 11.45, 13.05 12.73 C12.12 14, 10.18 14.54, 8.57 14.58 C6.96 14.63, 4.66 13.95, 3.39 12.99 C2.12 12.03, 1.45 10.3, 0.94 8.85 C0.44 7.39, -0.11 5.53, 0.36 4.27 C0.83 3.01, 2.28 1.94, 3.75 1.27 C5.23 0.6, 8.3 0.33, 9.23 0.23 C10.16 0.12, 9.57 0.64, 9.34 0.64" stroke="#ffffff" stroke-width="2" fill="none"></path></g><g stroke-linecap="round" transform="translate(499.53554170551536 365.738033975341) rotate(0 7.20703125 7.20703125)"><path d="M6.57 0.01 C7.99 -0.25, 9.52 0.75, 10.77 1.62 C12.03 2.49, 13.57 3.81, 14.1 5.22 C14.62 6.63, 14.58 8.69, 13.94 10.08 C13.3 11.48, 11.62 12.94, 10.27 13.59 C8.93 14.25, 7.27 14.46, 5.86 14.01 C4.46 13.57, 2.83 12.09, 1.84 10.93 C0.86 9.78, -0.06 8.51, -0.04 7.09 C-0.02 5.67, 0.81 3.65, 1.96 2.42 C3.12 1.19, 5.99 0.07, 6.88 -0.28 C7.77 -0.64, 7.26 0.08, 7.31 0.3 M6.25 0.41 C7.75 0.18, 10.52 0.15, 11.73 1.06 C12.94 1.97, 13.29 4.42, 13.51 5.88 C13.72 7.34, 13.7 8.45, 13.03 9.83 C12.37 11.2, 10.8 13.37, 9.51 14.13 C8.22 14.88, 6.61 14.94, 5.31 14.34 C4 13.75, 2.52 11.88, 1.66 10.57 C0.81 9.26, -0.03 7.96, 0.19 6.46 C0.41 4.95, 1.78 2.67, 3 1.53 C4.22 0.39, 6.97 -0.06, 7.52 -0.4 C8.08 -0.74, 6.44 -0.78, 6.31 -0.52" stroke="none" stroke-width="0" fill="#ffffff"></path><path d="M8.54 0.12 C9.97 0.38, 12.44 2.21, 13.42 3.4 C14.4 4.6, 14.64 5.73, 14.41 7.26 C14.17 8.8, 13.14 11.36, 12.01 12.6 C10.87 13.84, 9.05 14.65, 7.61 14.72 C6.17 14.78, 4.54 13.94, 3.35 13 C2.16 12.05, 0.92 10.52, 0.45 9.05 C-0.03 7.58, -0.11 5.49, 0.5 4.16 C1.11 2.83, 2.61 1.65, 4.11 1.07 C5.6 0.48, 8.67 0.81, 9.46 0.65 C10.24 0.49, 8.89 0.07, 8.82 0.09 M8.03 0.76 C9.32 0.84, 10.71 1.13, 11.65 1.98 C12.59 2.83, 13.31 4.26, 13.68 5.86 C14.05 7.45, 14.58 10.11, 13.86 11.56 C13.15 13.02, 10.92 14.14, 9.37 14.6 C7.82 15.05, 6.01 14.99, 4.55 14.31 C3.1 13.63, 1.37 12, 0.63 10.51 C-0.1 9.03, -0.2 6.85, 0.14 5.39 C0.48 3.93, 1.48 2.75, 2.66 1.74 C3.85 0.74, 6.36 -0.4, 7.25 -0.65 C8.15 -0.9, 7.97 0.1, 8.02 0.26" stroke="#ffffff" stroke-width="2" fill="none"></path></g><g stroke-linecap="round" transform="translate(535.8409005922341 333.0753142487785) rotate(0 7.20703125 7.20703125)"><path d="M7.03 0.13 C8.55 -0.07, 10.55 0.54, 11.85 1.44 C13.14 2.35, 14.49 3.97, 14.79 5.57 C15.1 7.17, 14.6 9.7, 13.69 11.04 C12.78 12.39, 10.78 13.19, 9.32 13.63 C7.86 14.07, 6.3 14.1, 4.93 13.69 C3.56 13.29, 1.87 12.47, 1.1 11.19 C0.34 9.91, 0.04 7.61, 0.35 5.99 C0.66 4.37, 1.69 2.51, 2.97 1.49 C4.25 0.46, 7.09 0.13, 8.02 -0.14 C8.96 -0.41, 8.58 -0.19, 8.56 -0.12 M8.3 -0.22 C9.9 -0.19, 11.4 1.46, 12.33 2.48 C13.27 3.5, 13.64 4.4, 13.9 5.91 C14.16 7.41, 14.62 10.05, 13.92 11.51 C13.22 12.96, 11.32 14.19, 9.7 14.62 C8.07 15.04, 5.62 14.69, 4.16 14.05 C2.7 13.4, 1.5 12.12, 0.93 10.74 C0.36 9.35, 0.47 7.2, 0.76 5.74 C1.04 4.28, 1.57 2.98, 2.66 1.98 C3.75 0.98, 6.49 0.16, 7.3 -0.26 C8.11 -0.68, 7.53 -0.83, 7.52 -0.56" stroke="none" stroke-width="0" fill="#ffffff"></path><path d="M8.95 -0.29 C10.31 -0.08, 11.54 1.05, 12.45 2.33 C13.36 3.61, 14.41 5.71, 14.42 7.39 C14.44 9.07, 13.58 11.18, 12.55 12.39 C11.53 13.59, 9.85 14.43, 8.27 14.6 C6.68 14.77, 4.4 14.32, 3.04 13.4 C1.69 12.48, 0.6 10.48, 0.14 9.08 C-0.33 7.67, -0.32 6.32, 0.23 4.95 C0.78 3.57, 1.93 1.6, 3.42 0.84 C4.91 0.07, 8.3 0.36, 9.19 0.36 C10.09 0.37, 8.89 0.75, 8.79 0.88 M8.68 0.13 C10.17 0.2, 12.24 1.27, 13.14 2.57 C14.03 3.87, 14.03 6.44, 14.05 7.92 C14.07 9.4, 14.29 10.42, 13.25 11.47 C12.22 12.53, 9.42 13.99, 7.84 14.26 C6.26 14.53, 5.02 13.87, 3.77 13.09 C2.52 12.3, 0.94 10.93, 0.34 9.57 C-0.26 8.21, -0.52 6.5, 0.14 4.95 C0.81 3.4, 2.91 0.95, 4.33 0.26 C5.75 -0.43, 8.06 0.78, 8.66 0.78 C9.26 0.79, 8 0.23, 7.94 0.32" stroke="#ffffff" stroke-width="2" fill="none"></path></g><g stroke-linecap="round" transform="translate(576.9151193422341 318.4073454987785) rotate(0 7.20703125 7.20703125)"><path d="M5.35 0.07 C6.74 -0.42, 8.96 -0.29, 10.35 0.43 C11.75 1.16, 13.06 2.87, 13.72 4.44 C14.37 6, 14.64 8.37, 14.27 9.82 C13.89 11.27, 12.72 12.35, 11.47 13.12 C10.22 13.9, 8.3 14.64, 6.77 14.46 C5.24 14.28, 3.41 13.26, 2.29 12.04 C1.17 10.83, 0.21 8.61, 0.07 7.15 C-0.08 5.69, 0.42 4.5, 1.41 3.29 C2.39 2.07, 5.2 0.33, 5.95 -0.14 C6.71 -0.61, 5.97 0.32, 5.94 0.47 M8.26 0.06 C9.87 0.16, 11.86 1.47, 12.8 2.54 C13.74 3.62, 13.91 4.95, 13.91 6.51 C13.91 8.06, 13.49 10.5, 12.79 11.87 C12.09 13.23, 11.04 14.46, 9.71 14.69 C8.39 14.92, 6.24 13.93, 4.85 13.25 C3.45 12.56, 2.02 11.81, 1.36 10.58 C0.7 9.36, 0.74 7.37, 0.91 5.91 C1.08 4.45, 1.32 2.95, 2.39 1.84 C3.46 0.74, 6.39 -0.35, 7.34 -0.72 C8.3 -1.09, 8.13 -0.68, 8.11 -0.39" stroke="none" stroke-width="0" fill="#ffffff"></path><path d="M8.51 0.32 C10.05 0.47, 12.1 1.48, 13.05 2.68 C14 3.88, 14.32 6.03, 14.23 7.52 C14.14 9.01, 13.49 10.55, 12.53 11.6 C11.56 12.65, 9.96 13.43, 8.44 13.81 C6.92 14.2, 4.78 14.59, 3.41 13.91 C2.05 13.23, 0.76 11.26, 0.24 9.73 C-0.28 8.19, -0.18 6.21, 0.31 4.72 C0.8 3.23, 1.84 1.58, 3.19 0.8 C4.53 0.02, 7.47 0.17, 8.4 0.05 C9.33 -0.07, 8.71 -0.01, 8.75 0.05 M8.38 0.04 C9.96 0.25, 12.14 2.05, 13.23 3.21 C14.31 4.37, 15.07 5.57, 14.89 7 C14.72 8.43, 13.22 10.5, 12.17 11.8 C11.12 13.09, 9.95 14.6, 8.59 14.75 C7.24 14.9, 5.34 13.62, 4.05 12.7 C2.77 11.77, 1.42 10.61, 0.9 9.2 C0.38 7.8, 0.38 5.56, 0.93 4.27 C1.48 2.99, 2.91 2.22, 4.19 1.5 C5.48 0.78, 7.82 0.14, 8.61 -0.04 C9.41 -0.22, 9.02 0.29, 8.94 0.43" stroke="#ffffff" stroke-width="2" fill="none"></path></g><g stroke-linecap="round" transform="translate(576.9151193422341 317.5577361237785) rotate(0 7.20703125 7.20703125)"><path d="M6.94 0.45 C8.44 0.27, 10.46 0.82, 11.63 1.62 C12.8 2.42, 13.62 3.77, 13.97 5.25 C14.32 6.72, 14.4 8.97, 13.73 10.47 C13.05 11.98, 11.3 13.71, 9.91 14.27 C8.51 14.83, 6.73 14.27, 5.35 13.82 C3.97 13.36, 2.58 12.76, 1.63 11.54 C0.67 10.33, -0.5 8.09, -0.37 6.5 C-0.24 4.92, 1.22 3.12, 2.41 2.04 C3.61 0.97, 5.99 0.38, 6.81 0.05 C7.64 -0.28, 7.27 -0.05, 7.36 0.04 M5.69 -0.16 C6.96 -0.68, 8.3 -0.43, 9.64 0.35 C10.98 1.12, 12.92 3.09, 13.73 4.49 C14.54 5.88, 14.83 7.41, 14.52 8.74 C14.22 10.08, 13.22 11.61, 11.88 12.52 C10.54 13.42, 8.27 14.35, 6.5 14.19 C4.73 14.03, 2.24 12.66, 1.27 11.56 C0.29 10.46, 0.66 8.94, 0.66 7.61 C0.66 6.28, 0.49 4.77, 1.26 3.58 C2.02 2.4, 4.48 1.05, 5.26 0.5 C6.04 -0.05, 5.95 0.32, 5.91 0.28" stroke="none" stroke-width="0" fill="#ffffff"></path><path d="M7.23 0.36 C8.66 0.22, 10.16 0.93, 11.34 1.85 C12.52 2.77, 13.93 4.43, 14.31 5.86 C14.68 7.3, 14.37 9.14, 13.6 10.46 C12.83 11.77, 11.01 13.11, 9.68 13.75 C8.35 14.4, 7.07 14.74, 5.61 14.31 C4.15 13.88, 1.82 12.51, 0.93 11.18 C0.04 9.84, 0.05 7.8, 0.26 6.29 C0.47 4.79, 1.09 3.19, 2.17 2.14 C3.25 1.1, 5.84 0.35, 6.72 0.02 C7.59 -0.3, 7.32 0, 7.42 0.17 M6.7 0.63 C8.23 0.47, 10.35 0.81, 11.48 1.63 C12.61 2.44, 13.05 4.04, 13.49 5.51 C13.94 6.99, 14.55 9.26, 14.16 10.49 C13.78 11.73, 12.47 12.35, 11.15 12.92 C9.84 13.48, 8.01 14.02, 6.3 13.89 C4.58 13.76, 2 13.33, 0.86 12.12 C-0.28 10.9, -0.75 8.1, -0.55 6.6 C-0.35 5.09, 1.02 4.09, 2.06 3.1 C3.09 2.12, 4.96 1.22, 5.67 0.69 C6.38 0.16, 6.22 -0.02, 6.32 -0.09" stroke="#ffffff" stroke-width="2" fill="none"></path></g></svg>