<?xml version="1.0" encoding="UTF-8"?>
<svg xmlns="http://www.w3.org/2000/svg" viewBox="0 0 600 600" xml:space="preserve">
  <path fill="#267326" d="M500 600H100C44.772 600 0 555.228 0 500V100C0 44.772 44.772 0 100 0h400c55.228 0 100 44.772 100 100v400c0 55.228-44.772 100-100 100z"></path>
  <g fill="#FFF">
    <path d="M407 220c-44.219 0-80 35.781-80 80v100h-20V120h20c0 44.219 35.781 80 80 80 55.273 0 100 44.727 100 100v100h-20V300c0-44.219-35.781-80-80-80zM107 300c0-44.219 35.781-80 80-80s80 35.781 80 80-35.781 80-80 80-80-35.781-80-80zm180 0c0-55.273-44.727-100-100-100H87v280h20c0-44.219 35.781-80 80-80 55.273 0 100-44.727 100-100z"></path>
  </g>
</svg>
