<?xml version="1.0" standalone="no"?>
<!DOCTYPE svg PUBLIC "-//W3C//DTD SVG 1.1//EN" "http://www.w3.org/Graphics/SVG/1.1/DTD/svg11.dtd">
<svg version="1.1" xmlns="http://www.w3.org/2000/svg" viewBox="0 0 1476.7512045902422 786.0212771460092" width="2953.5024091804844" height="1572.0425542920184"><!-- svg-source:excalidraw --><metadata></metadata><defs><style class="style-fonts">
      </style></defs><g stroke-linecap="round" transform="translate(108.66135134594094 286.1060595228222) rotate(0 92.94185271719078 101.52110066031611)"><path d="M0.36 0.51 L184.33 -1.88 L183.98 201.59 L-0.29 203.72" stroke="none" stroke-width="0" fill="#267326"></path><path d="M0 0 C68.79 2.34, 137.49 1.35, 185.88 0 M0 0 C66.71 0.97, 131.64 1.24, 185.88 0 M185.88 0 C185.01 70.06, 184.11 140.81, 185.88 203.04 M185.88 0 C187.58 41.88, 187.12 85.3, 185.88 203.04 M185.88 203.04 C132.12 203.29, 77.06 205.75, 0 203.04 M185.88 203.04 C123.17 204.33, 59.01 204.13, 0 203.04 M0 203.04 C-1.02 126.64, -0.62 50.01, 0 0 M0 203.04 C1.31 157.86, 1.67 113.55, 0 0" stroke="#1e1e1e" stroke-width="2" fill="none"></path></g><g stroke-linecap="round" transform="translate(526.1847512447057 286.1060595228222) rotate(0 45.75598903000167 48.61573834437672)"><path d="M-1.63 1.25 L90.96 0.73 L91.42 96.43 L-0.97 98.14" stroke="none" stroke-width="0" fill="#267326"></path><path d="M0 0 C29.45 0.79, 58.45 0.2, 91.51 0 M0 0 C35.83 -0.68, 70.95 -0.91, 91.51 0 M91.51 0 C89.21 24.96, 90.01 53.28, 91.51 97.23 M91.51 0 C91.65 19.89, 90.67 41.67, 91.51 97.23 M91.51 97.23 C55.75 97.4, 18.45 96.54, 0 97.23 M91.51 97.23 C63.15 96.6, 32.81 97.87, 0 97.23 M0 97.23 C-0.88 61.98, 0.92 23.12, 0 0 M0 97.23 C0.77 69.83, 0.19 41.9, 0 0" stroke="#1e1e1e" stroke-width="2" fill="none"></path></g><g stroke-linecap="round" transform="translate(657.7332197059604 117.24059928906627) rotate(0 77.21323148812775 84.36260477406552)"><path d="M0.39 -1.3 L156.31 -1.73 L152.77 169.08 L0.56 170.08" stroke="none" stroke-width="0" fill="#267326"></path><path d="M0 0 C50.5 -0.24, 102.01 -1.76, 154.43 0 M0 0 C38.86 -2.22, 76.95 -0.99, 154.43 0 M154.43 0 C155.11 49.65, 151.84 102.41, 154.43 168.73 M154.43 0 C153.76 64.8, 153.82 127.71, 154.43 168.73 M154.43 168.73 C115.7 168.92, 78 168.09, 0 168.73 M154.43 168.73 C114.51 168.68, 76.24 167.65, 0 168.73 M0 168.73 C0.53 108.39, 2.11 47.72, 0 0 M0 168.73 C0.11 113.44, 1.59 55.63, 0 0" stroke="#1e1e1e" stroke-width="2" fill="none"></path></g><g stroke-linecap="round" transform="translate(1171.0582216362914 152.98746571875506) rotate(0 61.48461025906465 66.48917155922112)"><path d="M-0.85 0.79 L122.82 -1.91 L124.75 131.58 L-1.62 133.82" stroke="none" stroke-width="0" fill="#267326"></path><path d="M0 0 C24.65 1.14, 48.74 -0.12, 122.97 0 M0 0 C41.99 0.29, 85.25 -0.08, 122.97 0 M122.97 0 C125.56 31.55, 124.1 63.88, 122.97 132.98 M122.97 0 C123.93 37.63, 123.19 74.68, 122.97 132.98 M122.97 132.98 C87.34 134.55, 50.35 132.2, 0 132.98 M122.97 132.98 C81.23 131.97, 40.29 133.58, 0 132.98 M0 132.98 C-1.9 82.31, 0.73 33.64, 0 0 M0 132.98 C-0.56 80.78, -0.72 26.32, 0 0" stroke="#1e1e1e" stroke-width="2" fill="none"></path></g><g stroke-linecap="round" transform="translate(297.40480609469773 286.1060595228222) rotate(0 85.07754210265921 92.94185271719084)"><path d="M0.84 0.58 L170.17 -1.65 L169.2 185.53 L1.05 185.08" stroke="none" stroke-width="0" fill="#d77d00"></path><path d="M0 0 C40 -1.92, 76.59 -2.23, 170.16 0 M0 0 C65.31 -1.51, 130.39 -0.9, 170.16 0 M170.16 0 C168.66 49.57, 171.24 98.24, 170.16 185.88 M170.16 0 C167.56 66.69, 169.32 133.87, 170.16 185.88 M170.16 185.88 C116.36 186.37, 63.87 183.08, 0 185.88 M170.16 185.88 C115.31 185.72, 59.97 186.14, 0 185.88 M0 185.88 C2.14 146.23, 1.41 105.11, 0 0 M0 185.88 C0.83 126.61, 1.3 65.89, 0 0" stroke="#1e1e1e" stroke-width="2" fill="none"></path></g><g stroke-linecap="round" transform="translate(619.1266039618966 286.1060595228222) rotate(0 21.448119857813253 23.592931843594613)"><path d="M-0.54 0.8 L42.32 -0.49 L43.34 46.44 L0.97 47.08" stroke="none" stroke-width="0" fill="#d77d00"></path><path d="M0 0 C15.56 -0.29, 31.01 0.79, 42.9 0 M0 0 C11.31 0.2, 22.1 -0.49, 42.9 0 M42.9 0 C42.5 18.72, 42.66 35.22, 42.9 47.19 M42.9 0 C43.27 17.53, 42.95 34.84, 42.9 47.19 M42.9 47.19 C32.71 48.02, 19.88 47.93, 0 47.19 M42.9 47.19 C27.81 47.02, 12.28 46.93, 0 47.19 M0 47.19 C0.43 36.01, -0.22 25.73, 0 0 M0 47.19 C-0.71 35.06, -0.47 23.45, 0 0" stroke="#1e1e1e" stroke-width="2" fill="none"></path></g><g stroke-linecap="round" transform="translate(812.1596826822162 248.78906775032095) rotate(0 17.873433214844226 18.588370543438174)"><path d="M-0.18 0.32 L36 0.63 L35.41 37.25 L-0.21 36.73" stroke="none" stroke-width="0" fill="#d77d00"></path><path d="M0 0 C11.21 -0.24, 22.14 0.11, 35.75 0 M0 0 C8.83 0.47, 18.75 0.33, 35.75 0 M35.75 0 C35.78 12.46, 35.54 25.91, 35.75 37.18 M35.75 0 C35.66 10.77, 35.4 22.8, 35.75 37.18 M35.75 37.18 C25.41 37.55, 14.73 37.46, 0 37.18 M35.75 37.18 C23.84 36.99, 12.5 36.87, 0 37.18 M0 37.18 C0.4 26.76, -0.53 16.65, 0 0 M0 37.18 C0.01 24.53, 0.16 11.96, 0 0" stroke="#1e1e1e" stroke-width="2" fill="none"></path></g><g stroke-linecap="round" transform="translate(989.4641401734722 94.3626047740654) rotate(0 89.36716607422204 95.80160203156595)"><path d="M-1.76 1.97 L180.04 -1.41 L177.3 193.32 L-1.24 191.47" stroke="none" stroke-width="0" fill="#d77d00"></path><path d="M0 0 C37.48 0.55, 75.26 0.23, 178.73 0 M0 0 C59.07 -1.06, 118.6 -1.58, 178.73 0 M178.73 0 C176.67 53.93, 177.93 108.37, 178.73 191.6 M178.73 0 C179.83 74.22, 180.4 147.31, 178.73 191.6 M178.73 191.6 C140.78 191.54, 104.61 192.88, 0 191.6 M178.73 191.6 C119.18 190.92, 59.01 190.14, 0 191.6 M0 191.6 C1.43 152.74, 0.81 112.16, 0 0 M0 191.6 C-1.21 130.17, -2.36 69.92, 0 0" stroke="#1e1e1e" stroke-width="2" fill="none"></path></g><g stroke-linecap="round" transform="translate(297.4048060946976 470.4196396143914) rotate(0 9.70193971251183 9.626566785155603)"><path d="M-0.89 -0.33 L18.78 -0.73 L19.58 19.99 L-0.68 19.83" stroke="none" stroke-width="0" fill="#0078a5"></path><path d="M0 0 C7.79 0.29, 14.09 0.18, 19.4 0 M0 0 C7.07 0.3, 14.26 -0.41, 19.4 0 M19.4 0 C20.24 5.89, 18.45 11.95, 19.4 19.25 M19.4 0 C19.1 4.61, 19.77 8.37, 19.4 19.25 M19.4 19.25 C12.8 19.69, 6.93 18.58, 0 19.25 M19.4 19.25 C12.73 19.33, 6.1 19.06, 0 19.25 M0 19.25 C0.26 12.87, -0.53 6.1, 0 0 M0 19.25 C-0.1 12.79, -0.05 6.71, 0 0" stroke="#1e1e1e" stroke-width="2" fill="none"></path></g><g stroke-linecap="round" transform="translate(619.1266039618966 333.1516725243864) rotate(0 23.592931843594556 25.022806500782167)"><path d="M0.26 0.31 L46.37 -1.69 L46.12 49.11 L0.49 48.48" stroke="none" stroke-width="0" fill="#0078a5"></path><path d="M0 0 C12.93 1.24, 27.19 0.34, 47.19 0 M0 0 C10.54 0.62, 19.95 -0.39, 47.19 0 M47.19 0 C48.65 13.12, 46.12 27.65, 47.19 50.05 M47.19 0 C47.93 12.97, 47.17 27.3, 47.19 50.05 M47.19 50.05 C29.69 50.92, 15.35 48.64, 0 50.05 M47.19 50.05 C32.99 49.31, 19.96 49.72, 0 50.05 M0 50.05 C-1.81 31.39, 1.37 11.6, 0 0 M0 50.05 C0.26 34.97, 0.9 18.64, 0 0" stroke="#1e1e1e" stroke-width="2" fill="none"></path></g><g stroke-linecap="round" transform="translate(812.1596826822157 118.67047394625382) rotate(0 60.05473560187738 64.34435957343979)"><path d="M1.23 0.28 L118.31 0.4 L120.58 129.83 L0.32 127.8" stroke="none" stroke-width="0" fill="#0078a5"></path><path d="M0 0 C40.56 -1.88, 81.69 -1.12, 120.11 0 M0 0 C39.9 -0.24, 77.05 -0.2, 120.11 0 M120.11 0 C117.89 49.71, 120.04 98.15, 120.11 128.69 M120.11 0 C120.35 34.6, 121.39 67.34, 120.11 128.69 M120.11 128.69 C84.84 127.12, 52.16 128.34, 0 128.69 M120.11 128.69 C95.39 128.61, 69.14 128.3, 0 128.69 M0 128.69 C-0.12 83.74, -0.08 39.06, 0 0 M0 128.69 C0.68 83.74, 0.6 38.89, 0 0" stroke="#1e1e1e" stroke-width="2" fill="none"></path></g><g stroke-linecap="round" transform="translate(1171.058221636291 94.36260477406546) rotate(0 25.737743829376086 30.027367800938578)"><path d="M-1.88 0.07 L51.73 -1.61 L51.53 61.38 L0.09 61.18" stroke="none" stroke-width="0" fill="#0078a5"></path><path d="M0 0 C17.55 1.07, 31.14 0.34, 51.48 0 M0 0 C11.21 0.66, 22.74 0.12, 51.48 0 M51.48 0 C51.71 12.57, 50.99 26.75, 51.48 60.05 M51.48 0 C51.21 19.83, 51.97 38.8, 51.48 60.05 M51.48 60.05 C41.76 60.87, 30.95 58.67, 0 60.05 M51.48 60.05 C37.17 60.84, 21.56 59.47, 0 60.05 M0 60.05 C-1.39 45.26, -1.19 27.52, 0 0 M0 60.05 C-0.23 36.62, -0.36 13.19, 0 0" stroke="#1e1e1e" stroke-width="2" fill="none"></path></g><g stroke-linecap="round" transform="translate(1162.4789736931657 145.8380924328173) rotate(0 8.579247943125438 8.579247943125324)"><path d="M7.75 0.28 C9.34 0.03, 11.72 0.17, 13.28 1.25 C14.84 2.32, 16.7 4.8, 17.11 6.75 C17.52 8.69, 16.67 11.23, 15.75 12.89 C14.83 14.55, 13.25 16.04, 11.57 16.69 C9.9 17.34, 7.44 17.44, 5.69 16.8 C3.93 16.16, 1.96 14.31, 1.04 12.85 C0.12 11.39, -0.19 9.71, 0.17 8.03 C0.52 6.34, 1.74 4.1, 3.18 2.74 C4.62 1.37, 7.93 0.21, 8.82 -0.16 C9.72 -0.54, 8.63 0.3, 8.53 0.47 M8.33 0.24 C9.97 0.07, 11.51 0.49, 13.02 1.48 C14.54 2.47, 16.96 4.34, 17.42 6.19 C17.88 8.03, 16.63 10.92, 15.79 12.55 C14.96 14.18, 13.86 15.33, 12.39 15.96 C10.92 16.6, 8.68 16.83, 6.98 16.36 C5.28 15.9, 3.37 14.49, 2.19 13.18 C1.01 11.86, -0.14 10.38, -0.11 8.49 C-0.08 6.61, 0.99 3.35, 2.37 1.87 C3.76 0.4, 7.3 -0.12, 8.21 -0.35 C9.12 -0.58, 7.92 0.34, 7.84 0.5" stroke="none" stroke-width="0" fill="#4d4dff"></path><path d="M9.63 0.12 C11.29 0.37, 13.74 1.73, 14.92 3.07 C16.11 4.4, 16.74 6.25, 16.74 8.11 C16.74 9.97, 16 12.65, 14.94 14.21 C13.89 15.77, 12.12 17.2, 10.42 17.46 C8.71 17.73, 6.29 16.86, 4.72 15.82 C3.14 14.78, 1.64 12.88, 0.97 11.22 C0.29 9.56, 0.19 7.44, 0.66 5.84 C1.14 4.25, 2.22 2.53, 3.81 1.65 C5.41 0.78, 9.14 0.82, 10.23 0.6 C11.33 0.38, 10.35 0.23, 10.38 0.32 M7.47 -0.34 C9.05 -0.49, 11.17 0.95, 12.83 2.09 C14.5 3.24, 16.9 4.86, 17.48 6.53 C18.06 8.2, 17.15 10.39, 16.33 12.1 C15.5 13.8, 14.24 15.91, 12.54 16.75 C10.85 17.59, 8.02 17.58, 6.18 17.12 C4.33 16.67, 2.45 15.52, 1.48 14.01 C0.51 12.49, 0.27 10.03, 0.35 8.04 C0.42 6.06, 0.74 3.43, 1.92 2.1 C3.1 0.76, 6.39 0.39, 7.44 0.04 C8.49 -0.3, 8.32 -0.04, 8.23 0.02" stroke="#1e1e1e" stroke-width="2" fill="none"></path></g><g stroke-linecap="round" transform="translate(607.8187347897083 373.1790403253251) rotate(0 8.579247943125438 8.579247943125324)"><path d="M10.03 0.5 C11.73 0.68, 13.83 1.32, 15.06 2.68 C16.28 4.05, 17.43 6.72, 17.41 8.69 C17.38 10.66, 16.18 13.03, 14.9 14.49 C13.62 15.95, 11.53 17.21, 9.73 17.44 C7.92 17.68, 5.52 16.92, 4.06 15.92 C2.59 14.91, 1.6 13.1, 0.94 11.43 C0.28 9.77, -0.44 7.63, 0.08 5.92 C0.59 4.2, 2.31 2.14, 4.04 1.16 C5.76 0.18, 9.41 0.22, 10.44 0.06 C11.47 -0.1, 10.22 -0.02, 10.2 0.21 M7.54 -0.11 C9.24 -0.26, 12.15 0.67, 13.77 1.8 C15.39 2.92, 16.87 5.02, 17.26 6.65 C17.66 8.29, 16.94 10.01, 16.15 11.6 C15.37 13.19, 14.31 15.42, 12.56 16.19 C10.82 16.95, 7.43 16.62, 5.7 16.19 C3.97 15.76, 3.05 15.01, 2.16 13.61 C1.28 12.2, 0.36 9.67, 0.37 7.77 C0.37 5.87, 1.03 3.43, 2.18 2.2 C3.34 0.98, 6.44 0.7, 7.3 0.41 C8.16 0.12, 7.14 0.25, 7.33 0.44" stroke="none" stroke-width="0" fill="#4d4dff"></path><path d="M8.9 0.47 C10.75 0.35, 12.92 0.72, 14.29 1.81 C15.66 2.89, 16.76 5.21, 17.12 6.98 C17.47 8.75, 17.33 10.84, 16.44 12.42 C15.55 13.99, 13.52 15.67, 11.78 16.42 C10.03 17.17, 7.73 17.53, 5.96 16.91 C4.19 16.3, 2.21 14.37, 1.16 12.75 C0.12 11.12, -0.62 8.88, -0.32 7.18 C-0.03 5.48, 1.46 3.84, 2.94 2.56 C4.42 1.28, 7.61 -0.15, 8.56 -0.49 C9.51 -0.82, 8.66 0.37, 8.65 0.57 M10.76 -0.46 C12.43 -0.07, 13.55 2.13, 14.65 3.56 C15.75 5, 17.19 6.44, 17.36 8.13 C17.52 9.83, 16.85 12.34, 15.64 13.72 C14.44 15.1, 12.06 16.17, 10.13 16.44 C8.2 16.71, 5.77 16.15, 4.04 15.31 C2.32 14.47, 0.23 12.94, -0.23 11.4 C-0.69 9.86, 0.4 7.72, 1.3 6.09 C2.2 4.47, 3.68 2.67, 5.15 1.64 C6.62 0.61, 9.17 0.17, 10.11 -0.09 C11.04 -0.35, 10.76 -0.07, 10.76 0.07" stroke="#1e1e1e" stroke-width="2" fill="none"></path></g><g stroke-linecap="round" transform="translate(289.37743829375916 478.70014098564116) rotate(0 8.579247943125438 8.579247943125324)"><path d="M9.35 0.43 C11.16 0.43, 13.63 1.22, 14.97 2.49 C16.31 3.76, 17.24 6.25, 17.4 8.05 C17.55 9.85, 17.02 11.77, 15.88 13.29 C14.73 14.8, 12.34 16.69, 10.54 17.13 C8.73 17.58, 6.71 16.85, 5.05 15.94 C3.4 15.04, 1.34 13.3, 0.61 11.7 C-0.13 10.09, 0.08 8.07, 0.65 6.33 C1.23 4.59, 2.63 2.38, 4.05 1.27 C5.48 0.15, 8.22 -0.19, 9.21 -0.35 C10.2 -0.52, 9.87 0.1, 9.99 0.28 M6.54 -0.46 C8.27 -0.9, 11.59 -0.33, 13.27 0.67 C14.96 1.66, 16.03 3.81, 16.65 5.5 C17.27 7.19, 17.55 9.01, 16.99 10.81 C16.43 12.61, 14.96 15.28, 13.28 16.29 C11.6 17.31, 8.85 17.23, 6.91 16.93 C4.98 16.63, 2.8 15.83, 1.66 14.51 C0.52 13.19, 0.09 10.76, 0.07 9 C0.05 7.25, 0.39 5.57, 1.56 3.98 C2.73 2.39, 6.18 0.02, 7.1 -0.52 C8.02 -1.05, 7.11 0.45, 7.06 0.76" stroke="none" stroke-width="0" fill="#4d4dff"></path><path d="M10.12 -0.05 C11.81 0.05, 13.68 1.08, 14.78 2.39 C15.87 3.69, 16.51 5.93, 16.7 7.79 C16.88 9.65, 16.94 12.07, 15.88 13.57 C14.83 15.06, 12.2 16.22, 10.35 16.74 C8.49 17.26, 6.41 17.43, 4.75 16.69 C3.09 15.95, 1.02 14.04, 0.37 12.29 C-0.29 10.55, 0.18 8.02, 0.83 6.23 C1.48 4.43, 2.79 2.59, 4.29 1.53 C5.79 0.46, 8.77 0.06, 9.83 -0.18 C10.89 -0.42, 10.71 -0.12, 10.67 0.09 M10.06 0.63 C11.75 0.87, 14.41 2.19, 15.67 3.58 C16.93 4.98, 17.71 7.29, 17.63 8.98 C17.54 10.66, 16.58 12.35, 15.16 13.69 C13.73 15.03, 11.02 16.65, 9.09 17.01 C7.17 17.37, 5.17 16.78, 3.63 15.86 C2.09 14.94, 0.25 13.35, -0.15 11.48 C-0.55 9.62, 0.45 6.45, 1.22 4.67 C1.98 2.9, 2.86 1.66, 4.45 0.85 C6.05 0.04, 9.78 -0.2, 10.8 -0.2 C11.81 -0.2, 10.58 0.71, 10.56 0.83" stroke="#1e1e1e" stroke-width="2" fill="none"></path></g><g stroke-linecap="round" transform="translate(804.9920641956525 112.9327301168779) rotate(0 8.579247943125438 8.579247943125324)"><path d="M8.28 -0.24 C10.15 -0.53, 12.66 0.29, 14.17 1.41 C15.69 2.53, 17.04 4.54, 17.36 6.46 C17.69 8.38, 17.04 11.33, 16.11 12.93 C15.19 14.53, 13.45 15.45, 11.82 16.05 C10.18 16.65, 8.05 16.96, 6.31 16.52 C4.57 16.08, 2.43 14.95, 1.37 13.41 C0.32 11.88, -0.24 9.13, -0.04 7.31 C0.17 5.5, 1.09 3.76, 2.6 2.51 C4.12 1.26, 7.93 0.25, 9.07 -0.18 C10.21 -0.62, 9.53 -0.25, 9.43 -0.09 M9.76 -0.17 C11.37 -0.12, 12.95 1.68, 14.15 2.91 C15.35 4.15, 16.86 5.37, 16.98 7.24 C17.1 9.12, 15.9 12.51, 14.86 14.18 C13.83 15.84, 12.46 16.93, 10.77 17.23 C9.09 17.53, 6.48 16.94, 4.76 16 C3.03 15.07, 1.1 13.32, 0.42 11.61 C-0.25 9.91, 0.1 7.37, 0.69 5.78 C1.29 4.19, 2.41 3.14, 3.98 2.08 C5.54 1.01, 9.13 -0.21, 10.1 -0.6 C11.07 -1, 9.94 -0.61, 9.8 -0.29" stroke="none" stroke-width="0" fill="#4d4dff"></path><path d="M9.96 0.46 C11.66 0.62, 13.56 1.71, 14.73 3.07 C15.9 4.43, 16.87 6.79, 16.99 8.6 C17.11 10.4, 16.64 12.58, 15.47 13.91 C14.3 15.24, 11.82 16.21, 9.97 16.57 C8.12 16.93, 5.85 16.91, 4.36 16.07 C2.87 15.23, 1.76 13.28, 1.03 11.51 C0.3 9.75, -0.61 7.22, -0.02 5.47 C0.57 3.72, 2.8 1.83, 4.55 1.02 C6.31 0.22, 9.43 0.79, 10.51 0.66 C11.59 0.54, 10.99 0.27, 11.02 0.27 M5.9 0.9 C7.43 0.43, 10.21 0.56, 11.86 1.27 C13.52 1.99, 15.11 3.69, 15.84 5.21 C16.57 6.74, 16.64 8.54, 16.24 10.42 C15.84 12.29, 14.76 15.23, 13.43 16.44 C12.1 17.66, 10.02 18.08, 8.27 17.7 C6.52 17.33, 4.37 15.56, 2.95 14.19 C1.53 12.83, -0.01 11.29, -0.26 9.49 C-0.51 7.68, 0.33 4.88, 1.43 3.35 C2.54 1.81, 5.6 0.68, 6.36 0.28 C7.13 -0.13, 5.91 0.86, 6.02 0.91" stroke="#1e1e1e" stroke-width="2" fill="none"></path></g><g stroke-linecap="round"><g transform="translate(77.20410888781475 776.4128162525273) rotate(0 -0.9172160712582524 -382.4904212060224)"><path d="M0.52 -0.39 C0.31 -127.66, -1.19 -637.33, -1.41 -764.59 M-0.67 -1.64 C-1.02 -128.71, -2.26 -636.73, -2.35 -763.6" stroke="#1e1e1e" stroke-width="2" fill="none"></path></g><g transform="translate(77.20410888781475 776.4128162525273) rotate(0 -0.9172160712582524 -382.4904212060224)"><path d="M-2.41 -762.91 L3.16 -748.89 L-8.26 -750.61 L-1.69 -764.85" stroke="none" stroke-width="0" fill="#1e1e1e" fill-rule="evenodd"></path><path d="M-2.35 -763.6 C-1.12 -759.7, -0.1 -755.01, 4.01 -750.01 M-2.35 -763.6 C-1.16 -759.57, 1.72 -756.15, 4.01 -750.01 M4.01 -750.01 C-0.95 -750.71, -3.67 -749.11, -8.67 -749.99 M4.01 -750.01 C-0.16 -750.41, -5.78 -750.24, -8.67 -749.99 M-8.67 -749.99 C-6.88 -753.68, -4.85 -756.04, -2.35 -763.6 M-8.67 -749.99 C-6.18 -754.32, -4.88 -757.81, -2.35 -763.6 M-2.35 -763.6 C-2.35 -763.6, -2.35 -763.6, -2.35 -763.6 M-2.35 -763.6 C-2.35 -763.6, -2.35 -763.6, -2.35 -763.6" stroke="#1e1e1e" stroke-width="2" fill="none"></path></g></g><mask></mask><g stroke-linecap="round"><g transform="translate(10 690.6203368212742) rotate(0 728.5321979867452 0.8392114828340027)"><path d="M1.16 -0.23 C243.47 0.04, 1212.19 1.12, 1454.58 1.5 M0.31 -1.4 C242.92 -0.91, 1214.36 2.84, 1456.75 3.08" stroke="#1e1e1e" stroke-width="2" fill="none"></path></g><g transform="translate(10 690.6203368212742) rotate(0 728.5321979867452 0.8392114828340027)"><path d="M1457.69 2.62 L1442.16 9.36 L1442.55 -5.1 L1457.93 3.15" stroke="none" stroke-width="0" fill="#1e1e1e" fill-rule="evenodd"></path><path d="M1456.75 3.08 C1451.57 4.18, 1447.06 7.59, 1443.14 9.38 M1456.75 3.08 C1451.23 5.21, 1447.62 8.07, 1443.14 9.38 M1443.14 9.38 C1443.83 6.22, 1444.12 4.44, 1443.17 -3.3 M1443.14 9.38 C1443.43 6.16, 1443 4.17, 1443.17 -3.3 M1443.17 -3.3 C1445.47 -0.92, 1449.8 -0.41, 1456.75 3.08 M1443.17 -3.3 C1448.51 -0.7, 1454.09 0.79, 1456.75 3.08 M1456.75 3.08 C1456.75 3.08, 1456.75 3.08, 1456.75 3.08 M1456.75 3.08 C1456.75 3.08, 1456.75 3.08, 1456.75 3.08" stroke="#1e1e1e" stroke-width="2" fill="none"></path></g></g><mask></mask><g stroke-linecap="round"><g transform="translate(68.91448491625215 114.38084997469116) rotate(0 7.14937328593777 -0.04461667998582186)"><path d="M0 0 C3.85 -0.05, 7.96 -0.41, 14.3 0 M0 0 C4.96 0.25, 10.23 -0.02, 14.3 0" stroke="#1e1e1e" stroke-width="2" fill="none"></path></g></g><mask></mask><g stroke-linecap="round"><g transform="translate(68.52451234124811 546.8221464706403) rotate(0 7.14937328593777 -0.1811416265741741)"><path d="M0 0 C3.55 -0.49, 8.3 -0.47, 14.3 0 M0 0 C2.91 -0.08, 5.69 -0.24, 14.3 0" stroke="#1e1e1e" stroke-width="2" fill="none"></path></g></g><mask></mask><g stroke-linecap="round"><g transform="translate(69.37513905531034 402.96580883719724) rotate(0 7.14937328593777 -0.12098369533390496)"><path d="M0 0 C4.98 -0.43, 11.41 -0.19, 14.3 0 M0 0 C3.62 -0.22, 7.92 -0.08, 14.3 0" stroke="#1e1e1e" stroke-width="2" fill="none"></path></g></g><mask></mask><g stroke-linecap="round"><g transform="translate(68.79589111218502 259.6795965465667) rotate(0 7.14937328593777 0.06596433475075969)"><path d="M0 0 C3.76 0.57, 8.18 -0.31, 14.3 0 M0 0 C4.93 -0.05, 10.1 0.39, 14.3 0" stroke="#1e1e1e" stroke-width="2" fill="none"></path></g></g><mask></mask><g stroke-linecap="round"><g transform="translate(211.0422013206321 702.0502114784617) rotate(0 -0.13717878703477027 -11.438997257500432)"><path d="M0 0 C-0.78 -7.93, -0.3 -14.9, 0 -22.88 M0 0 C0.02 -7.51, 0.33 -14.12, 0 -22.88" stroke="#1e1e1e" stroke-width="2" fill="none"></path></g></g><mask></mask><g stroke-linecap="round"><g transform="translate(346.0114218387614 701.0410888781488) rotate(0 -0.08688681716813562 -11.438997257500432)"><path d="M0 0 C-0.02 -5.89, 0.39 -10.72, 0 -22.88 M0 0 C-0.49 -4.73, -0.43 -9.06, 0 -22.88" stroke="#1e1e1e" stroke-width="2" fill="none"></path></g></g><mask></mask><g stroke-linecap="round"><g transform="translate(480.27026632845354 701.6020916206484) rotate(0 -0.035399761516089256 -11.438997257500432)"><path d="M0 0 C0.73 -6.77, -0.88 -15.36, 0 -22.88 M0 0 C0.18 -5.73, -0.3 -10.35, 0 -22.88" stroke="#1e1e1e" stroke-width="2" fill="none"></path></g></g><mask></mask><g stroke-linecap="round"><g transform="translate(613.8096121893954 702.5929690203357) rotate(0 0.06639494791789957 -11.438997257500432)"><path d="M0 0 C0.55 -5.88, 0.5 -10.87, 0 -22.88 M0 0 C-0.44 -5.54, -0.23 -11.93, 0 -22.88" stroke="#1e1e1e" stroke-width="2" fill="none"></path></g></g><mask></mask><g stroke-linecap="round"><g transform="translate(748.0684566790874 701.8734703915854) rotate(0 0.02101449045244408 -11.438997257500432)"><path d="M0 0 C0.73 -7.45, -0.64 -15.5, 0 -22.88 M0 0 C0.32 -5.98, -0.4 -12.28, 0 -22.88" stroke="#1e1e1e" stroke-width="2" fill="none"></path></g></g><mask></mask><g stroke-linecap="round"><g transform="translate(883.0376771972166 704.2942224484601) rotate(0 -0.12884558788675804 -11.438997257500432)"><path d="M0 0 C-0.92 -5.92, 0.39 -10.08, 0 -22.88 M0 0 C0.23 -4.41, -0.48 -9.62, 0 -22.88" stroke="#1e1e1e" stroke-width="2" fill="none"></path></g></g><mask></mask><g stroke-linecap="round"><g transform="translate(1017.4367723725337 704.8552251909597) rotate(0 0.1944548249817899 -11.438997257500432)"><path d="M0 0 C-0.09 -8.61, 0.41 -15.38, 0 -22.88 M0 0 C0.57 -5.04, 0.49 -9.7, 0 -22.88" stroke="#1e1e1e" stroke-width="2" fill="none"></path></g></g><mask></mask><g stroke-linecap="round"><g transform="translate(1150.8358675478503 703.8461025906469) rotate(0 -0.004726657862306638 -11.438997257500432)"><path d="M0 0 C-0.92 -7.78, 0.9 -16.55, 0 -22.88 M0 0 C0.13 -8.88, -0.16 -17.07, 0 -22.88" stroke="#1e1e1e" stroke-width="2" fill="none"></path></g></g><mask></mask><g stroke-linecap="round"><g transform="translate(1285.3752134087918 703.8369799903339) rotate(0 -0.13163635805460672 -11.438997257500432)"><path d="M0 0 C-0.77 -8.99, 0.16 -18.51, 0 -22.88 M0 0 C-0.44 -5.19, 0.22 -11.61, 0 -22.88" stroke="#1e1e1e" stroke-width="2" fill="none"></path></g></g><mask></mask><g stroke-linecap="round"><g transform="translate(1420.7743085841093 702.2577320472086) rotate(0 -0.0517239494279238 -11.438997257500432)"><path d="M0 0 C0.51 -6.72, -0.72 -13.08, 0 -22.88 M0 0 C-0.23 -8.02, 0.12 -16.51, 0 -22.88" stroke="#1e1e1e" stroke-width="2" fill="none"></path></g></g><mask></mask><g stroke-linecap="round"><g transform="translate(9.999999999999943 593.3888601325207) rotate(0 677.0456501783054 -291.69443006626034)"><path d="M0 0 C451.99 -195.76, 901.5 -388.35, 1354.09 -583.39 M0 0 C320.6 -139.67, 642.17 -278.86, 1354.09 -583.39" stroke="#1e1e1e" stroke-width="4" fill="none"></path></g></g><mask></mask><g stroke-linecap="round"><g stroke-opacity="0.6" fill-opacity="0.6" transform="translate(470.41963961439126 284.5359341800097) rotate(0 258.80731295094665 0.847938315916025)"><path d="M0 0 C124.74 2.36, 249.24 1.63, 517.61 1.43" stroke="#1e1e1e" stroke-width="2.5" fill="none" stroke-dasharray="8 10"></path></g></g><mask></mask></svg>