<svg version="1.1" xmlns="http://www.w3.org/2000/svg" viewBox="0 0 232.4764608036994 195.47528293287036" width="464.9529216073988" height="390.9505658657407"><!-- svg-source:excalidraw --><metadata></metadata><defs><style class="style-fonts">
      </style></defs><g stroke-linecap="round" transform="translate(10 10) rotate(0 106.2382304018497 87.73764146643518)"><path d="M32 0 C62.82 0, 93.64 0, 180.48 0 C201.81 0, 212.48 10.67, 212.48 32 C212.48 58.28, 212.48 84.56, 212.48 143.48 C212.48 164.81, 201.81 175.48, 180.48 175.48 C148.67 175.48, 116.86 175.48, 32 175.48 C10.67 175.48, 0 164.81, 0 143.48 C0 103.77, 0 64.06, 0 32 C0 10.67, 10.67 0, 32 0" stroke="none" stroke-width="0" fill="#267326"></path><path d="M32 0 C84.63 0, 137.26 0, 180.48 0 M32 0 C71.18 0, 110.36 0, 180.48 0 M180.48 0 C201.81 0, 212.48 10.67, 212.48 32 M180.48 0 C201.81 0, 212.48 10.67, 212.48 32 M212.48 32 C212.48 55.51, 212.48 79.02, 212.48 143.48 M212.48 32 C212.48 76.14, 212.48 120.28, 212.48 143.48 M212.48 143.48 C212.48 164.81, 201.81 175.48, 180.48 175.48 M212.48 143.48 C212.48 164.81, 201.81 175.48, 180.48 175.48 M180.48 175.48 C140.65 175.48, 100.82 175.48, 32 175.48 M180.48 175.48 C146.19 175.48, 111.91 175.48, 32 175.48 M32 175.48 C10.67 175.48, 0 164.81, 0 143.48 M32 175.48 C10.67 175.48, 0 164.81, 0 143.48 M0 143.48 C0 105.86, 0 68.24, 0 32 M0 143.48 C0 110.6, 0 77.73, 0 32 M0 32 C0 10.67, 10.67 0, 32 0 M0 32 C0 10.67, 10.67 0, 32 0" stroke="#f2f2f2" stroke-width="1" fill="none"></path></g><g stroke-linecap="round" transform="translate(21.192224897162305 69.93850176319654) rotate(0 10.838910815722784 8.881885251772786)"><path d="M4.44 0 C7.03 0.4, 14.48 0.72, 17.24 0 C17.93 -0.45, 19.36 0.05, 21.68 4.44 C20.94 5.85, 21.62 9.98, 21.68 13.32 C18.82 16.59, 17.11 21.15, 17.24 17.76 C13.22 19.17, 9.22 16.25, 4.44 17.76 C3.99 19.47, 2.02 19.74, 0 13.32 C-0.67 10.28, -0.53 8.11, 0 4.44 C-3.25 1.02, -1.81 -1.2, 4.44 0" stroke="none" stroke-width="0" fill="#267326"></path><path d="M4.44 0 C7.77 0.1, 10.44 -0.2, 17.24 0 M4.44 0 C9.79 0.02, 15 -0.32, 17.24 0 M17.24 0 C20.63 -0.05, 19.77 3.06, 21.68 4.44 M17.24 0 C22.34 -1.6, 19.63 1.69, 21.68 4.44 M21.68 4.44 C21.86 8.01, 22.51 10.34, 21.68 13.32 M21.68 4.44 C21.74 7.3, 21.41 11, 21.68 13.32 M21.68 13.32 C23.16 17.28, 20.02 19.73, 17.24 17.76 M21.68 13.32 C20.26 15.11, 19.47 15.94, 17.24 17.76 M17.24 17.76 C13.87 17.75, 9.55 17.89, 4.44 17.76 M17.24 17.76 C13.23 17.46, 9.99 17.49, 4.44 17.76 M4.44 17.76 C0.23 17.11, -1.96 17.8, 0 13.32 M4.44 17.76 C2 18.08, 0.86 14.11, 0 13.32 M0 13.32 C-0.81 10.52, 0 8.6, 0 4.44 M0 13.32 C0.24 10.53, -0.08 8.46, 0 4.44 M0 4.44 C0.35 2.31, 2.53 -0.81, 4.44 0 M0 4.44 C2.05 -0.57, -0.65 -0.7, 4.44 0" stroke="#f2f2f2" stroke-width="1" fill="none"></path></g><g stroke-linecap="round" transform="translate(21.192224897162305 95.8678764498236) rotate(0 10.838910815722784 8.881885251772786)"><path d="M4.44 0 C9.96 0.8, 12.22 -0.34, 17.24 0 C17.88 -1.43, 19.34 3.14, 21.68 4.44 C21.46 7.58, 20.33 8.14, 21.68 13.32 C18.59 19.67, 19.76 19.32, 17.24 17.76 C12.74 16.39, 11.15 19, 4.44 17.76 C3.5 21.22, -3.19 18.11, 0 13.32 C-0.39 9.97, -1.39 9.35, 0 4.44 C-3.29 0.28, 1.73 0.56, 4.44 0" stroke="none" stroke-width="0" fill="#267326"></path><path d="M4.44 0 C8.52 -0.15, 14.73 0.83, 17.24 0 M4.44 0 C8.33 -0.36, 11.38 -0.01, 17.24 0 M17.24 0 C18.29 1.58, 23.54 0.09, 21.68 4.44 M17.24 0 C18.15 0.21, 22.71 1.09, 21.68 4.44 M21.68 4.44 C22.55 6.44, 22.24 8.03, 21.68 13.32 M21.68 4.44 C21.52 6.91, 22.04 9.33, 21.68 13.32 M21.68 13.32 C21.5 18.25, 18.96 16.74, 17.24 17.76 M21.68 13.32 C20.95 14.46, 19.41 17.15, 17.24 17.76 M17.24 17.76 C11.84 17.82, 8.26 17.2, 4.44 17.76 M17.24 17.76 C12.88 17.31, 7.05 17.47, 4.44 17.76 M4.44 17.76 C-0.48 19.28, 0.45 16.56, 0 13.32 M4.44 17.76 C2.34 15.59, -0.34 15.08, 0 13.32 M0 13.32 C0.04 10.91, 0.06 7.08, 0 4.44 M0 13.32 C-0.18 11.67, 0.05 9.37, 0 4.44 M0 4.44 C1.05 0.67, 3.26 -1.78, 4.44 0 M0 4.44 C-2.13 0.78, 2.79 -2.01, 4.44 0" stroke="#f2f2f2" stroke-width="1" fill="none"></path></g><g stroke-linecap="round" transform="translate(21.19222489716276 121.79725113645063) rotate(0 10.838910815722784 8.881885251772772)"><path d="M4.44 0 C7.13 -0.37, 11.23 -1, 17.24 0 C17.86 1.66, 18.1 -0.35, 21.68 4.44 C20.4 6.86, 20.29 10.52, 21.68 13.32 C21.24 17.84, 20.22 17.24, 17.24 17.76 C14.22 18.7, 9.29 19.82, 4.44 17.76 C-1.71 19.59, -3.16 14.95, 0 13.32 C-1.4 11.1, -1.42 8.76, 0 4.44 C0.25 2.04, -0.13 -1.37, 4.44 0" stroke="none" stroke-width="0" fill="#267326"></path><path d="M4.44 0 C9.65 0.86, 12.02 0.64, 17.24 0 M4.44 0 C8.37 0.06, 11.42 0.58, 17.24 0 M17.24 0 C22.06 -1.39, 19.9 1.67, 21.68 4.44 M17.24 0 C21.23 -0.39, 20.53 2, 21.68 4.44 M21.68 4.44 C22.31 6.75, 21.43 11.08, 21.68 13.32 M21.68 4.44 C21.97 6.63, 21.6 8.81, 21.68 13.32 M21.68 13.32 C20.44 15.26, 19.56 16.17, 17.24 17.76 M21.68 13.32 C20.89 15.67, 21.41 17.82, 17.24 17.76 M17.24 17.76 C13.52 17.21, 10.77 17.54, 4.44 17.76 M17.24 17.76 C13.81 17.48, 10.55 18.17, 4.44 17.76 M4.44 17.76 C1.93 18.04, 0.75 14.39, 0 13.32 M4.44 17.76 C1.14 16.56, 0.23 14.07, 0 13.32 M0 13.32 C-0.02 10.19, -0.59 8.86, 0 4.44 M0 13.32 C0.11 11.15, 0.26 8.43, 0 4.44 M0 4.44 C1.78 -0.3, -0.37 -0.61, 4.44 0 M0 4.44 C1.31 -0.53, 2.87 -1.97, 4.44 0" stroke="#f2f2f2" stroke-width="1" fill="none"></path></g><g stroke-linecap="round" transform="translate(76.46484268594213 93.57577703001118) rotate(0 11.173984671585117 11.173984671585117)"><path d="M10.28 -0.14 C12.58 -0.35, 16.04 1.12, 18.01 2.54 C19.98 3.97, 21.63 6.07, 22.08 8.41 C22.54 10.75, 21.86 14.42, 20.72 16.58 C19.57 18.74, 17.29 20.47, 15.21 21.36 C13.13 22.24, 10.42 22.56, 8.21 21.9 C5.99 21.23, 3.3 19.35, 1.92 17.38 C0.53 15.41, -0.32 12.58, -0.1 10.09 C0.12 7.6, 1.41 4.06, 3.23 2.43 C5.05 0.79, 9.57 0.6, 10.82 0.29 C12.07 -0.03, 10.79 0.37, 10.74 0.53 M12.18 -0.43 C14.36 -0.35, 17.11 1.2, 18.86 2.87 C20.61 4.54, 22.49 7.16, 22.66 9.57 C22.83 11.99, 21.34 15.19, 19.88 17.36 C18.41 19.54, 16.24 21.98, 13.89 22.64 C11.53 23.29, 8 22.34, 5.75 21.31 C3.49 20.29, 1.26 18.63, 0.35 16.49 C-0.55 14.36, -0.43 10.93, 0.32 8.49 C1.07 6.05, 2.8 3.28, 4.87 1.84 C6.94 0.4, 11.58 0.02, 12.73 -0.16 C13.87 -0.33, 11.79 0.51, 11.75 0.8" stroke="none" stroke-width="0" fill="#267326"></path><path d="M12.26 0.19 C14.53 0.19, 17.59 1.27, 19.34 3.08 C21.08 4.89, 22.66 8.66, 22.73 11.06 C22.8 13.45, 21.25 15.58, 19.75 17.46 C18.25 19.33, 16.02 21.72, 13.73 22.29 C11.44 22.86, 8.14 21.96, 6.01 20.88 C3.89 19.8, 1.84 18, 1 15.82 C0.16 13.64, 0.24 10.19, 0.97 7.78 C1.7 5.36, 3.43 2.56, 5.4 1.32 C7.37 0.07, 11.51 0.49, 12.77 0.31 C14.02 0.13, 12.9 0.01, 12.93 0.23 M12.1 -0.3 C14.34 -0.38, 17.46 1.19, 19.12 2.98 C20.79 4.76, 21.85 7.92, 22.08 10.41 C22.3 12.91, 21.89 16.08, 20.48 17.94 C19.07 19.79, 16.01 21.01, 13.62 21.55 C11.23 22.08, 8.29 22.05, 6.12 21.15 C3.94 20.25, 1.51 18.42, 0.55 16.13 C-0.41 13.84, -0.51 9.87, 0.36 7.41 C1.22 4.95, 3.78 2.61, 5.73 1.35 C7.69 0.09, 11.08 -0.08, 12.09 -0.16 C13.1 -0.24, 11.72 0.63, 11.8 0.88" stroke="#f2f2f2" stroke-width="1" fill="none"></path></g><g stroke-linecap="round"><g transform="translate(77.10525847906138 95.75831570516834) rotate(0 -15.80427992811201 -8.045396177794402)"><path d="M0 0 C-8.5 -3.48, -17.51 -8.31, -23.17 -11.73 M0 0 C-6.37 -3.74, -14.17 -6.84, -23.17 -11.73 M-23.17 -11.73 C-25.97 -12.99, -28.53 -14.88, -31.61 -16.09 M-23.17 -11.73 C-26.12 -13.51, -29.35 -14.83, -31.61 -16.09" stroke="#f2f2f2" stroke-width="1" fill="none"></path></g><g transform="translate(77.10525847906138 95.75831570516834) rotate(0 -15.80427992811201 -8.045396177794402)"><path d="M-26.9 -15.49 C-28.63 -15.52, -30.48 -15.87, -31.61 -16.09 M-26.9 -15.49 C-28.18 -15.74, -29.8 -15.82, -31.61 -16.09" stroke="#f2f2f2" stroke-width="1" fill="none"></path></g><g transform="translate(77.10525847906138 95.75831570516834) rotate(0 -15.80427992811201 -8.045396177794402)"><path d="M-28.38 -12.61 C-29.57 -13.69, -30.87 -15.1, -31.61 -16.09 M-28.38 -12.61 C-29.21 -13.71, -30.39 -14.65, -31.61 -16.09" stroke="#f2f2f2" stroke-width="1" fill="none"></path></g></g><mask></mask><g stroke-linecap="round"><g transform="translate(77.48625953634928 113.73775739890016) rotate(0 -16.101988330154654 8.588522696182821)"><path d="M0 0 C-8.47 4.41, -15.83 7.34, -22.64 11.76 M0 0 C-8.98 4.42, -16.89 8.75, -22.64 11.76 M-22.64 11.76 C-24.5 13, -27.08 13.97, -32.2 17.18 M-22.64 11.76 C-25.26 13.23, -27.45 14.7, -32.2 17.18" stroke="#f2f2f2" stroke-width="1" fill="none"></path></g><g transform="translate(77.48625953634928 113.73775739890016) rotate(0 -16.101988330154654 8.588522696182821)"><path d="M-28.56 13.07 C-29.99 14.57, -31.11 15.69, -32.2 17.18 M-28.56 13.07 C-30.04 14.62, -31.24 16.15, -32.2 17.18" stroke="#f2f2f2" stroke-width="1" fill="none"></path></g><g transform="translate(77.48625953634928 113.73775739890016) rotate(0 -16.101988330154654 8.588522696182821)"><path d="M-26.77 16.37 C-28.82 16.73, -30.57 16.69, -32.2 17.18 M-26.77 16.37 C-28.95 16.67, -30.82 16.94, -32.2 17.18" stroke="#f2f2f2" stroke-width="1" fill="none"></path></g></g><mask></mask><g stroke-linecap="round"><g transform="translate(73.98071946846449 105.14918423258234) rotate(0 -14.5422198777419 0.28734230873479305)"><path d="M0 0 C-7.16 -0.68, -13.51 1.31, -18.96 0.54 M0 0 C-4.16 0.05, -8.98 0.36, -18.96 0.54 M-18.96 0.54 C-22.26 -0.03, -26.37 0.56, -29.08 0.35 M-18.96 0.54 C-21.01 0.64, -23.46 0.72, -29.08 0.35" stroke="#f2f2f2" stroke-width="1" fill="none"></path></g><g transform="translate(73.98071946846449 105.14918423258234) rotate(0 -14.5422198777419 0.28734230873479305)"><path d="M-24.24 -1.13 C-26.08 -0.81, -27.69 0.22, -29.08 0.35 M-24.24 -1.13 C-25.31 -0.81, -26.54 -0.42, -29.08 0.35" stroke="#f2f2f2" stroke-width="1" fill="none"></path></g><g transform="translate(73.98071946846449 105.14918423258234) rotate(0 -14.5422198777419 0.28734230873479305)"><path d="M-24.42 2.33 C-26.18 1.35, -27.72 1.08, -29.08 0.35 M-24.42 2.33 C-25.43 1.85, -26.63 1.45, -29.08 0.35" stroke="#f2f2f2" stroke-width="1" fill="none"></path></g></g><mask></mask><g stroke-linecap="round" transform="translate(134.20855774547135 150.3063198873661) rotate(1.6610149314871543 10.838910815722784 8.881885251772786)"><path d="M4.44 0 C9.59 -1.81, 11.01 -1.96, 17.24 0 C23.59 -0.44, 23.24 1.5, 21.68 4.44 C20.73 8.09, 22.53 10.41, 21.68 13.32 C25.13 13.09, 22.02 14.6, 17.24 17.76 C11.76 15.62, 10.21 15.59, 4.44 17.76 C0.28 18.01, 0.56 14.68, 0 13.32 C0.02 9.76, 0.33 7.62, 0 4.44 C-2.08 2.53, 0.32 -2.23, 4.44 0" stroke="none" stroke-width="0" fill="#267326"></path><path d="M4.44 0 C9.57 1.31, 11.78 -1.02, 17.24 0 M4.44 0 C8.08 0.17, 12.72 0.64, 17.24 0 M17.24 0 C19.69 1.23, 19.75 0.74, 21.68 4.44 M17.24 0 C20.98 -1.81, 20.72 2.18, 21.68 4.44 M21.68 4.44 C22.6 7.22, 21.27 10.81, 21.68 13.32 M21.68 4.44 C21.88 6.41, 21.62 8.05, 21.68 13.32 M21.68 13.32 C21.77 16.36, 19.32 19.41, 17.24 17.76 M21.68 13.32 C21.26 14.83, 22.11 16.42, 17.24 17.76 M17.24 17.76 C15.17 17.93, 11.33 18.12, 4.44 17.76 M17.24 17.76 C14.67 17.08, 11.79 17.66, 4.44 17.76 M4.44 17.76 C2.25 17.71, -1.66 14.94, 0 13.32 M4.44 17.76 C2.33 16.97, -0.77 18.42, 0 13.32 M0 13.32 C-0.4 11.29, -0.83 6.86, 0 4.44 M0 13.32 C0.22 10.55, 0.05 8.71, 0 4.44 M0 4.44 C0.74 0.22, 1.23 -1.29, 4.44 0 M0 4.44 C-0.92 -0.02, 2.54 -2.29, 4.44 0" stroke="#f2f2f2" stroke-width="1" fill="none"></path></g><g stroke-linecap="round" transform="translate(161.13793243209784 150.30631988736656) rotate(0 10.838910815722784 8.881885251772786)"><path d="M4.44 0 C8.37 -1.79, 14.07 -0.1, 17.24 0 C21.76 0.02, 21.15 3.68, 21.68 4.44 C22.33 7.75, 23.11 7.85, 21.68 13.32 C23.5 13.12, 18.87 15.14, 17.24 17.76 C13.46 15.45, 9.51 17.72, 4.44 17.76 C2.04 16.16, -1.37 17.11, 0 13.32 C0.36 9.72, -0.93 8.67, 0 4.44 C-1.16 -0.75, 3.48 0.59, 4.44 0" stroke="none" stroke-width="0" fill="#267326"></path><path d="M4.44 0 C6.17 -1.26, 9.8 0.46, 17.24 0 M4.44 0 C8.42 0.58, 11.52 0.36, 17.24 0 M17.24 0 C18.27 -0.75, 22.36 -0.1, 21.68 4.44 M17.24 0 C19.24 0.7, 23.39 2.62, 21.68 4.44 M21.68 4.44 C21.31 6.75, 21.06 9.31, 21.68 13.32 M21.68 4.44 C21.7 6.56, 21.75 9.32, 21.68 13.32 M21.68 13.32 C20.8 17.93, 19.83 16.5, 17.24 17.76 M21.68 13.32 C23.59 14.94, 18.76 17.01, 17.24 17.76 M17.24 17.76 C14.82 18.27, 10.85 17.6, 4.44 17.76 M17.24 17.76 C13.87 17.61, 11.14 17.62, 4.44 17.76 M4.44 17.76 C-0.18 16.42, 0.74 15.59, 0 13.32 M4.44 17.76 C0.71 19.9, 0.41 17.23, 0 13.32 M0 13.32 C-0.76 9.37, -0.23 7.57, 0 4.44 M0 13.32 C0.05 11.61, 0.11 9.27, 0 4.44 M0 4.44 C-0.25 0.19, 0.68 -1.3, 4.44 0 M0 4.44 C1.06 -0.81, 0.31 -0.97, 4.44 0" stroke="#f2f2f2" stroke-width="1" fill="none"></path></g><g stroke-linecap="round" transform="translate(187.46886688656105 150.3063198873653) rotate(0 10.838910815722784 8.881885251772786)"><path d="M4.44 0 C9.43 -0.08, 11.09 0.21, 17.24 0 C19.67 2.2, 20.66 -0.88, 21.68 4.44 C23.29 6.31, 22.56 9.61, 21.68 13.32 C20.35 13.66, 19.18 14.47, 17.24 17.76 C13.79 17.71, 12.23 16.53, 4.44 17.76 C0.11 18.59, -0.43 16.42, 0 13.32 C-0.96 11.81, -0.55 8.38, 0 4.44 C2 2.07, -1.51 -2.36, 4.44 0" stroke="none" stroke-width="0" fill="#267326"></path><path d="M4.44 0 C9.59 0.69, 14.28 -0.52, 17.24 0 M4.44 0 C8.41 0.27, 12.08 -0.36, 17.24 0 M17.24 0 C20.88 -1.58, 20.85 2.09, 21.68 4.44 M17.24 0 C21.9 1.14, 21.48 3.75, 21.68 4.44 M21.68 4.44 C20.93 6.25, 21.4 9.14, 21.68 13.32 M21.68 4.44 C21.69 7.14, 21.48 10.18, 21.68 13.32 M21.68 13.32 C21.31 15.02, 21.86 16.59, 17.24 17.76 M21.68 13.32 C20.24 15.53, 17.95 19.51, 17.24 17.76 M17.24 17.76 C11.9 17.62, 8.31 17.94, 4.44 17.76 M17.24 17.76 C14.88 17.74, 11.5 17.33, 4.44 17.76 M4.44 17.76 C2.22 17.07, -0.67 18.14, 0 13.32 M4.44 17.76 C1.89 18.71, 1.21 15.35, 0 13.32 M0 13.32 C-0.19 10.37, -0.7 6.95, 0 4.44 M0 13.32 C0.14 11.14, -0.08 9.23, 0 4.44 M0 4.44 C-0.8 0.18, 2.4 -1.99, 4.44 0 M0 4.44 C-1.17 0.51, 1.29 1.96, 4.44 0" stroke="#f2f2f2" stroke-width="1" fill="none"></path></g><g stroke-linecap="round" transform="translate(159.8028585762363 92.4065288229117) rotate(270 11.173984671585117 11.173984671585117)"><path d="M11.46 0.46 C13.63 0.29, 16.51 0.89, 18.28 2.48 C20.05 4.07, 21.79 7.5, 22.1 10 C22.41 12.51, 21.49 15.49, 20.16 17.48 C18.83 19.47, 16.28 21.25, 14.1 21.95 C11.92 22.65, 9.28 22.63, 7.09 21.68 C4.9 20.73, 2.14 18.46, 0.95 16.27 C-0.24 14.08, -0.57 10.84, -0.06 8.55 C0.46 6.26, 2.08 4, 4.05 2.54 C6.02 1.08, 10.32 0.17, 11.74 -0.2 C13.16 -0.58, 12.42 0.14, 12.56 0.3 M11.32 0.33 C13.7 0.1, 16.65 1.17, 18.54 2.66 C20.43 4.15, 22.39 6.78, 22.68 9.25 C22.96 11.73, 21.5 15.33, 20.24 17.49 C18.98 19.64, 17.19 21.6, 15.13 22.17 C13.06 22.75, 10.08 21.97, 7.85 20.93 C5.62 19.88, 3.08 17.98, 1.76 15.9 C0.44 13.82, -0.43 10.81, -0.06 8.45 C0.3 6.1, 2.16 3.2, 3.96 1.78 C5.76 0.35, 9.61 0.21, 10.73 -0.09 C11.86 -0.39, 10.6 -0.25, 10.72 -0.02" stroke="none" stroke-width="0" fill="#267326"></path><path d="M10.27 -0.04 C12.54 -0.59, 15.64 -0.04, 17.54 1.31 C19.44 2.65, 21.08 5.72, 21.67 8.05 C22.25 10.39, 21.95 13.07, 21.08 15.31 C20.2 17.55, 18.45 20.37, 16.42 21.49 C14.4 22.61, 11.21 22.67, 8.94 22.02 C6.66 21.38, 4.29 19.54, 2.76 17.61 C1.23 15.68, -0.21 12.83, -0.24 10.46 C-0.27 8.09, 0.86 5.09, 2.59 3.4 C4.31 1.71, 8.75 0.84, 10.1 0.3 C11.46 -0.23, 10.73 0.06, 10.71 0.2 M11.14 -0.47 C13.58 -0.77, 17.3 0.65, 19.06 2.24 C20.83 3.84, 21.56 6.56, 21.73 9.09 C21.89 11.62, 21.17 15.3, 20.06 17.42 C18.95 19.54, 17.15 21.23, 15.07 21.81 C12.98 22.4, 9.82 21.85, 7.53 20.93 C5.24 20.01, 2.54 18.36, 1.33 16.28 C0.12 14.19, -0.15 10.7, 0.27 8.41 C0.68 6.11, 1.96 3.91, 3.84 2.51 C5.73 1.1, 10.43 0.44, 11.57 -0.02 C12.7 -0.49, 10.66 -0.43, 10.66 -0.28" stroke="#f2f2f2" stroke-width="1" fill="none"></path></g><g stroke-linecap="round"><g transform="translate(170.27456502669247 140.0876816072684) rotate(270 -17.13138350480267 -8.842215729503977)"><path d="M0 0 C-7.76 -3.54, -15.02 -8.4, -23.17 -11.73 M0 0 C-8.15 -4.68, -16.91 -8.37, -23.17 -11.73 M-23.17 -11.73 C-26.72 -14.35, -31.81 -16.39, -34.26 -17.68 M-23.17 -11.73 C-25.44 -13.05, -28.07 -14.59, -34.26 -17.68" stroke="#f2f2f2" stroke-width="1" fill="none"></path></g><g transform="translate(170.27456502669247 140.0876816072684) rotate(270 -17.13138350480267 -8.842215729503977)"><path d="M-28.02 -16.91 C-30.1 -17.01, -32.02 -17.54, -34.26 -17.68 M-28.02 -16.91 C-30.22 -17.32, -32.59 -17.43, -34.26 -17.68" stroke="#f2f2f2" stroke-width="1" fill="none"></path></g><g transform="translate(170.27456502669247 140.0876816072684) rotate(270 -17.13138350480267 -8.842215729503977)"><path d="M-29.98 -13.07 C-31.38 -14.5, -32.63 -16.34, -34.26 -17.68 M-29.98 -13.07 C-31.45 -14.87, -33.12 -16.37, -34.26 -17.68" stroke="#f2f2f2" stroke-width="1" fill="none"></path></g></g><mask></mask><g stroke-linecap="round"><g transform="translate(202.18488783161956 121.29081545030627) rotate(270 -15.706929521854363 10.663916573717202)"><path d="M0 0 C-3.92 3.29, -9.16 6.07, -19.57 13.95 M0 0 C-5.33 3.74, -9.89 7.5, -19.57 13.95 M-19.57 13.95 C-23.34 15.84, -26.99 17.97, -31.41 21.33 M-19.57 13.95 C-22.81 15.72, -26.01 18, -31.41 21.33" stroke="#f2f2f2" stroke-width="1" fill="none"></path></g><g transform="translate(202.18488783161956 121.29081545030627) rotate(270 -15.706929521854363 10.663916573717202)"><path d="M-27.14 15.81 C-27.87 17.12, -29.06 18.25, -31.41 21.33 M-27.14 15.81 C-28.32 17.3, -29.25 18.78, -31.41 21.33" stroke="#f2f2f2" stroke-width="1" fill="none"></path></g><g transform="translate(202.18488783161956 121.29081545030627) rotate(270 -15.706929521854363 10.663916573717202)"><path d="M-24.59 19.85 C-25.96 20.15, -27.79 20.27, -31.41 21.33 M-24.59 19.85 C-26.46 20.27, -28.05 20.69, -31.41 21.33" stroke="#f2f2f2" stroke-width="1" fill="none"></path></g></g><mask></mask><g stroke-linecap="round"><g transform="translate(186.65296141832368 131.88730136022747) rotate(270 -14.962687808092141 0.18875299659217148)"><path d="M0 0 C-6.17 -0.75, -13.87 0.68, -18.96 0.54 M0 0 C-3.84 0.38, -8.43 0.73, -18.96 0.54 M-18.96 0.54 C-22.01 0.29, -24.33 0.72, -29.93 0.35 M-18.96 0.54 C-22.27 0.45, -25.72 0.61, -29.93 0.35" stroke="#f2f2f2" stroke-width="1" fill="none"></path></g><g transform="translate(186.65296141832368 131.88730136022747) rotate(270 -14.962687808092141 0.18875299659217148)"><path d="M-24.71 -1.32 C-26.39 -1, -28.52 -0.04, -29.93 0.35 M-24.71 -1.32 C-25.76 -0.88, -27.03 -0.44, -29.93 0.35" stroke="#f2f2f2" stroke-width="1" fill="none"></path></g><g transform="translate(186.65296141832368 131.88730136022747) rotate(270 -14.962687808092141 0.18875299659217148)"><path d="M-24.85 2.42 C-26.5 1.41, -28.58 1.03, -29.93 0.35 M-24.85 2.42 C-25.87 2.04, -27.1 1.65, -29.93 0.35" stroke="#f2f2f2" stroke-width="1" fill="none"></path></g></g><mask></mask><g stroke-linecap="round"><g transform="translate(104.25394144581287 103.73135863452137) rotate(0 26.315282391739856 0.15009330763736273)"><path d="M0 0 C9.29 1.03, 18.5 -0.48, 36.53 0 M36.53 0 C41.7 1.51, 46.17 -0.9, 52.63 0" stroke="#f2f2f2" stroke-width="1.5" fill="none" stroke-dasharray="8 9"></path></g><g transform="translate(104.25394144581287 103.73135863452137) rotate(0 26.315282391739856 0.15009330763736273)"><path d="M45.01 2.59 C46.79 2.23, 48.55 0.91, 52.63 0" stroke="#f2f2f2" stroke-width="1.5" fill="none"></path></g><g transform="translate(104.25394144581287 103.73135863452137) rotate(0 26.315282391739856 0.15009330763736273)"><path d="M45.12 -2.91 C46.9 -1.77, 48.63 -1.57, 52.63 0" stroke="#f2f2f2" stroke-width="1.5" fill="none"></path></g></g><mask></mask><g stroke-linecap="round" transform="translate(160.62328951992276 23.49131724331437) rotate(0 10.928751157225292 10.92875115722532)"><path d="M12.77 0.31 C15.01 0.48, 17.36 1.95, 18.82 3.65 C20.28 5.34, 21.48 8.08, 21.53 10.47 C21.59 12.86, 20.63 16.17, 19.14 17.99 C17.64 19.81, 14.86 20.98, 12.58 21.39 C10.3 21.81, 7.38 21.62, 5.48 20.48 C3.57 19.33, 1.98 16.75, 1.17 14.51 C0.36 12.26, -0.14 9.16, 0.62 7 C1.37 4.84, 3.65 2.67, 5.72 1.53 C7.78 0.39, 11.82 0.3, 13.02 0.16 C14.22 0.03, 13.01 0.6, 12.92 0.72 M13.55 -0.5 C15.76 -0.43, 18.34 1.43, 19.68 3.24 C21.02 5.06, 21.68 8.04, 21.58 10.38 C21.48 12.72, 20.66 15.4, 19.09 17.27 C17.52 19.14, 14.53 21.12, 12.15 21.6 C9.76 22.08, 6.69 21.28, 4.78 20.14 C2.87 19.01, 1.45 16.99, 0.71 14.78 C-0.03 12.58, -0.5 9.14, 0.32 6.91 C1.14 4.67, 3.55 2.6, 5.64 1.37 C7.72 0.15, 11.63 -0.17, 12.85 -0.42 C14.07 -0.66, 13.07 -0.42, 12.96 -0.11" stroke="none" stroke-width="0" fill="#267326"></path><path d="M10.05 0.02 C12.3 -0.47, 15.69 0.27, 17.54 1.57 C19.4 2.86, 20.69 5.49, 21.18 7.77 C21.68 10.04, 21.45 13, 20.51 15.21 C19.58 17.42, 17.61 19.97, 15.58 21.02 C13.54 22.07, 10.59 22.11, 8.29 21.5 C5.98 20.89, 3.11 19.3, 1.74 17.37 C0.36 15.44, -0.25 12.29, 0.05 9.94 C0.34 7.58, 1.87 4.82, 3.49 3.24 C5.1 1.66, 8.64 1, 9.73 0.45 C10.82 -0.1, 9.98 -0.11, 10.02 -0.08 M13.27 -0.51 C15.43 -0.31, 17.85 1.82, 19.29 3.64 C20.74 5.45, 21.99 7.97, 21.93 10.37 C21.88 12.77, 20.46 16.15, 18.97 18.04 C17.47 19.93, 15.33 21.4, 12.95 21.7 C10.58 21.99, 6.71 21.05, 4.7 19.81 C2.69 18.57, 1.59 16.27, 0.88 14.25 C0.18 12.24, -0.35 9.83, 0.46 7.73 C1.27 5.64, 3.59 3, 5.74 1.69 C7.89 0.39, 12.07 0.22, 13.38 -0.11 C14.69 -0.44, 13.83 -0.45, 13.61 -0.26" stroke="#f2f2f2" stroke-width="1" fill="none"></path></g><g stroke-linecap="round"><g transform="translate(158.61009851727567 31.831679968565254) rotate(0 -34.23153380609233 28.929174487553695)"><path d="M0 0 C-2.3 0.34, -7.43 -0.19, -13.8 2.01 C-20.18 4.22, -31.59 8.96, -38.25 13.23 C-44.91 17.5, -49.71 22.58, -53.78 27.61 C-57.86 32.64, -60.25 38.39, -62.7 43.43 C-65.14 48.47, -67.5 55.45, -68.46 57.86 M0 0 C-2.3 0.34, -7.43 -0.19, -13.8 2.01 C-20.18 4.22, -31.59 8.96, -38.25 13.23 C-44.91 17.5, -49.71 22.58, -53.78 27.61 C-57.86 32.64, -60.25 38.39, -62.7 43.43 C-65.14 48.47, -67.5 55.45, -68.46 57.86" stroke="#f2f2f2" stroke-width="1" fill="none"></path></g><g transform="translate(158.61009851727567 31.831679968565254) rotate(0 -34.23153380609233 28.929174487553695)"><path d="M-6.35 2.9 C-4.23 1.93, -2.11 0.96, 0 0 M-6.35 2.9 C-3.82 1.74, -1.29 0.59, 0 0" stroke="#f2f2f2" stroke-width="1" fill="none"></path></g><g transform="translate(158.61009851727567 31.831679968565254) rotate(0 -34.23153380609233 28.929174487553695)"><path d="M-6.72 -1.86 C-4.48 -1.24, -2.23 -0.62, 0 0 M-6.72 -1.86 C-4.04 -1.12, -1.36 -0.38, 0 0" stroke="#f2f2f2" stroke-width="1" fill="none"></path></g><g transform="translate(158.61009851727567 31.831679968565254) rotate(0 -34.23153380609233 28.929174487553695)"><path d="M-68.39 50.09 C-68.42 52.68, -68.44 55.28, -68.46 57.86 M-68.39 50.09 C-68.42 53.18, -68.45 56.28, -68.46 57.86" stroke="#f2f2f2" stroke-width="1" fill="none"></path></g><g transform="translate(158.61009851727567 31.831679968565254) rotate(0 -34.23153380609233 28.929174487553695)"><path d="M-63.41 51.95 C-65.1 53.93, -66.79 55.9, -68.46 57.86 M-63.41 51.95 C-65.43 54.31, -67.44 56.66, -68.46 57.86" stroke="#f2f2f2" stroke-width="1" fill="none"></path></g></g><mask></mask><g stroke-linecap="round"><g transform="translate(171.26444196248394 48.512405419067136) rotate(0 -0.14379935733177263 20.850906813127267)"><path d="M0 0 C-0.05 4.46, -0.29 19.8, -0.29 26.75 C-0.29 33.7, -0.05 39.21, 0 41.7" stroke="#f2f2f2" stroke-width="1.5" fill="none" stroke-dasharray="8 9"></path></g><g transform="translate(171.26444196248394 48.512405419067136) rotate(0 -0.14379935733177263 20.850906813127267)"><path d="M-2.75 34.75 C-2.04 36.54, -1.33 38.34, 0 41.7" stroke="#f2f2f2" stroke-width="1.5" fill="none"></path></g><g transform="translate(171.26444196248394 48.512405419067136) rotate(0 -0.14379935733177263 20.850906813127267)"><path d="M2.36 34.61 C1.75 36.44, 1.14 38.27, 0 41.7" stroke="#f2f2f2" stroke-width="1.5" fill="none"></path></g></g><mask></mask><g stroke-linecap="round"><g transform="translate(136.1335666076543 57.895985894126625) rotate(0 4.364955594265609 0.4361253923984094)" fill-rule="evenodd"><path d="M0 0 C0.8 -1.14, 2.84 -7.86, 4.78 -6.82 C6.71 -5.78, 12.84 4, 11.6 6.24 C10.37 8.48, -0.84 8.04, -2.63 6.63 C-4.42 5.22, 0.29 -0.76, 0.88 -2.24" stroke="none" stroke-width="0" fill="#267326" fill-rule="evenodd"></path><path d="M0 0 C0.8 -1.14, 2.84 -7.86, 4.78 -6.82 C6.71 -5.78, 12.84 4, 11.6 6.24 C10.37 8.48, -0.84 8.04, -2.63 6.63 C-4.42 5.22, 0.29 -0.76, 0.88 -2.24 M0 0 C0.8 -1.14, 2.84 -7.86, 4.78 -6.82 C6.71 -5.78, 12.84 4, 11.6 6.24 C10.37 8.48, -0.84 8.04, -2.63 6.63 C-4.42 5.22, 0.29 -0.76, 0.88 -2.24" stroke="#f2f2f2" stroke-width="1" fill="none"></path></g></g><mask></mask><g stroke-linecap="round"><g transform="translate(146.95521223873175 55.36118601657688) rotate(0 7.360668875192232 -6.483238148348164)"><path d="M0 0 C1.04 -0.89, 3.79 -3.2, 6.24 -5.36 C8.69 -7.52, 13.31 -11.7, 14.72 -12.97 M0 0 C1.04 -0.89, 3.79 -3.2, 6.24 -5.36 C8.69 -7.52, 13.31 -11.7, 14.72 -12.97" stroke="#f2f2f2" stroke-width="1" fill="none"></path></g><g transform="translate(146.95521223873175 55.36118601657688) rotate(0 7.360668875192232 -6.483238148348164)"><path d="M12.05 -7.94 C12.83 -9.4, 13.6 -10.87, 14.72 -12.97 M12.05 -7.94 C12.78 -9.31, 13.51 -10.69, 14.72 -12.97" stroke="#f2f2f2" stroke-width="1" fill="none"></path></g><g transform="translate(146.95521223873175 55.36118601657688) rotate(0 7.360668875192232 -6.483238148348164)"><path d="M9.44 -10.83 C10.98 -11.45, 12.52 -12.08, 14.72 -12.97 M9.44 -10.83 C10.88 -11.42, 12.33 -12, 14.72 -12.97" stroke="#f2f2f2" stroke-width="1" fill="none"></path></g></g><mask></mask></svg>