<svg version="1.1" xmlns="http://www.w3.org/2000/svg" viewBox="0 0 470.97092842906716 147.56860041767357" width="470.97092842906716" height="147.56860041767357"><!-- svg-source:excalidraw --><metadata></metadata><defs><style class="style-fonts">
      </style></defs><g stroke-linecap="round"><g transform="translate(20.10788230225444 136.92146788835527) rotate(0 -1.0563163757324219 -62.54069137573242)"><path d="M-1.17 -0.07 C-1.49 -21.05, -1.24 -104.22, -1.38 -124.89 M0.41 -1.16 C-0.04 -22, -1.42 -102.46, -1.94 -123.26" stroke="#1e1e1e" stroke-width="2" fill="none"></path></g><g transform="translate(20.10788230225444 136.92146788835527) rotate(0 -1.0563163757324219 -62.54069137573242)"><path d="M7.09 -99.95 C3.69 -106.8, 1.03 -115.84, -1.94 -123.26 M7.09 -99.95 C3.79 -109.51, -0.16 -117.83, -1.94 -123.26" stroke="#1e1e1e" stroke-width="2" fill="none"></path></g><g transform="translate(20.10788230225444 136.92146788835527) rotate(0 -1.0563163757324219 -62.54069137573242)"><path d="M-10.01 -99.59 C-7.56 -106.4, -4.36 -115.56, -1.94 -123.26 M-10.01 -99.59 C-6.78 -109.28, -4.2 -117.73, -1.94 -123.26" stroke="#1e1e1e" stroke-width="2" fill="none"></path></g></g><mask></mask><g stroke-linecap="round"><g transform="translate(10.804495614022017 127.6766711354256) rotate(0 67.07193565368652 -1.7073593139648438)"><path d="M-0.8 0.59 C21.49 0.12, 112.18 -2.46, 134.58 -3.31 M0.97 -0.14 C23.08 -0.36, 111.93 -1.12, 133.86 -1.72" stroke="#1e1e1e" stroke-width="2" fill="none"></path></g><g transform="translate(10.804495614022017 127.6766711354256) rotate(0 67.07193565368652 -1.7073593139648438)"><path d="M110.51 7.21 C120.09 4.83, 127.81 -0.07, 133.86 -1.72 M110.51 7.21 C116.26 4.65, 119.5 3.79, 133.86 -1.72" stroke="#1e1e1e" stroke-width="2" fill="none"></path></g><g transform="translate(10.804495614022017 127.6766711354256) rotate(0 67.07193565368652 -1.7073593139648438)"><path d="M110.23 -9.88 C119.84 -6.01, 127.67 -4.65, 133.86 -1.72 M110.23 -9.88 C115.93 -8.87, 119.23 -6.16, 133.86 -1.72" stroke="#1e1e1e" stroke-width="2" fill="none"></path></g></g><mask></mask><g stroke-linecap="round"><g transform="translate(37.184702675789595 110.55428038835528) rotate(0 40.17903518676758 -38.733726501464844)"><path d="M0.62 -0.78 C14.23 -13.35, 67.23 -63.46, 80.48 -76.41 M-0.52 1.43 C13.05 -11.38, 66.3 -64.79, 79.6 -77.98" stroke="#1e1e1e" stroke-width="2" fill="none"></path></g></g><mask></mask><g stroke-linecap="round"><g transform="translate(176.43605699390173 136.95635566189884) rotate(0 -1.0563163757324219 -62.54069137573242)"><path d="M0.29 0.61 C-0.06 -20.43, -1.82 -105.1, -2.05 -125.94 M-1.02 -0.11 C-1.53 -21.06, -2.92 -103.81, -2.96 -124.86" stroke="#1e1e1e" stroke-width="2" fill="none"></path></g><g transform="translate(176.43605699390173 136.95635566189884) rotate(0 -1.0563163757324219 -62.54069137573242)"><path d="M5.84 -101.46 C4.12 -108.44, -1.01 -113.88, -2.96 -124.86 M5.84 -101.46 C1.93 -109, 0.41 -118.58, -2.96 -124.86" stroke="#1e1e1e" stroke-width="2" fill="none"></path></g><g transform="translate(176.43605699390173 136.95635566189884) rotate(0 -1.0563163757324219 -62.54069137573242)"><path d="M-11.26 -101.28 C-7.78 -108.35, -7.72 -113.85, -2.96 -124.86 M-11.26 -101.28 C-9.1 -108.82, -4.55 -118.46, -2.96 -124.86" stroke="#1e1e1e" stroke-width="2" fill="none"></path></g></g><mask></mask><g stroke-linecap="round"><g transform="translate(167.1326703056693 127.71155890896917) rotate(0 67.07193565368652 -1.7073593139648438)"><path d="M0.07 -0.86 C22.55 -1.42, 112.97 -2.25, 135.21 -2.76 M-1.36 1.3 C21.04 0.34, 112.53 -3.84, 134.83 -4.53" stroke="#1e1e1e" stroke-width="2" fill="none"></path></g><g transform="translate(167.1326703056693 127.71155890896917) rotate(0 67.07193565368652 -1.7073593139648438)"><path d="M111.69 4.94 C117.7 3.64, 127.72 -2.25, 134.83 -4.53 M111.69 4.94 C118.45 1.83, 123.9 -0.27, 134.83 -4.53" stroke="#1e1e1e" stroke-width="2" fill="none"></path></g><g transform="translate(167.1326703056693 127.71155890896917) rotate(0 67.07193565368652 -1.7073593139648438)"><path d="M111.01 -12.15 C117.33 -7.91, 127.57 -8.27, 134.83 -4.53 M111.01 -12.15 C117.79 -10.85, 123.42 -8.52, 134.83 -4.53" stroke="#1e1e1e" stroke-width="2" fill="none"></path></g></g><mask></mask><g stroke-linecap="round"><g transform="translate(193.40872087329626 110.68682441189885) rotate(89.9161868296744 40.17903518676758 -38.733726501464844)"><path d="M1.07 0.66 C4.37 -6.86, 6.84 -33.11, 19.87 -45.97 C32.9 -58.83, 69.05 -71.17, 79.27 -76.51 M0.17 -0.04 C3.86 -7.32, 8.68 -31.64, 22.25 -44.69 C35.82 -57.75, 71.65 -72.93, 81.59 -78.36" stroke="#1e1e1e" stroke-width="2" fill="none"></path></g></g><mask></mask><g stroke-linecap="round"><g transform="translate(327.6046971306205 135.20180854275822) rotate(0 -1.0563163757324219 -62.54069137573242)"><path d="M0.53 0.51 C0.5 -20.43, -0.61 -104.15, -1.1 -125.2 M-0.64 -0.26 C-0.67 -21.05, -1.07 -102.96, -1.51 -123.73" stroke="#1e1e1e" stroke-width="2" fill="none"></path></g><g transform="translate(327.6046971306205 135.20180854275822) rotate(0 -1.0563163757324219 -62.54069137573242)"><path d="M7.31 -100.34 C6.07 -103.93, 3.01 -111.39, -1.51 -123.73 M7.31 -100.34 C5.09 -105.5, 2.12 -111.27, -1.51 -123.73" stroke="#1e1e1e" stroke-width="2" fill="none"></path></g><g transform="translate(327.6046971306205 135.20180854275822) rotate(0 -1.0563163757324219 -62.54069137573242)"><path d="M-9.78 -100.14 C-7.14 -103.85, -6.31 -111.36, -1.51 -123.73 M-9.78 -100.14 C-7.9 -105.34, -6.76 -111.17, -1.51 -123.73" stroke="#1e1e1e" stroke-width="2" fill="none"></path></g></g><mask></mask><g stroke-linecap="round"><g transform="translate(318.30131044238806 125.95701178982854) rotate(0 67.07193565368652 -1.7073593139648438)"><path d="M1.02 -0.12 C23.24 -0.89, 111.5 -3.59, 133.87 -4.13 M0.09 -1.23 C22.08 -1.91, 110.29 -2.83, 132.78 -2.97" stroke="#1e1e1e" stroke-width="2" fill="none"></path></g><g transform="translate(318.30131044238806 125.95701178982854) rotate(0 67.07193565368652 -1.7073593139648438)"><path d="M109.36 5.79 C117.19 2.12, 124.27 1.36, 132.78 -2.97 M109.36 5.79 C115.67 3.35, 123.53 -0.45, 132.78 -2.97" stroke="#1e1e1e" stroke-width="2" fill="none"></path></g><g transform="translate(318.30131044238806 125.95701178982854) rotate(0 67.07193565368652 -1.7073593139648438)"><path d="M109.21 -11.31 C117.17 -9.09, 124.29 -3.96, 132.78 -2.97 M109.21 -11.31 C115.58 -8.6, 123.49 -7.24, 132.78 -2.97" stroke="#1e1e1e" stroke-width="2" fill="none"></path></g></g><mask></mask><g stroke-linecap="round"><g transform="translate(339.84094504639506 44.78604613542559) rotate(0 60.19206237792969 29.527992248535156)"><path d="M-0.09 1.06 C4.44 4.91, 19.77 14.34, 27.24 24.14 C34.71 33.94, 32.38 57.72, 44.73 59.88 C57.07 62.04, 88.58 46.7, 101.32 37.09 C114.05 27.48, 118.02 8.2, 121.13 2.23 M-1.59 0.57 C2.79 5.05, 18.27 15.57, 26.38 25.14 C34.48 34.71, 34.4 55.76, 47.02 57.97 C59.64 60.19, 89.92 47.57, 102.09 38.43 C114.26 29.29, 116.86 9.48, 120.05 3.12" stroke="#1e1e1e" stroke-width="2" fill="none"></path></g></g><mask></mask></svg>